<svg width="319" height="568" viewBox="0 0 319 568" fill="none" xmlns="http://www.w3.org/2000/svg">
<g clip-path="url(#clip0_236_103)">
<path d="M321 0H0V569H321V0Z" fill="#F0EFE5"/>
<mask id="mask0_236_103" style="mask-type:luminance" maskUnits="userSpaceOnUse" x="0" y="0" width="321" height="569">
<path d="M321 0H0V569H321V0Z" fill="white"/>
</mask>
<g mask="url(#mask0_236_103)">
<path d="M186.464 559.727C183.705 551.087 172.721 516.631 174.978 480.12C177.921 432.493 199.689 441.08 222.342 379.597C248.307 309.104 242.087 237.031 264.741 209.845C283.817 186.98 302.659 220.751 303.997 223.227C322.137 256.893 326.183 317.165 327.019 329.546C331.566 397.299 321.134 451.459 317.188 471.901C301.522 553.194 274.772 578.22 264.173 588.177C257.418 594.5 211.325 637.701 186.464 559.727Z" fill="#F8F7F1"/>
<path d="M-16.2676 151.681C-15.3146 155.052 -8.10884 180.71 0.852409 177.865C11.0508 174.599 10.9505 139.616 24.9107 115.96C37.0485 95.4129 44.9565 108.9 50.1727 85.6661C54.6199 65.8038 52.4799 39.6719 52.0118 33.8239C49.1027 -1.63325 38.2523 -24.4986 29.4749 -31.6111C6.62038 -50.209 -21.5507 22.0224 -22.6374 89.5648C-22.7377 95.8343 -23.256 126.813 -16.2676 151.681Z" fill="#F8F7F1"/>
<path d="M300.352 142.355C301.572 179.709 312.891 196.147 313.777 197.359C322.404 209.318 335.528 206.631 340.912 178.708C346.696 148.73 340.059 107.689 331.516 89.8283C325.564 77.3945 315.048 68.5961 307.324 87.0359C299.349 106.161 300.268 140.037 300.352 142.355Z" fill="#EDEED3"/>
<path d="M256.85 -132.503C261.715 -105.581 260.411 -72.2841 255.897 -50.4197C249.444 -19.072 240.817 -32.7702 228.946 -1.63324C214.836 35.3518 219.132 75.3398 206.008 96.0451C196.529 111.008 193.536 91.3561 182.736 107.004C168.241 128.025 163.71 177.971 156.32 172.281C153.862 170.384 152.492 163.429 152.358 162.692C147.075 134.874 169.01 96.6247 175.095 16.227C178.824 -32.9282 173.574 -57.6903 180.679 -78.5536C186.748 -96.3612 191.965 -82.4523 203.2 -97.731C219.617 -120.122 218.832 -164.009 231.504 -171.596C240.566 -177.075 251.684 -161.111 256.85 -132.503Z" fill="#EDEED3"/>
<path d="M33.4705 561.624C27.2511 670.84 74.5819 741.913 78.8786 748.34C87.8733 761.828 108.922 793.439 124.655 761.617C138.999 732.64 139.902 669.365 140.119 654.455C141.373 567.051 121.746 444.874 87.773 438.868C64.0324 434.653 37.6669 487.97 33.4705 561.624Z" fill="#EDEED3"/>
<path d="M259.725 16.8066C259.525 19.1247 258.856 19.5462 258.22 17.8603C257.585 16.1744 257.217 13.1186 257.385 10.8532C257.552 8.58769 258.22 7.95547 258.889 9.58871C259.558 11.222 259.926 14.5411 259.725 16.8066Z" fill="#F8F7F1"/>
<path d="M247.403 20.8633C246.534 22.602 244.845 22.0751 243.658 20.0204C242.471 17.9657 242.204 15.1733 243.057 13.4347C243.909 11.6961 245.531 11.6434 246.751 13.6982C247.955 15.7529 248.273 19.1247 247.403 20.8633Z" fill="#F8F7F1"/>
<path d="M226.789 -9.69407C225.602 -3.74065 222.944 1.47519 220.904 1.7913C218.865 2.10741 218.163 -3.31917 219.316 -10.0629C220.47 -16.8066 223.028 -21.9697 225.101 -21.4429C227.174 -20.916 227.993 -15.6475 226.789 -9.69407Z" fill="#F8F7F1"/>
<path d="M232.022 9.16721C231.12 12.8025 229.113 15.9109 227.542 16.1743C225.97 16.4905 225.151 13.5928 225.686 9.64138C226.338 5.68999 228.277 2.42351 230.15 2.52888C232.022 2.68693 232.925 5.79536 232.022 9.16721Z" fill="#F8F7F1"/>
<path d="M248.908 54.8453C248.29 56.3205 247.236 55.7936 246.551 53.5809C245.866 51.3681 245.799 48.4177 246.417 46.9952C247.053 45.5727 248.123 46.2049 248.808 48.3123C249.477 50.4724 249.527 53.3701 248.908 54.8453Z" fill="#F8F7F1"/>
<path d="M257.017 -2.52889C256.867 2.79232 255.295 4.53093 253.506 1.84399C251.7 -0.895644 250.263 -6.3749 250.346 -10.8531C250.313 -15.5948 251.784 -18.1764 253.723 -16.1743C255.646 -14.2777 257.167 -7.90277 257.017 -2.52889Z" fill="#F8F7F1"/>
<path d="M254.643 39.1978C253.807 41.3579 252.302 40.673 251.349 37.8806C250.38 35.0883 250.346 31.5057 251.199 29.6091C252.051 27.6597 253.456 27.8705 254.392 30.3993C255.328 32.9809 255.462 37.0377 254.643 39.1978Z" fill="#F8F7F1"/>
<path d="M236.185 40.5149C234.898 47.7855 232.708 52.2637 231.086 50.367C229.448 49.1553 228.645 42.5696 229.431 35.7205C230.167 29.6091 232.674 25.2362 234.831 26.7641C236.988 28.2392 237.473 34.6668 236.185 40.5149Z" fill="#F8F7F1"/>
<path d="M218.982 33.4024C218.815 36.8269 217.862 39.83 216.825 39.8827C215.805 39.988 215.07 37.1957 215.187 33.8239C215.304 30.452 216.273 27.6597 217.343 27.5017C218.413 27.3963 219.149 29.9779 218.982 33.4024Z" fill="#F8F7F1"/>
<path d="M223.914 57.3215C223.63 63.2222 222.51 67.7531 221.339 67.1736C220.169 66.6468 219.333 61.7997 219.467 56.5839C219.617 51.3681 220.804 47.2059 222.092 47.1006C223.396 46.9425 224.198 51.4207 223.914 57.3215Z" fill="#F8F7F1"/>
<path d="M240.917 87.4574C240.064 95.0441 238.175 97.8891 236.67 93.9904C235.149 90.0917 234.58 80.2396 235.4 71.968C236.236 64.1706 238.225 61.3256 239.813 65.9619C241.385 70.5455 241.853 80.2922 240.917 87.4574Z" fill="#F8F7F1"/>
<path d="M5.98513 359.471C5.71763 361.526 4.93185 362.738 4.21294 362.158C3.49404 361.526 3.15966 359.26 3.4606 357.258C3.76154 355.256 4.56404 354.203 5.23279 354.782C5.91826 355.414 6.25263 357.416 5.98513 359.471Z" fill="#EDEED3"/>
<path d="M9.79696 400.091C9.52946 404.043 7.55665 405.36 5.34977 403.41C3.1429 401.408 1.83884 397.194 2.44071 393.558C2.89212 389.66 4.69774 387.605 6.55352 389.238C8.42603 390.871 9.91399 395.824 9.79696 400.091Z" fill="#EDEED3"/>
<path d="M19.4439 377.121C19.3101 381.599 17.4878 383.759 15.2976 382.073C13.0907 379.913 11.4857 374.065 11.7699 369.218C12.0374 364.371 13.9434 362.579 15.9831 364.95C18.0395 367.163 19.5776 372.642 19.4439 377.121Z" fill="#EDEED3"/>
<path d="M22.9717 426.645C22.7711 428.963 22.1023 429.384 21.467 427.698C20.8317 426.012 20.4639 422.957 20.6311 420.691C20.7983 418.426 21.467 417.793 22.1358 419.427C22.7878 421.007 23.1723 424.326 22.9717 426.645Z" fill="#EDEED3"/>
<path d="M10.65 430.649C9.78063 432.387 8.09204 431.86 6.90501 429.806C5.71798 427.751 5.45048 424.959 6.30313 423.22C7.15579 421.481 8.77751 421.429 9.99798 423.483C11.185 425.538 11.5027 428.91 10.65 430.649Z" fill="#EDEED3"/>
<path d="M12.1544 464.631C11.5358 466.106 10.4825 465.579 9.79707 463.366C9.1116 461.153 9.04473 458.203 9.66332 456.781C10.2986 455.358 11.3686 455.99 12.0541 458.098C12.7229 460.258 12.7563 463.156 12.1544 464.631Z" fill="#EDEED3"/>
<path d="M20.2465 407.256C20.096 412.578 18.5245 414.316 16.7356 411.629C14.93 408.89 13.4921 403.41 13.5757 398.932C13.5423 394.191 15.0135 391.609 16.9529 393.611C18.8923 395.508 20.4137 401.883 20.2465 407.256Z" fill="#EDEED3"/>
<path d="M17.8889 448.983C17.053 451.143 15.5483 450.458 14.5953 447.666C13.6256 444.874 13.5922 441.291 14.4448 439.394C15.2975 437.445 16.7019 437.656 17.6381 440.185C18.5744 442.766 18.7081 446.823 17.8889 448.983Z" fill="#EDEED3"/>
<path d="M-0.568487 450.3C-1.85583 457.571 -4.04599 462.049 -5.66771 460.152C-7.30614 458.941 -8.10864 452.355 -7.32286 445.506C-6.58724 439.394 -4.07942 435.022 -1.92271 436.549C0.234013 438.025 0.718857 444.452 -0.568487 450.3Z" fill="#ECE8D5"/>
<path d="M4.16295 497.243C3.31029 504.829 1.42107 507.674 -0.0836166 503.776C-1.60502 499.877 -2.17346 490.025 -1.35424 481.753C-0.518304 473.956 1.47123 471.111 3.05951 475.747C4.61435 480.331 5.0992 490.078 4.16295 497.243Z" fill="#EDEED3"/>
</g>
</g>
<defs>
<clipPath id="clip0_236_103">
<rect width="321" height="569" fill="white"/>
</clipPath>
</defs>
</svg>
