<?xml version="1.0" encoding="UTF-8"?>
<svg id="Calque_2" data-name="Calque 2" xmlns="http://www.w3.org/2000/svg" viewBox="0 0 193.25 166.58">
  <defs>
    <style>
      .cls-1 {
        fill: #823e05;
      }

      .cls-2 {
        fill: #e1c686;
      }

      .cls-3 {
        font-family: MontserratThin-Black, 'Montserrat Thin';
        font-size: 10px;
        font-variation-settings: 'wght' 900;
        font-weight: 800;
      }

      .cls-3, .cls-4, .cls-5, .cls-6, .cls-7, .cls-8 {
        fill: #fff;
      }

      .cls-9 {
        fill: #ddbf32;
      }

      .cls-4 {
        opacity: .46;
      }

      .cls-4, .cls-10, .cls-5, .cls-6, .cls-11, .cls-7, .cls-12, .cls-8 {
        isolation: isolate;
      }

      .cls-13 {
        fill: #ae7733;
      }

      .cls-14 {
        fill: #246b2e;
      }

      .cls-10 {
        fill: #e7bd42;
        opacity: .5;
      }

      .cls-5 {
        opacity: .27;
      }

      .cls-15 {
        fill: #f2d037;
      }

      .cls-16 {
        fill: #dab769;
      }

      .cls-17 {
        fill: #bfab60;
      }

      .cls-6 {
        opacity: .21;
      }

      .cls-18 {
        fill: #d4c366;
      }

      .cls-19 {
        fill: none;
        stroke: #262d19;
        stroke-miterlimit: 10;
      }

      .cls-20 {
        fill: #95403e;
      }

      .cls-21 {
        fill: #45895a;
      }

      .cls-22 {
        fill: #7c92c0;
      }

      .cls-23 {
        fill: #e8a037;
      }

      .cls-24 {
        fill: #54649f;
      }

      .cls-25 {
        fill: #901a24;
      }

      .cls-26 {
        fill: #d7a92f;
      }

      .cls-27 {
        fill: #526b4c;
      }

      .cls-28 {
        fill: #262d19;
      }

      .cls-29 {
        fill: #94b2d0;
      }

      .cls-30 {
        fill: #7b8b56;
      }

      .cls-11 {
        fill: #db8739;
        opacity: .6;
      }

      .cls-31 {
        fill: #acd0ef;
      }

      .cls-32 {
        fill: #c5a262;
      }

      .cls-33 {
        fill: #b74e48;
      }

      .cls-34 {
        fill: #c38730;
      }

      .cls-35 {
        fill: #e1a82e;
      }

      .cls-7 {
        opacity: .48;
      }

      .cls-36 {
        fill: #c31e24;
      }

      .cls-12 {
        fill: #443633;
        opacity: .42;
      }

      .cls-37 {
        fill: #5d6f3b;
      }

      .cls-38 {
        fill: #06593b;
      }

      .cls-39 {
        fill: #f0c676;
      }

      .cls-40 {
        fill: #b9a28b;
      }

      .cls-41 {
        fill: #5a4640;
      }

      .cls-42 {
        fill: #414d29;
      }

      .cls-8 {
        opacity: .2;
      }

      .cls-43 {
        fill: #91814c;
      }
    </style>
  </defs>
  <g id="Calque_2-2" data-name="Calque 2">
    <g id="logo-TFA">
      <path class="cls-1" d="m189.27,103.22c4.32-10.52,5.89-23.05.77-33.17-4.26-8.43-12.38-13.85-20.15-18.88-16.19-10.49-32.37-20.98-48.56-31.48-10.72-6.95-22.15-14.13-34.79-14.32-16.33-.25-30.61,11.22-41.8,23.6-15.16,16.78-27.73,37.15-30.87,59.95-3.83,27.8,8.75,56.43,34.83,66.38,25.63,9.78,59.22,7.15,84.89-1.61,24.43-8.34,45.33-25.38,55.62-50.33.02-.05.04-.09.06-.14h0Z"/>
      <path class="cls-42" d="m71.13,13.68c-10.23.89-22.33,3.81-30.8,9.78-9.72,6.85-13.38,18.16-8.21,28.87,2.21,4.57,5.21,8.73,7.6,13.21,8.4,15.78,3.54,32.13.98,48.97-1.33,8.75-1.68,18.53,1.52,26.96,6.58,17.32,28.1,15.25,42.91,11.77,22.88-5.37,44.83-13.75,64.88-25.88,10.09-6.1,19.78-13.18,27-22.38,7.23-9.21,11.83-20.79,10.77-32.35-1.81-19.75-19.17-34.75-37.2-43.8-24.34-12.21-52.23-17.53-79.47-15.15h.02Z"/>
      <path class="cls-38" d="m15.11,109.28c3.25,5.13,7.22,9.4,11.64,13.13,11.56,9.77,26.18,15.85,38.94,23.94,14.73,9.33,27.98,21.14,46.67,20.18,27.3-1.4,49.22-22.28,56.4-47.95,4.38-15.64,2.64-32.05-5.33-46.24-13.72-24.46-41.32-39.5-67.8-45.96-28.49-6.95-64.31,2.47-80.3,28.54-9.87,16.1-10.43,38.25-.22,54.36Zm84.5,44.14c1.7-.82,3.68-.8,5.56-.71,4.51.21,8.93-.76,13.06-2.58,2.79-1.22,5.48-2.88,8.5-3.28s6.6.96,7.42,3.9c.92,3.28-1.93,6.39-4.82,8.21-7.91,4.99-18.95,5.12-27.71,2.57-1.95-.57-4.13-1.57-4.61-3.55-.45-1.84.88-3.74,2.58-4.56h.02Z"/>
      <path class="cls-35" d="m136.81,8.46c12.23,6.71,22.34,17.41,27.9,30.25,1.05,2.43,1.96,5.02,1.75,7.66-.22,2.64-1.83,5.32-4.38,6.02-3.02.84-6.01-1.22-8.47-3.17-14.63-11.54-29.26-23.09-43.89-34.63-2.39-1.89-4.94-4-5.65-6.97-3.92-16.2,27.69-1.95,32.75.83h0Z"/>
      <path class="cls-1" d="m10.87,112.3c.59-1.97-.02-4.21-1.4-5.74-1.09-1.22-2.65-2.03-4.28-2.1s-3.3.66-4.27,1.96c-1.25,1.68-1.18,4.13-.05,5.89,2.31,3.59,8.48,5.02,10-.01Z"/>
      <path class="cls-35" d="m13.06,38.27c1.45,5.04,9.28,5.78,11.93,1.44,1.47-2.41.98-5.83-1.11-7.72-4.35-3.95-12.54.29-10.82,6.29h0Z"/>
      <path class="cls-35" d="m165.06,64.8c-.31,6.02,8.39,10.45,11.95,4.52,2.46-4.11-.98-9.68-5.51-9.96-3.12-.2-6.28,2.32-6.44,5.44Z"/>
      <g>
        <path class="cls-37" d="m169.23,112.06c.16-.97-.34-1.98-1.09-2.61-.76-.64-1.74-.94-2.72-1.08-.22.52.1,1.1.46,1.53.83.99,1.98,1.72,3.23,2.05"/>
        <path class="cls-37" d="m169.84,110.87c.19.31.62.34.98.31,1.23-.1,2.46-.52,3.39-1.34.93-.81,1.52-2.05,1.41-3.28-1.27.11-2.55.45-3.6,1.17s-1.87,1.85-2.05,3.11"/>
        <path class="cls-30" d="m148.68,150.61c-2.3-1.39-4.31-3.25-5.75-5.37-2.2-3.25-.95-8.54.92-11.66,1.73-2.88,4.48-5.03,7.35-6.68,1.17-.67,2.37-1.31,3.42-2.16,1-.81,1.46-1.75,2.16-2.76,2.05-2.95,3.96-7.85,8-8.27,3.02-.32,5.88,1.72,6.62,4.65.3,1.19.17,2.45-.08,3.65-.55,2.66-2.04,5.35-2.24,8.05-.22,2.9.43,5.89.23,8.83-.24,3.67-1.07,8.17-3.77,10.86-4.71,4.7-11.55,4.06-16.86.86h0Z"/>
        <path class="cls-28" d="m170.76,104.75c.1,4.81-1.27,9.43-3.99,13.4-.25.37-.79-.07-.54-.44,2.6-3.8,3.93-8.28,3.83-12.88,0-.45.68-.52.69-.08h0Z"/>
        <path class="cls-28" d="m169.28,119.16c-2.39.07-4.4-1.36-5.02-3.69-.11-.43.53-.68.65-.25.54,2.01,2.2,3.31,4.29,3.25.45-.01.52.68.08.69h0Z"/>
      </g>
      <g>
        <g>
          <path class="cls-2" d="m55.1,131.38c9.47,2.58,19.07,1.7,28.38-1.05.67-.2,1.44-.39,2.02-.02.78.5.73,1.65.51,2.55-3.46,14.06-22.77,16.18-34.53,13.51-12.17-2.77-27.98-13.8-28.31-27.54-.08-3.45.23-7.08-1.28-10.18-.72-1.48-1.86-3-1.45-4.59.55-2.13,3.63-2.59,5.46-1.37,1.83,1.21,2.72,3.38,3.64,5.38,4.68,10.13,11.99,18.73,22.68,22.44.94.33,1.9.62,2.87.89v-.02Z"/>
          <path class="cls-19" d="m26.96,109.18c5.95,17.24,24.5,28.67,42.69,26.12"/>
          <path class="cls-19" d="m44.48,141.26c10.55,4.58,23.07,4.4,33.48-.49"/>
          <path class="cls-19" d="m31.83,129.33c-4.5-5.13-7.06-11.93-7.04-18.76"/>
          <path class="cls-19" d="m65.44,137.99c6.04.49,12.22-.91,17.46-3.96"/>
        </g>
        <g>
          <path class="cls-35" d="m41.3,144.09c7.42,6.42,16.47,9.77,26.05,11.31.69.11,1.46.27,1.83.86.49.79-.05,1.8-.64,2.51-9.2,11.19-27.53,4.76-36.97-2.73-9.78-7.76-19.27-24.53-13.63-37.07,1.41-3.15,3.26-6.28,3.25-9.73,0-1.64-.38-3.51.67-4.77,1.41-1.68,4.39-.76,5.52,1.12s.99,4.23.96,6.42c-.16,11.16,2.72,22.07,10.76,30.04.71.7,1.44,1.38,2.2,2.04Z"/>
          <path class="cls-19" d="m23.31,105.26c-.28.72-.17,1.59.29,2.22.46.63,1.25,1,2.02.95"/>
          <path class="cls-19" d="m24.46,106.44c.34.5.9.85,1.5.93"/>
          <path class="cls-19" d="m25.51,111.91c-2.08,18.12,9.7,36.44,27.21,42"/>
          <path class="cls-19" d="m27.45,148.41c7.54,8.69,18.9,13.93,30.4,14.02"/>
          <path class="cls-19" d="m21.2,132.18c-1.84-6.57-1.21-13.81,1.75-19.96"/>
          <path class="cls-19" d="m47.77,154.52c5.24,3.05,11.42,4.46,17.46,3.97"/>
        </g>
      </g>
      <polygon class="cls-14" points="49.19 74.02 53.5 66.35 129.17 66.21 133.47 72.81 123.25 82.69 69.51 87.13 49.19 74.02 49.19 74.02"/>
      <path class="cls-40" d="m55.3,78.55c.16-.38,3.92-5.73,3.92-5.73l6.58,3.86s1.73,5.98,1.52,6.02c-.21.03-12.02-4.14-12.02-4.14h0Z"/>
      <g>
        <g>
          <polygon class="cls-24" points="78.91 90.6 66.11 81.86 55.3 70.87 61.33 63.66 84.94 83.39 78.91 90.6"/>
          <path class="cls-22" d="m62.88,71.72c.47.32.92.67,1.31,1.08.8.81,1.4,1.83,1.72,2.93.43.09.87.12,1.3.09-.39.62-.84,1.2-1.34,1.74-.17-.4-.31-.81-.41-1.23-.65.18-1.36.07-1.98-.19-.62-.27-1.17-.68-1.69-1.11-.63-.53-1.23-1.1-1.66-1.8-.33-.54-1.07-2.16-.14-2.44.91-.28,2.17.46,2.89.94h0Z"/>
          <path class="cls-22" d="m70.15,76.35c.31.28.59.58.83.91.49.67.82,1.46.93,2.28.3.11.61.17.93.2-.35.4-.73.78-1.14,1.11-.09-.3-.14-.61-.17-.92-.49.06-.98-.09-1.4-.34s-.77-.61-1.1-.97c-.4-.44-.77-.92-1.01-1.46-.18-.42-.55-1.66.15-1.77.68-.11,1.51.56,1.98.97h0Z"/>
          <path class="cls-22" d="m74.49,82.03c.39.13.77.28,1.13.49.72.41,1.34.99,1.79,1.7.32-.03.63-.09.93-.2-.15.51-.35,1.01-.59,1.48-.2-.24-.38-.5-.53-.77-.42.26-.93.32-1.42.26s-.95-.24-1.4-.43c-.54-.24-1.08-.52-1.52-.92-.34-.31-1.18-1.29-.59-1.68.58-.38,1.61-.12,2.2.08h0Z"/>
          <rect class="cls-12" x="74.57" y="81.47" width="8.65" height="7.15" transform="translate(-36.95 91.06) rotate(-50.12)"/>
          <path class="cls-18" d="m56.77,69.13s-1.01-.5-1.82.36-.15,4.48,10.35,13.25c10.5,8.77,13.85,8.65,14.48,7.9.78-.93.42-1.63.42-1.63,0,0-.88,2.2-13.26-8.15-12.66-10.57-10.16-11.73-10.16-11.73h-.01Z"/>
          <path class="cls-18" d="m62.56,62.56s-1.18-1.19-2.1-.08c-.76.91.41,4.37,10.91,13.15,11.94,9.98,14.12,9.2,14.75,8.45.75-.89-.29-1.73-.29-1.73,0,0-.99,2.59-13.11-8.06-12.07-10.6-10.16-11.73-10.16-11.73Z"/>
          <path class="cls-17" d="m61.66,62.12c-1.63,1.29,4.42,7.09,11.36,12.89,7.38,6.16,12.7,9.53,13.17,7.95.65-2.18-23.17-21.91-24.53-20.84Z"/>
          <path class="cls-43" d="m62.81,63.09c-1.12.73,4.51,5.9,10.84,11.18,6.73,5.62,11.43,8.87,11.58,7.76.21-1.53-21.49-19.55-22.42-18.95h0Z"/>
          <path class="cls-17" d="m73.39,71.73c-.91-1.48-2.44-2.48-3.89-3.46-1.08-.73-2.16-1.48-3.22-2.24-.23-.17-1.06-.87-1.35-.69-.36.22.21.79.38.95.88.83,1.83,1.58,2.77,2.34.82.65,1.63,1.29,2.46,1.93.8.62,1.61,1.24,2.51,1.68.12.06.26.11.37.06.18-.09.1-.37-.02-.56h-.01Zm-1.23-.66h-.1c-.58-.17-2.17-1.42-2.43-1.71-.06-.07-.11-.14-.13-.23-.01-.08.03-.18.12-.19.04,0,.09,0,.13.02.71.23,1.25.69,1.83,1.16.27.22.56.47.62.81,0,.06,0,.13-.05.15h0Z"/>
          <path class="cls-7" d="m55.64,70.38c-.14.22-.05.55.08.84.55,1.22,1.38,2.34,2.27,3.44,1.68,2.06,3.44,3.82,5.42,5.42.17.14.37.28.57.28.27,0,.35-.36-.3-.93-.87-.77-3.87-3.56-5.17-5.26-2.11-2.77-2.33-4.66-2.87-3.79Z"/>
          <path class="cls-7" d="m60.65,63.54c-.02.18.09.39.2.57,2.38,4,6.1,7.37,9.96,10.3.17.13.4.27.54.19.22-.12-.03-.5-.27-.71-2.14-1.95-3.85-3.37-5.89-5.42-.82-.82-2.01-2.24-2.73-3.13-.37-.46-.71-.93-1.02-1.42-.15-.24-.71-1.01-.8-.38h0Z"/>
          <path class="cls-8" d="m60.1,66.89c-.39.67-.84,1.3-1.35,1.88-.23.26-.47.51-.63.81-.16.3-.22.68-.07.99s.55.5.86.34c.12-.07.21-.18.3-.28.64-.79,1.29-1.58,1.93-2.37.37-.45.71-1.25.27-1.78-.47-.57-1.04-.04-1.31.43v-.02Z"/>
        </g>
        <g>
          <path class="cls-23" d="m56.81,50.03c-.74,2.26.44,13.07,16.21,23.19,16.35,10.48,31.17,15.74,36.67,16.28,5.39.53,14.03-7.42,5.39-17.48-5.68-6.61-21.07-19.73-35.35-24.29-14.63-4.67-21.19-2.95-22.91,2.3h0Z"/>
          <path class="cls-34" d="m110.97,88.88c-4.18-.27-7.8-2.23-11.72-3.57-4.29-1.46-8.19-3.61-12.3-5.34-4.3-1.81-7.67-4.94-11.65-7.24-1.94-1.12-4.09-1.79-5.83-3.31-1.82-1.6-3.41-3.34-5.14-5.02-1.75-1.7-2.82-3.21-4.04-5.13-.58-.91-1.1-1.8-1.64-2.77-.38-.68-.89-1.06-1.41-1.45,1.35,4.62,5.41,11.59,15.79,18.24,16.35,10.48,31.17,15.74,36.67,16.28,1.14.11,2.42-.15,3.65-.74-.94,0-1.9.08-2.39.05h.01Z"/>
          <path class="cls-11" d="m114.97,72.12c-5.68-6.61-21.07-19.73-35.35-24.29-10.67-3.41-17.04-3.41-20.38-1.13-.06.52,0,1.14.26,1.92,1.4,4.42,4.54,9.85,8.57,11.66,4.07,1.83,6.48,3.55,9.06,7.36,1.67,2.46,6.85,2.65,8.95,4.75,3.26,3.26,7.6,5.36,12.25,5.6,3.81.19,5.78.27,9,2.58,2.22,1.59,3.95,2.59,6.26,4.12,1.15.76,2.25,1.15,3.31,1.15,2.34-3.2,2.87-8.13-1.93-13.71h0Z"/>
          <path class="cls-16" d="m77.24,52.24c2.84,5.72,1.98,14.77,1.98,14.77,0,0,4.4-6.33,3.89-11.26-.26-2.54-1.44-5.87-2.14-7.66-.37-.13-.73-.25-1.1-.37-2.44-.78-4.66-1.38-6.67-1.82,1.18,1.54,2.8,3.86,4.03,6.33h0Z"/>
          <path class="cls-13" d="m82.38,55.64c.37,3.53-1.8,7.79-3.05,9.91-.04,1.01-.09,1.63-.09,1.63,0,0,4.4-6.33,3.89-11.26-.26-2.54-1.44-5.87-2.14-7.66-.25-.09-.49-.17-.74-.25.7,1.8,1.86,5.1,2.12,7.62h0Z"/>
          <path class="cls-16" d="m87.8,56.81c.75,3.74-.71,14.66-.71,14.66,0,0,5.24-4.92,5.64-9.11.23-2.46-.27-6.24-.73-8.95-2.34-1.38-4.74-2.63-7.15-3.7.99,1.54,2.34,4.06,2.95,7.11h0Z"/>
          <path class="cls-13" d="m92.72,62.35c.23-2.46-.27-6.24-.73-8.95-.26-.16-.53-.31-.8-.46.45,2.69.92,6.35.69,8.75-.28,3-3.05,6.37-4.6,8.04-.12,1.06-.21,1.73-.21,1.73,0,0,5.24-4.92,5.64-9.11h.01Z"/>
          <path class="cls-16" d="m98.15,63.8c1.04,5.59-.9,11.82-.9,11.82,0,0,5.1-4.47,5.64-9.11.22-1.91.11-3.96-.09-5.72-1.99-1.54-4.12-3.08-6.32-4.55.53,2.3,1.43,6.29,1.67,7.56Z"/>
          <path class="cls-13" d="m102.9,66.49c.22-1.91.11-3.96-.09-5.72-.18-.14-.37-.29-.56-.43.17,1.65.24,3.52.04,5.26-.38,3.26-3,6.43-4.53,8.03-.26,1.22-.5,1.97-.5,1.97,0,0,5.1-4.47,5.64-9.11Z"/>
          <path class="cls-16" d="m108.52,70.82c-.26,3.44-2.37,7.73-2.37,7.73,0,0,4.6-2.9,5.54-5.37.39-1.04.6-2.59.7-3.99-1.31-1.33-2.85-2.79-4.58-4.31.4,1.74.84,4.26.71,5.95h0Z"/>
          <path class="cls-13" d="m111.69,73.17c.39-1.04.6-2.59.7-3.99l-.4-.4c-.11,1.33-.31,2.75-.68,3.73-.66,1.75-3.15,3.71-4.56,4.71-.34.82-.6,1.33-.6,1.33,0,0,4.6-2.9,5.54-5.38Z"/>
          <path class="cls-10" d="m74.62,52.04c-.42-1.03-.4-2.02-1.08-2.83-.52-.61-1.34-2.04-2.02-2.37h0c-2.06-1.22-9.14-1.82-9.1,1.46.02,1.29,3.15,3.56,4.38,3.98,1.21.41,2.36.66,3.4,1.36.85.57,3.06,2.69,4.17,2.29,1.07-.39.97-2.1.25-3.89Z"/>
          <path class="cls-10" d="m86.69,57.73c-.08-1.45-.81-2.71-1.29-4.03-.42-1.16-.16-2.81-1.19-3.62l-.45-.14c-.5-.07-1.27-.37-1.43.37-.13.59.6,1.26.91,1.67.79,1.06,1.18,2.38,1.2,3.71.02,1.15-.36,2.65.33,3.7.94,1.45,1.97-.75,1.92-1.66Z"/>
          <path class="cls-10" d="m96.86,64.06c.29-1.47-.71-3.44-.96-4.92-.15-.9.11-3.87-1.27-3.82l-.3-.3c-.6-.13-1.14-.55-1.42.17-.23.59.2,1.24.46,1.72.61,1.15.72,2.4.73,3.69,0,1.08-.54,2.93.15,3.89.71.99,2.37.82,2.61-.43Z"/>
          <path class="cls-10" d="m107.24,69.87c0-1.14-.31-2.17-.38-3.29-.08-1.23-.53-2.36-1.21-3.17l-.35-.15c-1.15-1.13-2.18-.42-1.42,1.05.8,1.54.8,2.55.53,4.27-.18,1.12-.37,2.89,1.01,3.23,1.55.38,1.82-.69,1.82-1.94Z"/>
          <path class="cls-10" d="m117.57,77.22c-.83-1.97-1.88-3.92-3.39-5.4l-.15-.35c-.54-.8-.94-.01-.95.57,0,.67.15,1.15-.12,1.83-.26.65-.67.99-.38,1.7.2.49.74.99,1.16,1.33.86.7,1.92,1.26,2.81,1.85,1.36.91,1.5-.4,1.02-1.54h0Z"/>
          <path class="cls-32" d="m75.98,47.81c.49.3.9.69,1.3,1.09.24.23.59-.14.36-.37-.44-.43-.89-.85-1.41-1.17-.28-.17-.53.28-.25.45h0Z"/>
          <path class="cls-32" d="m78.89,49.17c.17.34.32.73.33,1.12.01.33.52.32.51,0-.02-.47-.19-.95-.4-1.37-.15-.3-.59-.03-.44.26h0Z"/>
          <path class="cls-32" d="m77.45,49.94c.24.24.42.52.57.84.14.3.58.04.44-.26-.16-.35-.38-.67-.65-.94-.23-.23-.59.13-.36.37h0Z"/>
          <path class="cls-32" d="m78.12,52.6c.12.46.23.92.44,1.35.15.3.59.04.44-.26-.19-.39-.28-.81-.39-1.23-.08-.32-.58-.18-.49.14h0Z"/>
          <path class="cls-32" d="m79.85,52.04c.16.38.21.79.31,1.19.08.32.57.18.49-.14-.1-.4-.15-.81-.31-1.19-.05-.13-.17-.22-.31-.18-.12.03-.23.19-.18.31h0Z"/>
          <path class="cls-32" d="m80.01,54.43c-.23.49-.37,1.06-.2,1.59.1.31.59.18.49-.14-.13-.4-.02-.83.16-1.21.14-.3-.31-.55-.45-.25h0Z"/>
          <path class="cls-32" d="m81.61,55.6c-.27.28-.52.55-.65.92-.11.31.39.43.5.12.1-.27.32-.48.52-.69.23-.24-.14-.59-.37-.36h0Z"/>
          <path class="cls-32" d="m79.68,58.56c.11.43.24.85.44,1.25.15.3.59.03.44-.26-.18-.36-.29-.74-.39-1.13-.08-.32-.58-.18-.49.14h0Z"/>
          <path class="cls-32" d="m80.79,59.62c-.06.18-.09.37-.14.55-.04.13.06.28.19.31.14.03.27-.05.31-.19.06-.18.09-.37.14-.55.04-.13-.06-.28-.19-.31-.14-.03-.27.05-.31.19h0Z"/>
          <path class="cls-32" d="m80.02,61.82c-.05.23-.15.43-.27.64-.17.29.28.53.45.25.14-.24.26-.49.31-.76.06-.32-.43-.45-.5-.12h.01Z"/>
          <path class="cls-32" d="m86.49,51.57c.28.28.49.59.67.93.15.29.59.03.44-.26-.2-.38-.44-.73-.75-1.04-.23-.23-.59.13-.36.37h0Z"/>
          <path class="cls-32" d="m88.79,52.54c.27.26.55.52.77.83.19.27.63,0,.44-.26-.25-.35-.55-.64-.85-.94-.24-.23-.59.14-.36.37h0Z"/>
          <path class="cls-32" d="m88.05,54.03c.1.38.2.76.26,1.14.05.33.55.19.49-.14-.06-.39-.16-.76-.26-1.14-.08-.32-.58-.18-.49.14h0Z"/>
          <path class="cls-32" d="m90.07,54.61c-.22.33-.38.69-.53,1.05-.12.3.32.55.45.25.15-.37.31-.72.53-1.05.18-.27-.26-.52-.45-.25h0Z"/>
          <path class="cls-32" d="m88.89,58.23c.05.43.11.86.12,1.29,0,.33.52.32.51,0,0-.43-.06-.86-.12-1.29-.04-.32-.55-.32-.51,0h0Z"/>
          <path class="cls-32" d="m91.01,60.17s0,.03.01.04c.02.07,0-.05,0,.03v.16c0,.1-.01.2-.01.3,0,.14.12.25.26.25s.25-.12.25-.26c0-.22.05-.45-.02-.66-.04-.13-.18-.22-.31-.18s-.22.18-.18.31h0Z"/>
          <path class="cls-32" d="m90.23,62.82c-.2.31-.31.65-.36,1.01-.05.32.45.45.5.12.05-.32.14-.61.31-.89.18-.28-.27-.53-.45-.25h0Z"/>
          <path class="cls-32" d="m88.95,63.12c-.04.41-.04.83-.03,1.25,0,.33.52.32.51,0,0-.42,0-.83.03-1.25.03-.33-.48-.32-.51,0h0Z"/>
          <path class="cls-32" d="m97.54,58.2c.22.32.43.63.66.94.19.26.64,0,.44-.26-.23-.31-.44-.62-.66-.94-.19-.27-.63,0-.44.26h0Z"/>
          <path class="cls-32" d="m101.19,61.03s.02.06.03.09c0,.02.01.07,0,0v.08s0-.06,0,0c0,.04-.02.07-.03.11-.04.13.06.28.19.31.14.03.27-.05.31-.19.05-.18.05-.35,0-.53-.04-.13-.17-.22-.31-.18-.13.04-.22.18-.18.31h-.01Z"/>
          <path class="cls-32" d="m99.89,60.52c-.1.31-.19.63-.2.96,0,.33.51.32.51,0,0-.29.09-.56.18-.83.1-.31-.4-.44-.5-.12h0Z"/>
          <path class="cls-32" d="m98.76,62.01c.05.25.11.5.16.75.07.32.56.18.49-.14-.05-.25-.11-.5-.16-.75-.07-.32-.56-.18-.49.14h0Z"/>
          <path class="cls-32" d="m99.46,65.91c-.11.5-.08,1.02.02,1.52.07.32.56.19.49-.14-.08-.42-.11-.85-.02-1.27.07-.32-.42-.45-.5-.12h.01Z"/>
          <path class="cls-32" d="m100.61,63.57c0,.3.1.59.11.9,0,.33.52.32.51,0,0-.3-.1-.59-.11-.9,0-.33-.52-.32-.51,0h0Z"/>
          <path class="cls-32" d="m100.26,68.38c-.16.37-.33.73-.48,1.1-.13.3.32.55.45.25.16-.37.33-.73.48-1.1.13-.3-.32-.55-.45-.25h0Z"/>
          <path class="cls-32" d="m99.03,69.74c-.15.25-.29.5-.44.75-.17.28.28.53.45.25.15-.25.29-.5.44-.75.17-.28-.28-.53-.45-.25h0Z"/>
          <path class="cls-32" d="m108.91,67.33c.16.38.3.76.46,1.14.13.3.57.04.44-.26-.16-.38-.3-.76-.46-1.14-.13-.3-.57-.04-.44.26h0Z"/>
          <path class="cls-32" d="m110.91,69.1c-.11.47-.19.94-.24,1.41-.03.33.48.32.51,0,.05-.43.13-.86.22-1.28.07-.32-.42-.45-.5-.12h0Z"/>
          <path class="cls-32" d="m109.47,70.63c0,.35-.07.7-.2,1.02-.05.13-.03.27.1.35.11.06.3.03.35-.1.17-.41.27-.83.27-1.28,0-.33-.51-.32-.51,0h0Z"/>
          <path class="cls-32" d="m108.94,73.7c-.11.21-.28.38-.45.55-.23.24.14.59.37.36.2-.2.4-.41.53-.66.15-.29-.3-.54-.45-.25h0Z"/>
          <path class="cls-32" d="m110.36,72.13c-.3.32-.53.67-.73,1.06-.15.29.3.54.45.25.17-.35.37-.67.64-.95.23-.24-.14-.6-.37-.36h.01Z"/>
          <path class="cls-39" d="m78.05,47.86c.01.44.12.86.3,1.27.06.13.24.16.35.09.13-.08.15-.22.09-.35-.14-.32-.22-.67-.23-1.02,0-.33-.52-.32-.51,0h0Z"/>
          <path class="cls-39" d="m75.95,49.36c.13.13.27.26.4.39.24.23.59-.14.36-.37-.13-.13-.27-.26-.4-.39-.24-.23-.59.14-.36.37h0Z"/>
          <path class="cls-39" d="m77.32,51.49c.07.07.13.13.2.2.1.1.26.1.36,0s.1-.26,0-.36c-.07-.07-.13-.13-.2-.2-.1-.1-.26-.1-.36,0s-.1.26,0,.36h0Z"/>
          <path class="cls-39" d="m78.89,51.53c0,.17.06.35.18.48.1.1.27.09.36,0,.1-.1.09-.26,0-.36-.02-.03.04.06,0,0,0,0,0-.02-.01-.03.03.07,0,.02,0,0s-.01-.04-.02-.07v-.03c.01.07,0,.02,0,0,0-.14-.12-.25-.26-.25s-.26.12-.25.26h0Z"/>
          <path class="cls-39" d="m80.13,50.64c.06.27.12.53.21.79.11.31.6.18.49-.14-.09-.26-.15-.53-.21-.79-.07-.32-.56-.18-.49.14h0Z"/>
          <path class="cls-39" d="m81.18,53.12c-.17.19-.18.46-.11.7.04.13.18.22.31.18s.22-.18.18-.31c0-.03-.02-.06-.02-.09s0-.03,0,0v-.07s0-.03,0,0v-.04s0-.03,0,0c.03-.06-.04.04,0,0,.09-.1.1-.26,0-.36-.1-.09-.27-.1-.36,0h0Z"/>
          <path class="cls-39" d="m79.62,53.92c0,.17-.05.35-.08.53-.03.14.05.28.19.31.13.03.28-.05.31-.19.04-.22.1-.44.1-.66,0-.33-.51-.32-.51,0h0Z"/>
          <path class="cls-39" d="m78.69,55.04c.07.32.2.62.43.86s.59-.13.36-.37c-.17-.17-.24-.4-.29-.63-.07-.32-.56-.18-.49.14h-.01Z"/>
          <path class="cls-39" d="m87,52.96c.15.15.3.3.45.44.24.23.59-.14.36-.37-.15-.15-.3-.3-.45-.44-.24-.23-.59.14-.36.37h0Z"/>
          <path class="cls-39" d="m88.18,52.68c.14.37.35.68.63.96.23.23.59-.13.36-.37-.21-.21-.39-.45-.49-.72-.11-.31-.61-.17-.49.14h-.01Z"/>
          <path class="cls-39" d="m88.85,54.41c.05.16.05.33.11.5.04.13.18.22.31.18s.22-.18.18-.31c-.05-.16-.05-.33-.11-.5-.04-.13-.18-.22-.31-.18s-.22.18-.18.31h0Z"/>
          <path class="cls-39" d="m90.66,55.79c.08.24.15.51.11.77-.02.14.04.27.19.31.13.03.29-.05.31-.19.06-.35,0-.7-.11-1.03-.1-.31-.6-.18-.49.14h-.01Z"/>
          <path class="cls-39" d="m90.09,56.59c-.16.17-.18.38-.11.6.04.13.17.22.31.18.13-.04.22-.18.18-.31,0-.03-.02-.05-.02-.08,0-.02-.01-.07,0,0v-.04s-.01.06,0,.02c0-.02.02-.06,0,0,0,0,.01-.02.02-.03-.04.07-.02.03,0,0,.1-.1.1-.26,0-.36-.1-.1-.27-.1-.36,0h-.02Z"/>
          <path class="cls-39" d="m88.5,56.68c.24.23.59-.14.36-.37-.24-.23-.59.14-.36.37h0Z"/>
          <path class="cls-39" d="m88.45,56.62c.09.17.14.35.18.53.07.32.56.18.49-.14-.05-.23-.13-.45-.23-.66-.06-.12-.24-.16-.35-.09-.13.07-.15.23-.09.35h0Z"/>
          <path class="cls-39" d="m90.27,58.74c-.14.24-.26.49-.31.76-.06.32.43.45.5.12.05-.23.15-.43.27-.64.17-.29-.28-.53-.45-.25h-.01Z"/>
          <path class="cls-39" d="m88.63,60.46c-.05.29-.05.57.09.84.06.13.24.16.35.09.13-.07.15-.23.09-.35-.02-.05-.05-.13-.05-.19,0-.1,0-.17.02-.26.02-.14-.04-.27-.19-.31-.13-.03-.29.05-.31.19h0Z"/>
          <path class="cls-39" d="m90.19,61.03c-.19.19-.35.4-.41.67-.07.32.43.45.5.12.04-.18.15-.3.28-.44.23-.24-.14-.59-.37-.36h0Z"/>
          <path class="cls-39" d="m97.76,59.69c.18.26.33.51.38.83.06.33.55.19.49-.14-.06-.36-.23-.66-.44-.95-.18-.27-.63,0-.44.26h.01Z"/>
          <path class="cls-39" d="m99.19,59.13c.14.14.29.28.34.48.08.32.57.18.49-.14-.07-.29-.27-.51-.47-.71-.24-.23-.59.14-.36.37h0Z"/>
          <path class="cls-39" d="m98.89,60.17c.05.25.01.5.06.75.03.14.19.21.31.18.14-.04.21-.18.18-.31-.05-.25-.01-.5-.06-.75-.03-.14-.19-.21-.31-.18-.14.04-.21.18-.18.31h0Z"/>
          <path class="cls-39" d="m100.73,60.16c-.06.33-.04.66.06.98.1.31.6.18.49-.14-.08-.23-.1-.47-.06-.72.06-.32-.44-.45-.5-.12h.01Z"/>
          <path class="cls-39" d="m100.32,62.11c.31.3.61.6.82.98.16.29.6.03.44-.26-.23-.42-.56-.76-.9-1.09-.24-.23-.59.14-.36.37h0Z"/>
          <path class="cls-39" d="m101.37,64.41c0,.21-.04.42-.08.63-.03.14.04.28.19.31.13.03.28-.05.31-.19.05-.25.1-.51.1-.76,0-.33-.51-.32-.51,0h0Z"/>
          <path class="cls-39" d="m99.71,63.08c0,.18-.03.36-.11.52-.06.13-.03.28.1.35.12.06.29.03.35-.1.11-.24.17-.51.17-.78,0-.33-.51-.32-.51,0h0Z"/>
          <path class="cls-39" d="m98.78,63.94c0,.26-.03.5.02.76.03.14.19.21.31.18.14-.04.21-.18.18-.31-.04-.21,0-.42,0-.63,0-.33-.51-.32-.51,0h0Z"/>
          <path class="cls-39" d="m99.8,65.19c.05.15.1.3.15.45.05.13.17.22.31.18.13-.04.22-.18.18-.31-.05-.15-.1-.3-.15-.45-.05-.13-.17-.22-.31-.18-.13.04-.22.18-.18.31h0Z"/>
          <path class="cls-39" d="m100.6,66.61c0,.17.01.33-.04.48-.04.13.06.28.19.31.14.03.27-.05.31-.19.06-.2.05-.41.05-.61,0-.14-.12-.25-.26-.25s-.25.12-.25.26h0Z"/>
          <path class="cls-39" d="m98.75,66.18c0,.16.06.31.11.46.05.13.17.22.31.18.13-.04.22-.18.18-.31-.02-.07-.05-.14-.07-.2,0-.03-.02-.06-.02-.09s0-.03,0,0v-.04c0-.14-.12-.25-.26-.25s-.26.12-.25.26h0Z"/>
          <path class="cls-39" d="m108.25,66.09c.07.15.07.3.07.47,0,.33.52.32.51,0,0-.25-.03-.49-.14-.72-.06-.13-.24-.16-.35-.09-.13.07-.15.22-.09.35h0Z"/>
          <path class="cls-39" d="m108.75,68.41c.09.27.21.53.31.79.11.31.6.18.49-.14-.09-.27-.21-.53-.31-.79-.11-.31-.6-.17-.49.14h0Z"/>
          <path class="cls-39" d="m110.28,69.3c.11-.19.21-.38.4-.51.28-.18.02-.62-.26-.44-.27.18-.43.43-.59.7-.17.29.28.53.45.25h0Z"/>
        </g>
        <g>
          <path class="cls-29" d="m129.01,59.94c.22-3.96-1.47-4.27-2.8-6.73-1.32-2.46,1.34-12.28,1.34-12.28l-5.86-1.23v-.02l-5.94-1.26s-1.53,10.06-3.73,11.78c-2.2,1.72-3.87,1.32-5.27,5.02-1.4,3.71-7.71,29.54-6.92,32.57s20.42,7.19,22.36,4.74c1.94-2.45,6.6-28.63,6.82-32.59Z"/>
          <path class="cls-31" d="m126.77,59.98c.26-3.68-1.41-3.8-2.48-6.06-1.07-2.26,1.39-11.6,1.39-11.6l-4.71-.98v-.02l-4.06-.86s-1.48,9.37-3.37,11-4.22,1.1-5.48,4.57c-1.25,3.47-7.06,27.57-6.45,30.36.61,2.8,17.11,6.29,18.79,3.98,1.69-2.31,6.11-26.7,6.36-30.38h.01Z"/>
          <path class="cls-36" d="m127.96,46l-14.78-3.14.95-4.45c.19-.89,1.06-1.46,1.95-1.27l11.56,2.46c.89.19,1.46,1.06,1.27,1.95l-.95,4.45Z"/>
          <path class="cls-25" d="m127.64,39.6l-3.03-.64c.89.19,1.46,1.06,1.27,1.95l-.95,4.45,3.03.64.95-4.45c.19-.89-.38-1.76-1.27-1.95Z"/>
          <rect class="cls-36" x="119.39" y="38.45" width="1.68" height="15.11" transform="translate(50.23 154.05) rotate(-78)"/>
          <path class="cls-5" d="m116.88,37.87c-.42-.07-.91-.1-1.22.2-.13.12-.21.29-.27.45-.19.51-.26,1.07-.19,1.61.04.31.19.68.5.72.28.04.52-.22.64-.48s.19-.56.4-.75c.22-.2.53-.24.82-.25.69-.03,1.38.07,2.03.27.27.08.53.19.81.16.28-.02.57-.22.58-.49.01-.2-.11-.38-.28-.49-.16-.11-.36-.16-.55-.21-1.07-.27-2.17-.57-3.27-.75h0Z"/>
          <rect class="cls-25" x="125.29" y="45.73" width="1.68" height="3.06" transform="translate(53.68 160.8) rotate(-78)"/>
          <path class="cls-9" d="m107.19,58c-2.53,10.45-5.89,25.86-5.55,28.25.48,3.39,16.98,6.89,18.79,3.97,1.27-2.04,4.43-17.48,6.34-28.06l-19.59-4.16h.01Z"/>
          <path class="cls-26" d="m126.81,62.17l-4.23-.9c-1.9,9.97-4.39,21.69-5.49,23.45-1.3,2.09-10.15.88-15.23-1.21-.18,1.32-.26,2.28-.19,2.75.48,3.39,16.98,6.89,18.79,3.97,1.27-2.04,4.43-17.48,6.34-28.06h0Z"/>
          <path class="cls-15" d="m107.22,57.88c-.54,1.72,4.78,2.44,9.51,3.52,4.73,1.07,9.87,1.95,10.08.65s-4.76-2.08-9.55-3.23c-4.79-1.16-9.68-2.07-10.04-.93h0Z"/>
          <path class="cls-4" d="m109.94,56.38c-.39.95-.68,1.95-.86,2.97-.09.51-.15,1.06.05,1.54.19.48.71.87,1.22.75.42-.1.7-.51.87-.9.46-1.04.54-2.23,1.12-3.21.67-1.11,4.37-3.72,1.41-4.07-1.86-.22-3.15,1.31-3.81,2.92h0Z"/>
        </g>
        <g>
          <path class="cls-20" d="m105.6,76.38c1.17.91,1.13,1.85,2.5,3.13.16.15-.31.37-.4.58-.12.29-.76-.15-1.08-.15s-.62-.11-.9-.24c-1.58-.68-3.91-1.75-4.75-3.35-.21-.4-1.74-2.83-1.16-2.84,1.65-.03,2.72,1.68,3.2,1.9,1.04.48,1.38.04,2.59.97h0Z"/>
          <path class="cls-33" d="m102.92,77.44c-1.77-1.15-2.27-5.38-6.08-4.59-3.81.79-7.83,6.8-8.07,10.45-.24,3.65,3.28,7.02,5.87,8.8,3.02,2.07,8.51,3.65,12.36-.98,3.36-4.05,4.88-8.64,1.27-11.48-2.2-1.73-2.45-.3-5.35-2.19h0Z"/>
          <path class="cls-20" d="m109.94,81.75c-.32,2.05-1.55,4.26-3.27,6.32-3.84,4.63-9.33,3.05-12.36.98-1.99-1.36-4.52-3.66-5.49-6.31-.03.19-.05.37-.06.55-.24,3.65,3.28,7.02,5.87,8.8,3.02,2.07,8.51,3.65,12.36-.98,2.62-3.15,4.12-6.63,2.95-9.36Z"/>
          <path class="cls-5" d="m96.62,75.41c-.94.25-1.77.83-2.39,1.58-.36.44-.66.95-.72,1.51-.05.56.2,1.18.7,1.43.13.07.28.11.42.09.2-.02.38-.15.54-.27.77-.57,1.59-1.16,2.53-1.3.45-.07.92-.03,1.37-.11.45-.08.91-.33,1.07-.76.24-.66-.34-1.54-.88-1.89-.74-.49-1.83-.51-2.65-.3v.02Z"/>
          <path class="cls-5" d="m93.3,80.53c-.34-.24-.86-.11-1.1.23-.24.34-.23.82-.03,1.18.1.19.28.37.5.4.16.02.31-.05.45-.14.25-.16.45-.4.53-.69.08-.28.02-.61-.18-.83l-.16-.15h0Z"/>
          <path class="cls-41" d="m102.47,77.07s1.78-1.96,2.9-2.73c1.13-.77,3.46-1.54,3.46-1.54l.47.97s-1.8.17-3.29,1.11c-1.04.66-3.11,2.56-3.11,2.56l-.44-.37h.01Z"/>
          <path class="cls-27" d="m106.03,74.88s3.22-.44,5.08.9c2.49,1.79,3.89,3.94,3.89,3.94,0,0-3.33,1.15-5.54-.02s-4.14-4.31-4.14-4.31l.72-.52h-.01Z"/>
          <path class="cls-5" d="m109.61,76.28s-.09.03-.13.06c-.04.05-.04.12-.03.19.04.23.21.44.4.58.19.15.41.25.61.36.49.26.95.59,1.36.97.15.14.29.28.47.36.55.25.64-.36.54-.78-.1-.39-.36-.57-.68-.79-.75-.51-1.68-1.17-2.54-.97v.02Z"/>
        </g>
        <g>
          <path class="cls-20" d="m82.88,77.94c1.4-.48,2.16.07,3.99-.37.22-.05.14.47.26.65.17.26-.55.55-.72.82s-.43.45-.69.63c-1.43.95-3.61,2.3-5.41,2.13-.45-.04-3.32-.1-3.01-.59.88-1.4,2.9-1.35,3.35-1.63.97-.6.79-1.14,2.23-1.63h0Z"/>
          <path class="cls-33" d="m82.3,80.76c-1.93.85-5.74-1.06-7.18,2.56-1.43,3.62,1.38,10.28,4.3,12.49,2.92,2.21,7.67,1.12,10.57-.07,3.39-1.39,7.72-5.11,5.96-10.87-1.54-5.03-4.54-8.82-8.9-7.37-2.65.89-1.6,1.88-4.76,3.27h.01Z"/>
          <path class="cls-20" d="m89.76,77.26c1.53,1.39,2.7,3.63,3.49,6.21,1.76,5.75-2.57,9.48-5.96,10.87-2.23.91-5.54,1.77-8.29,1.12.14.13.28.25.43.36,2.92,2.21,7.67,1.12,10.57-.07,3.39-1.39,7.72-5.11,5.96-10.87-1.2-3.92-3.28-7.08-6.2-7.61h0Z"/>
          <path class="cls-5" d="m77.14,84.91c-.31.92-.28,1.94,0,2.86.17.54.43,1.07.87,1.43.44.35,1.09.48,1.58.2.13-.07.24-.17.31-.3.09-.18.08-.4.07-.6-.05-.96-.1-1.96.31-2.83.19-.41.48-.78.66-1.2s.23-.94-.04-1.31c-.42-.57-1.47-.56-2.06-.3-.81.35-1.43,1.25-1.7,2.06h0Z"/>
          <path class="cls-5" d="m79.6,90.5c-.39.15-.57.66-.42,1.05s.56.64.97.68c.22.02.46-.03.6-.2.1-.12.13-.29.13-.45,0-.3-.09-.6-.28-.82s-.5-.35-.79-.31l-.21.05h0Z"/>
          <path class="cls-41" d="m81.74,80.93s-.66-2.56-.69-3.93c-.02-1.37.61-3.74.61-3.74l1.07.14s-.85,1.6-.87,3.36c-.02,1.23.44,4,.44,4l-.56.17Z"/>
          <path class="cls-27" d="m81.86,76.76s1.4-2.93,3.54-3.75c2.86-1.1,5.43-1.09,5.43-1.09,0,0-.87,3.42-3.06,4.62-2.19,1.2-5.88,1.09-5.88,1.09l-.04-.88h0Z"/>
          <path class="cls-5" d="m85,74.53s-.03.09-.02.14c.02.06.08.1.14.13.22.09.48.07.71-.01.23-.08.43-.2.64-.32.48-.26,1.01-.47,1.56-.6.19-.05.4-.09.56-.19.51-.32.05-.73-.36-.87-.38-.13-.68-.02-1.03.13-.83.35-1.9.76-2.2,1.59h0Z"/>
        </g>
      </g>
      <polygon class="cls-21" points="51.54 86.33 51.81 94.12 50.35 98.12 52.09 102.3 134.53 102.41 135.89 96.26 131.68 81.8 51.54 86.33"/>
      <path class="cls-21" d="m51.81,94.12s27.82,4.57,41.1,4.75,34.79-1.41,34.79-1.41c0,0-3.44,4.97-3.09,4.95.35-.01,9.92,0,9.92,0h0l1.35-6.15-2.66-9.13-81.69-1.3.27,8.29h0Z"/>
      <path class="cls-21" d="m49.19,74.02s11.33,8.31,36.04,8.02,48.24-9.22,48.24-9.22l4.27,14.4s-8.69,9.53-36.56,9.26c-27.86-.27-51.54-4.78-51.99-5.67s0-16.78,0-16.78h0Z"/>
      <path class="cls-6" d="m53.17,81.83c.35.2.72.49.76.9.06.64-.68,1-1.11,1.47-.85.93-.42,2.52.54,3.33.96.81,2.27,1.04,3.51,1.24,7.45,1.21,14.89,2.42,22.34,3.63,6.03.98,12.83,1.78,17.68-1.93.22-.17.45-.37.52-.64.17-.66-.63-1.12-1.28-1.31-8.92-2.61-18.52-1.67-27.61-3.61-.69-.15-1.41-.33-1.94-.79-.31-.28-.54-.64-.85-.92-.48-.44-1.11-.66-1.72-.87-3.51-1.21-7.04-2.7-10.6-3.72-1-.29-2.08-.88-2.61.4-.67,1.61,1.47,2.16,2.38,2.84v-.02Z"/>
      <path class="cls-6" d="m108.82,82.8c-.87.28-1.95.92-1.68,1.8,2.18,1.04,4.72.09,7.08-.46,5.8-1.36,12.22-.22,17.51-2.94.83-.43,1.74-1.23,1.46-2.13-.09-.29-.29-.52-.5-.74-2.71-2.72-7.41-.21-10.63.64-4.44,1.17-8.86,2.44-13.24,3.83h0Z"/>
      <text class="cls-3" transform="translate(55.07 113.84) rotate(26.5)"><tspan x="0" y="0">A</tspan></text>
      <text class="cls-3" transform="translate(62.72 117.59) rotate(18.94)"><tspan x="0" y="0">u</tspan></text>
      <text class="cls-3" transform="translate(69.65 119.87) rotate(14.52)"><tspan x="0" y="0"> </tspan></text>
      <text class="cls-3" transform="translate(72.8 120.74) rotate(10.83)"><tspan x="0" y="0">p</tspan></text>
      <text class="cls-3" transform="translate(79.93 122.04) rotate(7.83)"><tspan x="0" y="0">’</tspan></text>
      <text class="cls-3" transform="translate(83.18 122.49) rotate(5.96)"><tspan x="0" y="0">t</tspan></text>
      <text class="cls-3" transform="translate(87.8 122.97) rotate(4.48)"><tspan x="0" y="0">i</tspan></text>
      <text class="cls-3" transform="translate(91.02 123.22) rotate(3.38)"><tspan x="0" y="0">t</tspan></text>
      <text class="cls-3" transform="translate(95.59 123.48) rotate(2.6)"><tspan x="0" y="0"> </tspan></text>
      <text class="cls-3" transform="translate(98.88 123.78) rotate(-1.62)"><tspan x="0" y="0">p</tspan></text>
      <text class="cls-3" transform="translate(106.93 123.37) rotate(-18.06)"><tspan x="0" y="0">a</tspan></text>
      <text class="cls-3" transform="translate(113.44 121.14) rotate(-25.05)"><tspan x="0" y="0">n</tspan></text>
      <text class="cls-3" transform="translate(120 117.99) rotate(-28.82)"><tspan x="0" y="0">i</tspan></text>
      <text class="cls-3" transform="translate(123.1 116.33) rotate(-32.39)"><tspan x="0" y="0">e</tspan></text>
      <text class="cls-3" transform="translate(128.85 112.64) rotate(-36.43)"><tspan x="0" y="0">r</tspan></text>
    </g>
  </g>
</svg>