<?xml version="1.0" encoding="UTF-8"?>
<svg id="Calque_2" data-name="Calque 2" xmlns="http://www.w3.org/2000/svg" viewBox="0 0 685.04 1051.48">
  <defs>
    <style>
      .cls-1 {
        fill: #568e4c;
      }

      .cls-2 {
        fill: #5a75ab;
      }

      .cls-3 {
        fill: #d34f47;
      }

      .cls-4 {
        fill: #e1a42b;
      }

      .cls-5 {
        fill: #88b5d4;
      }

      .cls-6 {
        fill: #223465;
      }

      .cls-7 {
        fill: #e5ca30;
      }

      .cls-8 {
        fill: #e3d9c7;
      }

      .cls-9 {
        fill: #435ca7;
      }

      .cls-10 {
        fill: #9ed2f2;
      }

      .cls-11 {
        fill: #60453f;
      }

      .cls-12 {
        fill: #94756d;
      }

      .cls-13 {
        fill: #324496;
      }

      .cls-14 {
        fill: #72ba65;
      }

      .cls-15 {
        fill: #735b53;
      }

      .cls-16 {
        fill: #dd8c33;
      }

      .cls-17 {
        opacity: .37;
      }

      .cls-17, .cls-18, .cls-19 {
        fill: #fff;
      }

      .cls-20 {
        fill: #c9c0b1;
      }

      .cls-21 {
        fill: #473834;
      }

      .cls-22 {
        fill: #faea3f;
      }

      .cls-23 {
        fill: #ae3f3c;
      }

      .cls-24 {
        fill: #ed9254;
      }

      .cls-18 {
        opacity: .58;
      }

      .cls-25 {
        fill: #d8874e;
      }

      .cls-26 {
        fill: #f6a03a;
      }

      .cls-27 {
        fill: #b87446;
      }

      .cls-28 {
        fill: #456c4a;
      }

      .cls-19 {
        opacity: .27;
      }

      .cls-29 {
        fill: #fccc86;
      }

      .cls-30 {
        fill: #856962;
      }
    </style>
  </defs>
  <g id="Calque_1-2" data-name="Calque 1">
    <g>
      <polygon class="cls-21" points="368.62 256.33 438.72 312.46 411.35 395.85 313.06 384.46 368.62 256.33"/>
      <path class="cls-15" d="m194.48,344.51c-2.72-7.06,57.5-142.3,57.5-142.3l116.64,54.12-52.25,140.85-121.89-52.67Z"/>
      <g>
        <path class="cls-7" d="m297.32,453.69c1.12-1.02,71.28-48.7,94.96-82.54,38.29-54.72,46.87-142.01,46.87-142.01l18-8s41.69,41.21,32.95,99.09c-8.74,57.88-26.12,86.04-74.65,122.8-52.98,40.12-113.04,28.58-113.04,28.58l-5.1-17.91Z"/>
        <path class="cls-4" d="m456.37,221.86c11.65,16.75,27.42,47.42,21.72,85.19-8.74,57.88-26.12,86.04-74.65,122.8-40.78,30.88-85.75,31.15-104.3,29.64l3.52,12.38s60.06,11.54,113.04-28.58c48.53-36.75,65.92-64.91,74.65-122.8,8.74-57.88-32.95-99.09-32.95-99.09l-1.03.46Z"/>
        <polygon class="cls-7" points="439.16 229.14 425.72 196.42 436.55 186.55 457.16 221.14 439.16 229.14"/>
        <path class="cls-7" d="m415.9,186.96c-.52,6.74,3.48,15.25,3.48,15.25l27.68-13.88-7.91-13.17-23.24,11.8Z"/>
        <polygon class="cls-11" points="302.42 471.61 297.32 453.69 313.06 450.62 309.88 466.33 302.42 471.61"/>
        <path class="cls-22" d="m421.75,193.96c1.39-.03,2.71-.55,4-1.06,3.05-1.21,6.11-2.43,9.1-3.8,1.96-.9,4.23-2.48,3.83-4.61-.26-1.4-1.7-2.33-3.11-2.47-1.41-.14-2.81.34-4.14.84-3.34,1.26-9.33,2.78-11.96,5.19-2.48,2.27-1.77,6,2.28,5.91Z"/>
        <path class="cls-22" d="m324.39,445.97c18.94-11.26,37.74-22.95,54.66-37.08,16.91-14.13,31.97-30.85,42.03-50.47.89-1.73,1.75-3.56,1.75-5.51s-1.13-4.03-3.02-4.49c-1.98-.49-3.9.88-5.39,2.26-5.43,5.05-9.42,11.42-13.69,17.49-17.62,25.01-40.71,45.54-64.89,64.03-3.17,2.43-6.76,4.6-9.78,7.18-1.02.87-1.89.99-2.44,2.39-.16.41-.26,4.81.78,4.19Z"/>
        <path class="cls-22" d="m425.03,336.74c1.81.24,3.6-.82,4.72-2.27,1.12-1.45,1.69-3.23,2.23-4.98,3.58-11.68,6.47-23.58,8.66-35.6.5-2.74.96-5.57.36-8.29-.16-.75-.42-1.5-.96-2.04-1.23-1.25-3.39-.84-4.82.17-2.89,2.04-3.97,5.75-4.86,9.17-3.17,12.19-6.34,24.38-9.52,36.57-.2.75-.39,1.55-.18,2.3.45,1.58,2.58,4.73,4.37,4.97Z"/>
        <path class="cls-4" d="m432.19,195.78s-1.26-3.96,6.78,7.43c8.04,11.39,13.6,18.62,13.6,18.62,0,0,.61-.81,5.04,3.1,4.43,3.91,5.8,3.94,5.8,3.94l-6.25-7.72-17.38-29.17-7.59,3.81Z"/>
        <polygon class="cls-4" points="447.06 188.33 442.15 187.74 434.85 177.34 439.15 175.16 447.06 188.33"/>
      </g>
      <g>
        <path class="cls-7" d="m156.06,413.81c1.49-.29,86.19-4.8,123.97-21.51,61.08-27.02,113.58-97.28,113.58-97.28l19.54,2.47s14.36,56.83-23.07,101.84c-37.42,45.01-66.87,60.12-127.42,66.46-66.09,6.92-111.52-34.02-111.52-34.02l4.91-17.97Z"/>
        <path class="cls-4" d="m412.12,297.71c1.3,20.36-1.07,54.77-25.49,84.14-37.42,45.01-66.87,60.12-127.42,66.46-50.88,5.33-89.5-17.7-104.59-28.59l-3.39,12.41s45.43,40.95,111.52,34.02c60.54-6.34,89.99-21.45,127.42-66.46,37.42-45.01,23.07-101.84,23.07-101.84l-1.11-.14Z"/>
        <polygon class="cls-7" points="393.62 295.03 399.05 260.08 413.42 257.23 413.16 297.5 393.62 295.03"/>
        <path class="cls-7" d="m395.54,246.9c-3.94,5.5-4.91,14.85-4.91,14.85l30.87,2.44.04-15.36-26-1.92Z"/>
        <polygon class="cls-11" points="151.16 431.78 156.06 413.81 171.12 419.33 160.27 431.12 151.16 431.78"/>
        <path class="cls-22" d="m396.92,255.92c1.2.69,2.6.93,3.97,1.16,3.24.54,6.49,1.08,9.75,1.46,2.15.25,4.9.06,5.66-1.96.5-1.33-.25-2.87-1.39-3.72-1.14-.85-2.58-1.16-3.98-1.42-3.51-.65-9.42-2.45-12.92-1.75-3.29.66-4.62,4.22-1.1,6.24Z"/>
        <path class="cls-22" d="m183.22,421.21c22.04.16,44.17-.11,65.96-3.45,21.78-3.34,43.32-9.86,62.07-21.44,1.66-1.02,3.34-2.14,4.35-3.8,1.01-1.67,1.12-4.03-.26-5.41-1.44-1.44-3.79-1.27-5.78-.85-7.26,1.51-13.97,4.9-20.77,7.88-28.02,12.29-58.4,17.91-88.66,21.23-3.97.43-8.17.44-12.08,1.09-1.32.22-2.13-.13-3.33.78-.35.26-2.71,3.98-1.51,3.99Z"/>
        <path class="cls-22" d="m325.86,379.8c1.42,1.15,3.51,1.16,5.21.5,1.71-.66,3.12-1.89,4.48-3.11,9.11-8.15,17.74-16.83,25.83-25.99,1.84-2.09,3.7-4.27,4.6-6.91.25-.72.42-1.5.24-2.24-.41-1.7-2.47-2.48-4.22-2.35-3.53.25-6.37,2.87-8.91,5.34-9.02,8.79-18.04,17.58-27.06,26.37-.56.54-1.14,1.12-1.35,1.88-.43,1.59-.24,5.38,1.17,6.52Z"/>
        <path class="cls-4" d="m404.91,262.88s.97-4.04,1.96,9.86c.98,13.9,2.01,22.97,2.01,22.97,0,0,.94-.38,2.71,5.26,1.77,5.64,2.93,6.37,2.93,6.37l-1.36-9.84.22-33.95-8.46-.67Z"/>
        <polygon class="cls-4" points="421.49 264.19 417.59 261.15 416.73 248.47 421.53 248.83 421.49 264.19"/>
      </g>
      <g>
        <path class="cls-1" d="m534.92,0c9.2,1.39,18.54,1.9,27.84,1.52,6.64,63.61,13.27,127.23,19.91,190.84,1.29,12.37,2.44,25.54-3.23,36.6-5.67,11.06-20.99,18.06-30.99,10.67-8.55-6.32-8.79-18.79-8.21-29.41,1.8-33.16,8.1-64.74,6.53-97.83-.51-10.75-4.29-111.25-11.84-112.4Z"/>
        <path class="cls-14" d="m617.65,53.77c3.29-7.13,5.01-29.1,12.85-28.68,8.91.48,17.55,5.92,21.26,12.84-23.44,67.32-46.87,134.63-70.31,201.95-4.52,12.98-22.42,36.96-31.32,14.65-6.48-16.25,5.84-44.69,10.41-59.9,14.62-48.61,35.91-94.85,57.1-140.86Z"/>
        <path class="cls-1" d="m649.69,100.94c4.9,2.25,9.79,4.51,14.69,6.76-29.95,69.23-63.59,136.87-100.74,202.52-10.46,18.49-21.67,37.35-38.78,49.93-2.36,1.74-5.09,3.41-8,3.1-20.79-2.18,8.13-86.18,15.24-100.1,17.67-34.62,41.94-68.24,65.09-99.3,4.42-5.93,47.5-65.21,52.5-62.91Z"/>
        <path class="cls-14" d="m525.02,63.62c5.73-3.57,13.71-.42,17.71,5.02,4,5.44,5.03,12.44,5.93,19.13,2.87,21.16,5.75,42.35,6.98,63.67,2.75,47.73-2.8,95.5-8.33,142.99-2.57,22.09-5.04,56.3-24.3,71.32-21.03,16.4-20.21-9.13-18.07-23.25,8.86-58.4,15.91-116.64,18.68-175.71.83-17.7,1.36-35.41,1.58-53.13.07-5.84-3.7-47.83-.18-50.03Z"/>
        <path class="cls-1" d="m509.44,151.93c10.81,3.59,21.61,7.17,32.42,10.76,1.83,61.94-4.16,124.1-17.78,184.55,23.19-60.79,59.2-116.65,104.99-162.87,9.18,7.09,18.36,14.18,27.53,21.27-23.47,23.94-39.73,53.86-55.67,83.35-32.19,59.53-64.65,119.76-82.07,185.16-4.5,16.91-8.13,34.46-17.47,49.25-17.61,27.88-68.04,35.12-71.2-7.73-.96-13.08,8.73-25.91,13.26-37.6,7.71-19.92,12.87-41.18,18.46-61.78,23.49-86.51,39.43-175.08,47.53-264.36Z"/>
        <path class="cls-14" d="m554.91,261.98c21.32-26.37,45.76-50.2,72.66-70.84-35.73,36.86-72.43,75.22-90.08,123.42.26-9.56.78-20.24,3.06-29.56,2.12-8.66,8.87-16.23,14.36-23.02Z"/>
      </g>
      <g>
        <path class="cls-23" d="m399.18,388.85c9.81-6.31,16.65-3.47,29.74-10.3,1.55-.81,1.94,3.31,3.22,4.49,1.82,1.67-3.15,5.24-3.94,7.58-.79,2.34-2.46,4.26-4.13,6.08-9.17,9.92-23.29,24.33-37.31,26.38-3.5.51-25.55,5.43-24.09,1.11,4.14-12.31,19.61-15.75,22.51-18.7,6.3-6.44,3.92-10.15,14.01-16.64Z"/>
        <path class="cls-3" d="m400,411.52c-13.18,10.08-45.85,2.63-50.04,32.93-4.18,30.3,29.74,75.91,56.15,87.33,26.41,11.42,60.67-5.8,80.61-20.3,23.29-16.94,49.43-53.47,25.26-94.13-21.14-35.57-51.17-58.91-81.7-39.66-18.59,11.72-8.69,17.32-30.29,33.83Z"/>
        <path class="cls-23" d="m450.42,370.83c14.31,7.74,27.43,22.71,38.23,40.88,24.17,40.66-1.97,77.19-25.26,94.13-15.3,11.13-39.04,23.86-61.19,24.02,1.32.71,2.63,1.36,3.92,1.92,26.41,11.42,60.67-5.8,80.61-20.3,23.29-16.94,49.43-53.47,25.26-94.13-16.46-27.69-38.3-47.96-61.57-46.51Z"/>
        <path class="cls-19" d="m368.34,452.83c-.65,7.6,1.5,15.3,5.39,21.86,2.27,3.82,5.26,7.41,9.3,9.28,4.04,1.87,9.26,1.64,12.47-1.43.82-.79,1.5-1.76,1.77-2.87.37-1.56-.1-3.18-.57-4.72-2.2-7.21-4.41-14.79-2.93-22.19.7-3.53,2.23-6.87,2.81-10.42.58-3.55,0-7.63-2.78-9.93-4.28-3.55-12.28-1.5-16.3,1.53-5.54,4.19-8.61,12.21-9.18,18.89Z"/>
        <path class="cls-19" d="m397.56,490.91c-2.69,1.87-3.09,6.07-1.23,8.76,1.86,2.69,5.46,3.85,8.7,3.35,1.71-.26,3.49-1.06,4.24-2.63.54-1.13.44-2.47.14-3.69-.55-2.25-1.8-4.38-3.7-5.72-1.9-1.33-4.48-1.77-6.61-.86l-1.54.78Z"/>
      </g>
      <g>
        <g>
          <path class="cls-24" d="m150.53,247.45l-.39-.71c-.24.27-1.54-.55-.54.35.31.12.62.24.93.37Z"/>
          <path class="cls-24" d="m124.94,370.78c21.57-.1,37.84-31.46,46.76-48.48,8.25-15.74,20.93-47.33-.24-64.07-6.22-4.92-15-7.98-22.04-10.73l2.39,4.32c-5.98-8.85-20.12-22.69-28.62-20.52-8.94,2.28-21.03,4.57-29.03,8.99-29.78,16.48-37.8,33.82-34.9,64.72,3.85,41.09,38.54,65.89,65.68,65.76Z"/>
        </g>
        <path class="cls-25" d="m124.76,370.2c4.83-.02,9.38-1.61,13.66-4.25-25.05-4.95-52.47-28.52-55.87-64.78-2.9-30.91,5.12-48.25,34.9-64.72,3.55-1.96,7.91-3.51,12.44-4.81-2.49-1.02-4.84-1.42-6.87-.9-8.94,2.28-21.03,4.57-29.03,8.99-29.78,16.48-37.8,33.81-34.9,64.72,3.85,41.09,38.54,65.89,65.68,65.76Z"/>
        <path class="cls-27" d="m120.3,370.98c2.92-.01,5.74-.6,8.45-1.65-26.36-2.35-57.67-26.65-61.32-65.57-2.9-30.91,5.12-48.25,34.9-64.72,5.92-3.28,14.1-5.38,21.57-7.18-1.93-.6-3.74-.77-5.35-.35-8.94,2.28-21.03,4.57-29.03,8.99-29.78,16.48-37.8,33.82-34.9,64.72,3.85,41.09,38.54,65.89,65.68,65.76Z"/>
        <g>
          <path class="cls-25" d="m219.15,359.63c-.06-.08-.11-.16-.17-.24.05.08.11.16.17.24Z"/>
          <path class="cls-25" d="m144.16,445.2c19.88-.7,28.02-27.79,45.57-37.32,10.09-5.48,19.07-12.95,25.59-22.99,2.79-4.3,4.83-14.71,1.68-20.47l-7.41-3.39c-6.69-3.38-5.85,8.3-10.31.66,4.33-9.62,5.06-27.99,9.65-38.04,6.6-14.45,5.8-36.06-.2-52.8-13.23-36.93-46.16-57.13-70.16-50.93-7.66,1.98-26.56,13.55-3.76,19.32,7.36,1.86,15.33,13.58,20.68,22.39,19.12,31.47-34.93,70.93-41.75,82.26-7.85,13.03-18.11,29.2-17.31,45.25.97,19.53,20.23,57.01,47.73,56.04Z"/>
          <path class="cls-25" d="m219.15,359.63c.24.33.46.67.66,1.03h.02c-.12-.32-.43-.7-.68-1.03Z"/>
        </g>
        <path class="cls-27" d="m142.43,445.47c1.97-.07,3.82-.4,5.57-.94-24.3-4.06-40.9-37.56-41.8-55.65-.8-16.05,9.47-32.22,17.31-45.25,6.82-11.33,60.87-50.78,41.75-82.26-5.35-8.81-13.33-20.53-20.68-22.39-22.8-5.77-3.9-17.34,3.76-19.32.51-.13,1.02-.25,1.54-.36-4.52-.45-8.91-.16-13.04.9-7.66,1.98-26.56,13.55-3.76,19.32,7.36,1.86,15.33,13.58,20.68,22.39,19.12,31.47-34.93,70.93-41.75,82.26-7.85,13.03-18.11,29.2-17.31,45.25.97,19.53,20.23,57.01,47.73,56.04Z"/>
        <path class="cls-27" d="m218.41,495.38c18.86,8,20.52,16.5,35.27,8.96l16.09-11.17c13.05-14.24,17.94-45.72,9.68-67.27-6.4-16.71-22.83-33.19-39.04-37.19-10.57-2.61-16.14,5.27-23.48,10.87-8.47,6.46-16.75,13.46-21.07,24.17-9.14,22.66-5.11,59.89,22.55,71.62Z"/>
        <path class="cls-24" d="m224.78,537.63c16.17-2.38,36.87-20.03,46.36-39.82,12-25.04-6.9,6.88-43.37-12.54-9.92-5.28-16.06-11.15-19.92-21.41-5.62-14.97.71-27.12,8.92-36.97,11.17-13.41,28.43-35.27,30.22-56.5,1.93-22.93-11.75-38.3-24.68-49.04-14.17-11.76-14.58,14.29-36.09,46.63-13.08,19.66-27.04,36.06-37.08,49.41-16.43,21.85-19.15,39.83-9.21,62.8,7.42,17.14,32.57,65.17,84.85,57.46Z"/>
        <path class="cls-25" d="m211.32,539.17c-29.77-10.92-45.44-41.39-51.03-54.31-9.94-22.97-7.23-40.95,9.21-62.8,10.04-13.34,24-29.75,37.08-49.41,12.54-18.85,17.91-35.57,23.02-43.9-2.4-2.4-4.89-4.62-7.36-6.66-14.17-11.76-14.58,14.29-36.09,46.63-13.08,19.66-27.04,36.06-37.08,49.41-16.43,21.85-19.15,39.83-9.21,62.8,6.75,15.61,28.21,56.82,71.46,58.25Z"/>
        <path class="cls-27" d="m203.56,538.18c-34.75-8.07-52.6-42.59-58.66-56.57-9.94-22.97-7.23-40.96,9.21-62.8,10.04-13.34,24-29.75,37.08-49.41,16.89-25.38,20.77-46.89,28.52-49.28-11.97-7.08-13.5,17.81-33.78,48.28-13.08,19.66-27.04,36.06-37.08,49.41-16.43,21.85-19.15,39.83-9.21,62.8,6.35,14.67,25.69,51.96,63.91,57.57Z"/>
        <path class="cls-24" d="m135.93,408.58c1.9-.96,4.77-7.16,5.97-9.17,2.23-3.74,2.81-7.82,5.74-10.96,6.29-6.75,12.75-10.19,17.15-19.02,4.92-9.87,8.37-19.74,14.57-28.74,6.24-9.05,13.03-18.46,17.06-29.06,5.84-15.34,3.5-38.93-8.72-53.34l-5.08-7.62c-1.64-1.38-7.62-3.2-9.56-2.28-3.69,1.74-1.33,5.75-.27,9.09,2.48,7.79,5.21,15.9,5.11,23.78-.12,8.98-2.36,17.91-5.46,25.8-3.82,9.72-13,16.86-19.48,24.12-7.23,8.11-14.93,16.16-20.68,25.62-5.72,9.41-10.19,18.1-8.58,30.87.72,5.72,4.48,24.83,12.23,20.92Z"/>
        <g>
          <path class="cls-25" d="m245.11,484.57c5.9,1.26,12.9,1.1,18.72,2.8,3.62,1.06,7.65-1.69,10.98-.93,3.59-4.71,4.98-11.43,7.26-17.18,4.33-10.91,7.37-23.14,4.07-35.79-2.39-9.14-5.45-19.41-12.54-26.25-5.07-4.89-11.6-8.17-17.69-10.48-8.34-3.17-14.1,2.27-18.35,9.96-4.55,8.23-6.91,14.11-11.49,22.37-5.25,9.46-11.87,14.88-7.72,28.46,4.32,14.1,14.96,24.54,26.76,27.05Z"/>
          <path class="cls-25" d="m275.59,486.64c-.26-.08-.52-.14-.78-.2-.16.21-.31.41-.48.61l1.26-.41Z"/>
        </g>
        <path class="cls-24" d="m265.56,479.72l2.88.83c5.65,2.63,13.98-8.65,15.93-14.38,2.48-7.28,4.17-17.47,3.46-26.1-1.88-22.93-19.79-33.72-34.87-30.08-14.86,3.59-20.14,17.82-18.21,37.93,2.33,24.3,17.07,25.16,30.81,31.8Z"/>
        <path class="cls-29" d="m224.09,395.29c-2.06,1.09-3.05-.36-4.19-3.6-1.14-3.24-1.96-6.38-.42-7.14,1.54-.76,3.76,2.96,4.54,4.9.78,1.93,1.95,4.84.07,5.84Z"/>
        <path class="cls-29" d="m214.08,416.92c-2.47-.42-2.64-2.1-2.04-5.21.6-3.11,1.44-5.96,3.25-5.6,1.81.36,1.97,4.48,1.71,6.4-.26,1.92-.66,4.8-2.92,4.41Z"/>
        <path class="cls-29" d="m182.63,419.98c-.94-2.61.42-3.17,3.41-3.28,3-.11,5.9.1,6.55,2.02.65,1.92-2.82,3.04-4.62,3.21-1.79.17-4.49.43-5.35-1.96Z"/>
        <path class="cls-29" d="m195.38,410.15c.59-2.47,2.12-1.98,4.89-.11,2.76,1.87,5.27,3.91,4.8,5.69-.47,1.79-4.22.33-5.94-.72-1.72-1.04-4.29-2.61-3.75-4.87Z"/>
        <path class="cls-29" d="m211.65,397.06c.87,2.63-.52,3.14-3.53,3.13-3.01,0-5.93-.31-6.52-2.25-.59-1.94,2.93-2.92,4.74-3.02,1.81-.11,4.52-.26,5.31,2.14Z"/>
        <path class="cls-29" d="m202.57,435.81c-1.4,1.94-2.76.92-4.89-1.8-2.13-2.72-3.95-5.48-2.89-6.87,1.06-1.39,4.3,1.35,5.66,2.94,1.36,1.58,3.4,3.96,2.12,5.73Z"/>
        <path class="cls-29" d="m192.56,272.77c-1.35,1.98-2.73.98-4.91-1.7-2.17-2.68-4.04-5.41-3.01-6.82,1.03-1.42,4.31,1.26,5.69,2.82,1.38,1.56,3.46,3.9,2.22,5.7Z"/>
        <path class="cls-29" d="m192.06,298.38c-2.26.67-3.03-.91-3.68-4.22-.64-3.31-.98-6.48.69-6.92,1.68-.44,3.35,3.54,3.83,5.53.49,2,1.22,5-.85,5.61Z"/>
        <path class="cls-29" d="m166.38,315.16c-1.77-2.15-.82-3.3,1.7-4.71,2.52-1.42,5.07-2.49,6.34-.88,1.27,1.61-1.28,4.22-2.75,5.17s-3.67,2.39-5.29.42Z"/>
        <path class="cls-29" d="m173.6,299.92c-.42-2.68,1.08-2.88,4.13-2.25,3.05.63,5.95,1.52,6.21,3.49.26,1.97-3.48,2.17-5.33,1.89-1.85-.27-4.63-.69-5.01-3.14Z"/>
        <path class="cls-29" d="m177.78,329.06c2.47.46,2.62,2.14,1.98,5.23-.64,3.09-1.52,5.92-3.33,5.53-1.81-.39-1.92-4.5-1.63-6.41.29-1.91.73-4.77,2.98-4.35Z"/>
        <path class="cls-29" d="m156.92,334.79c-1.78-2.15-.83-3.29,1.69-4.72,2.51-1.42,5.06-2.5,6.33-.9,1.27,1.6-1.27,4.22-2.73,5.18-1.46.96-3.66,2.4-5.28.43Z"/>
        <path class="cls-29" d="m171.52,350.95c2.45.12,2.79,1.8,2.54,5.02-.25,3.22-.78,6.2-2.58,6.07-1.8-.14-2.4-4.29-2.34-6.26.06-1.97.14-4.93,2.38-4.82Z"/>
        <path class="cls-29" d="m154.52,347.06c-.42-2.68,1.08-2.88,4.13-2.25,3.05.63,5.95,1.52,6.21,3.49.26,1.96-3.48,2.17-5.33,1.89-1.85-.27-4.63-.69-5.01-3.14Z"/>
        <path class="cls-29" d="m164.36,365.77c2.47.46,2.62,2.14,1.98,5.23-.64,3.09-1.52,5.92-3.33,5.53-1.81-.39-1.92-4.5-1.63-6.41.29-1.91.73-4.77,2.98-4.35Z"/>
        <path class="cls-29" d="m143.51,371.49c-1.78-2.15-.83-3.29,1.69-4.72,2.51-1.42,5.06-2.5,6.33-.9,1.27,1.6-1.27,4.22-2.73,5.18-1.46.96-3.66,2.4-5.28.43Z"/>
        <path class="cls-29" d="m141.1,383.76c-.42-2.68,1.08-2.88,4.13-2.25,3.05.63,5.95,1.52,6.21,3.49.26,1.97-3.48,2.17-5.33,1.89-1.85-.27-4.63-.69-5.01-3.14Z"/>
        <path class="cls-29" d="m158.15,387.56c-2.38.27-2.94-1.38-3.14-4.68-.19-3.3-.1-6.41,1.66-6.56s2.9,3.96,3.11,5.97c.22,2.01.54,5.02-1.64,5.27Z"/>
        <path class="cls-29" d="m135.57,388.32c2.38-.29,2.95,1.35,3.17,4.65.22,3.3.15,6.42-1.61,6.58-1.75.17-2.93-3.94-3.16-5.95-.23-2.01-.58-5.02,1.6-5.29Z"/>
        <path class="cls-29" d="m157.21,400.05c1.26,2.5.02,3.28-2.86,3.86-2.88.58-5.72.83-6.6-1.02-.88-1.85,2.32-3.52,4.03-3.98,1.71-.46,4.28-1.14,5.43,1.14Z"/>
        <path class="cls-29" d="m138.27,414.12c1.26,2.5.02,3.28-2.86,3.86-2.88.58-5.72.83-6.6-1.02s2.32-3.52,4.03-3.98,4.28-1.14,5.43,1.14Z"/>
        <path class="cls-29" d="m159.06,357.07c2.45.78,2.4,2.44,1.4,5.35-1,2.92-2.22,5.55-4,4.93-1.79-.62-1.43-4.64-.92-6.45.51-1.82,1.28-4.54,3.52-3.83Z"/>
        <path class="cls-29" d="m113.21,289.5c2.45.78,2.4,2.44,1.4,5.35-1,2.92-2.22,5.55-4,4.93-1.79-.62-1.43-4.64-.92-6.46.51-1.82,1.28-4.54,3.52-3.83Z"/>
        <path class="cls-29" d="m119.22,320.68c.18,2.67-1.35,2.7-4.37,1.76-3.03-.94-5.87-2.13-5.96-4.08-.09-1.95,3.71-1.75,5.56-1.29,1.85.47,4.61,1.17,4.78,3.61Z"/>
        <path class="cls-29" d="m102.79,321.87c.18,2.67-1.35,2.7-4.37,1.76-3.03-.94-5.87-2.13-5.96-4.08-.09-1.95,3.71-1.76,5.56-1.29,1.85.47,4.61,1.17,4.78,3.61Z"/>
        <path class="cls-29" d="m104.64,333.88c1.99,1.92,1.21,3.22-1.06,5.02-2.26,1.8-4.6,3.27-6.03,1.83s.71-4.46,2.02-5.64c1.3-1.18,3.26-2.96,5.07-1.2Z"/>
        <path class="cls-29" d="m147.54,282.4c2.47.54,2.57,2.22,1.84,5.27-.73,3.05-1.7,5.83-3.5,5.39-1.81-.45-1.8-4.54-1.45-6.43.35-1.89.87-4.72,3.12-4.23Z"/>
        <path class="cls-29" d="m108.39,283.91c-2.42-.96-2.27-2.59-1.07-5.39,1.2-2.8,2.59-5.31,4.36-4.56,1.76.75,1.14,4.68.51,6.44-.63,1.75-1.58,4.39-3.79,3.51Z"/>
        <path class="cls-29" d="m179.79,351.8c-1.86-2.06-.98-3.27,1.44-4.85,2.42-1.58,4.89-2.81,6.23-1.27,1.34,1.54-1.05,4.33-2.45,5.38-1.4,1.05-3.51,2.63-5.21.74Z"/>
        <path class="cls-29" d="m194.03,321.06c-2.41-.97-2.26-2.6-1.04-5.39,1.21-2.79,2.62-5.29,4.38-4.53,1.76.76,1.12,4.69.48,6.43-.64,1.75-1.61,4.37-3.81,3.49Z"/>
        <path class="cls-29" d="m182.62,279.95c1.72,2.2.72,3.31-1.85,4.62-2.57,1.32-5.17,2.29-6.39.65-1.22-1.64,1.41-4.15,2.92-5.04,1.5-.9,3.76-2.24,5.33-.23Z"/>
        <path class="cls-29" d="m189.26,321.97c-.47,2.52-2.02,2.11-4.84.37-2.82-1.74-5.4-3.65-5.01-5.48.39-1.83,4.17-.55,5.91.41,1.75.96,4.37,2.4,3.94,4.7Z"/>
        <path class="cls-29" d="m185.16,445.81c-2.39-1.09-2.16-2.69-.81-5.4,1.34-2.71,2.87-5.1,4.61-4.26,1.74.84.92,4.7.2,6.4-.72,1.7-1.81,4.25-3.99,3.26Z"/>
        <path class="cls-29" d="m169.03,438.08c-.83-2.64.56-3.12,3.58-3.07s5.93.4,6.5,2.34c.57,1.94-2.97,2.87-4.79,2.95-1.81.08-4.54.2-5.3-2.21Z"/>
        <path class="cls-29" d="m174.01,453.2c-.83-2.64.56-3.12,3.58-3.07,3.02.05,5.93.4,6.5,2.34.57,1.94-2.97,2.87-4.79,2.94-1.81.08-4.54.2-5.3-2.21Z"/>
        <path class="cls-29" d="m199.69,468.1c.21,2.67-1.31,2.73-4.35,1.83-3.03-.9-5.89-2.05-5.99-4.01s3.68-1.81,5.53-1.37c1.85.44,4.62,1.1,4.81,3.55Z"/>
        <path class="cls-29" d="m181.04,460.58c2.09,1.77,1.42,3.15-.68,5.16-2.1,2.01-4.3,3.69-5.81,2.35-1.51-1.33.38-4.56,1.58-5.87,1.2-1.3,3-3.26,4.91-1.65Z"/>
        <path class="cls-29" d="m191.95,478.49c.59,2.67-.87,2.99-3.92,2.59-3.05-.39-5.96-1.07-6.35-3.04-.39-1.96,3.28-2.46,5.13-2.33,1.84.13,4.61.33,5.14,2.77Z"/>
        <path class="cls-29" d="m170.83,471.21c2.47.37,2.67,2.05,2.14,5.18-.53,3.13-1.31,6.01-3.12,5.7-1.81-.31-2.06-4.45-1.84-6.38.22-1.93.56-4.83,2.81-4.5Z"/>
        <path class="cls-29" d="m143.1,347.76c-2.39-1.09-2.16-2.69-.81-5.4,1.34-2.71,2.87-5.1,4.61-4.26,1.74.84.92,4.7.2,6.4-.72,1.7-1.81,4.25-3.99,3.26Z"/>
        <path class="cls-29" d="m131.95,355.15c-.83-2.64.56-3.12,3.58-3.07,3.02.05,5.93.4,6.5,2.34.57,1.94-2.97,2.87-4.79,2.95-1.81.08-4.54.2-5.3-2.21Z"/>
        <path class="cls-29" d="m138.98,362.53c2.09,1.77,1.42,3.15-.68,5.16-2.1,2.01-4.3,3.68-5.81,2.35-1.51-1.33.38-4.56,1.58-5.87,1.2-1.3,3-3.26,4.91-1.64Z"/>
        <path class="cls-29" d="m128.77,373.16c2.47.36,2.67,2.05,2.14,5.18-.53,3.13-1.31,6.01-3.12,5.69-1.81-.31-2.06-4.45-1.84-6.38.22-1.93.56-4.83,2.81-4.5Z"/>
        <path class="cls-29" d="m95.52,296.12c-1.78-2.15-.83-3.29,1.69-4.72,2.51-1.42,5.06-2.5,6.33-.9,1.27,1.6-1.27,4.22-2.73,5.18-1.46.96-3.66,2.4-5.28.43Z"/>
        <path class="cls-29" d="m93.11,308.39c-.42-2.68,1.08-2.88,4.13-2.25,3.05.63,5.95,1.52,6.21,3.49.26,1.96-3.48,2.17-5.33,1.89-1.85-.27-4.63-.69-5.01-3.14Z"/>
        <path class="cls-29" d="m95.11,272.39c-2.39-1.09-2.16-2.69-.81-5.4,1.34-2.71,2.87-5.1,4.61-4.26,1.74.84.92,4.7.2,6.4-.72,1.7-1.81,4.25-3.99,3.26Z"/>
        <path class="cls-29" d="m83.96,279.78c-.83-2.64.56-3.12,3.58-3.07,3.02.05,5.93.4,6.5,2.34.57,1.94-2.97,2.87-4.79,2.95-1.81.08-4.54.2-5.3-2.21Z"/>
        <path class="cls-29" d="m90.99,287.16c2.09,1.77,1.42,3.15-.68,5.16-2.1,2.01-4.3,3.68-5.81,2.35-1.51-1.33.38-4.56,1.58-5.87,1.2-1.3,3-3.26,4.91-1.64Z"/>
        <path class="cls-29" d="m80.78,297.79c2.47.36,2.67,2.05,2.14,5.18-.53,3.13-1.31,6.01-3.12,5.7-1.81-.32-2.06-4.45-1.84-6.38.22-1.93.56-4.83,2.81-4.5Z"/>
        <path class="cls-29" d="m123.89,275.33c1.91,2.01,1.06,3.25-1.3,4.92-2.36,1.66-4.79,2.98-6.16,1.48-1.37-1.5.93-4.38,2.29-5.48,1.37-1.1,3.42-2.75,5.16-.91Z"/>
        <path class="cls-29" d="m125.32,262.73c.61,2.67-.84,3-3.89,2.64-3.05-.36-5.96-1.01-6.37-2.97-.41-1.96,3.26-2.5,5.1-2.39,1.84.11,4.6.28,5.16,2.72Z"/>
        <path class="cls-29" d="m113.79,310.14c-1.51,1.83-2.83.73-4.83-2.09-2-2.82-3.68-5.67-2.54-6.97s4.26,1.61,5.54,3.26c1.28,1.65,3.21,4.13,1.83,5.8Z"/>
        <path class="cls-29" d="m126.1,299.26c2.43.88,2.33,2.52,1.21,5.38-1.11,2.85-2.44,5.41-4.21,4.72-1.77-.69-1.26-4.67-.68-6.45.58-1.78,1.46-4.46,3.68-3.65Z"/>
        <path class="cls-29" d="m136.51,290.8c1.02,2.59-.31,3.2-3.29,3.42-2.97.22-5.87.13-6.57-1.78-.71-1.91,2.7-3.16,4.48-3.4,1.78-.24,4.45-.6,5.38,1.76Z"/>
        <path class="cls-29" d="m129.03,283.98c-2.19-1.6-1.63-3.05.28-5.27,1.91-2.22,3.95-4.11,5.53-2.9,1.59,1.21-.03,4.64-1.11,6.07-1.08,1.42-2.7,3.56-4.7,2.1Z"/>
        <path class="cls-29" d="m138.26,272.33c-2.46-.15-2.78-1.83-2.5-5.04.28-3.21.83-6.19,2.63-6.03,1.8.16,2.36,4.31,2.29,6.28-.07,1.97-.18,4.93-2.42,4.79Z"/>
        <path class="cls-29" d="m199.73,481.81c2.47.36,2.67,2.05,2.14,5.18-.53,3.13-1.31,6.01-3.12,5.7-1.81-.31-2.06-4.45-1.84-6.38.22-1.93.56-4.83,2.81-4.5Z"/>
        <path class="cls-29" d="m213.29,499.56c2.47.36,2.67,2.05,2.14,5.18-.53,3.13-1.31,6.01-3.12,5.7-1.81-.32-2.06-4.45-1.84-6.38.22-1.93.56-4.83,2.81-4.5Z"/>
        <path class="cls-29" d="m237.65,504.1c.51,2.68-.97,2.93-4.02,2.43-3.05-.51-5.96-1.29-6.29-3.26-.33-1.97,3.38-2.32,5.23-2.12,1.85.2,4.62.5,5.08,2.95Z"/>
        <path class="cls-29" d="m179.76,490.72c0-2.65,1.53-2.56,4.53-1.4,2.99,1.16,5.79,2.55,5.75,4.48-.04,1.93-3.86,1.45-5.69.85-1.83-.6-4.58-1.5-4.58-3.92Z"/>
        <path class="cls-29" d="m197.32,501.57c2.27-.64,3.03.95,3.64,4.26.61,3.31.92,6.48-.76,6.9-1.68.42-3.32-3.57-3.79-5.57-.47-2-1.17-5,.91-5.59Z"/>
        <path class="cls-29" d="m192.15,455.52c-2.39-1.09-2.16-2.69-.81-5.4,1.34-2.71,2.87-5.1,4.61-4.26,1.74.84.92,4.7.2,6.4-.72,1.7-1.81,4.25-3.99,3.26Z"/>
        <path class="cls-29" d="m239.77,450.3c-.83-2.64.56-3.12,3.58-3.07,3.02.05,5.93.4,6.5,2.34.57,1.94-2.97,2.87-4.79,2.95-1.81.08-4.54.19-5.3-2.21Z"/>
        <path class="cls-29" d="m274.01,457.85c-2.47-.33-2.69-2.01-2.2-5.16.49-3.14,1.24-6.04,3.05-5.75,1.81.29,2.11,4.43,1.91,6.37-.2,1.94-.5,4.84-2.75,4.54Z"/>
        <path class="cls-29" d="m244.75,465.42c-.83-2.64.56-3.12,3.58-3.07,3.02.05,5.93.4,6.5,2.34.57,1.94-2.97,2.87-4.79,2.94-1.81.08-4.54.2-5.3-2.21Z"/>
        <path class="cls-29" d="m260.62,432.86c-2.45-.13-2.79-1.81-2.53-5.03.26-3.21.8-6.2,2.6-6.05,1.8.14,2.38,4.3,2.32,6.27-.06,1.97-.15,4.93-2.4,4.81Z"/>
        <path class="cls-29" d="m262.89,467.73c-2.39-1.09-2.16-2.69-.81-5.4,1.34-2.71,2.87-5.1,4.61-4.26,1.74.84.92,4.7.2,6.4-.72,1.7-1.81,4.25-3.99,3.26Z"/>
        <path class="cls-29" d="m269.53,441.54c-2.39-1.09-2.16-2.69-.81-5.4,1.34-2.71,2.87-5.1,4.61-4.26,1.74.84.92,4.7.2,6.4-.72,1.7-1.81,4.25-3.99,3.26Z"/>
        <path class="cls-29" d="m255.12,463.84c-2.46-.19-2.76-1.87-2.43-5.07.33-3.2.93-6.15,2.74-5.96,1.81.19,2.3,4.34,2.2,6.3-.1,1.96-.26,4.91-2.51,4.73Z"/>
        <path class="cls-29" d="m267.36,451.94c-1.52,1.83-2.83.72-4.83-2.1-1.99-2.83-3.67-5.67-2.53-6.98,1.15-1.3,4.26,1.62,5.54,3.27,1.28,1.66,3.2,4.14,1.82,5.81Z"/>
        <path class="cls-29" d="m256.98,434.16c.75,2.65-.67,3.08-3.7,2.91-3.03-.17-5.95-.64-6.46-2.59-.51-1.95,3.09-2.73,4.91-2.73,1.83,0,4.57-.01,5.25,2.41Z"/>
      </g>
      <g>
        <path class="cls-23" d="m337.5,369.58c9.23,7.13,8.85,14.53,19.67,24.57,1.28,1.19-2.47,2.93-3.15,4.54-.97,2.27-5.99-1.22-8.46-1.18-2.47.04-4.84-.89-7.11-1.86-12.42-5.31-30.72-13.79-37.36-26.31-1.66-3.13-13.68-22.25-9.12-22.33,12.98-.22,21.41,13.2,25.16,14.94,8.18,3.78,10.88.29,20.37,7.63Z"/>
        <path class="cls-3" d="m316.41,377.94c-13.92-9.04-17.84-42.32-47.79-36.11-29.95,6.21-61.56,53.46-63.48,82.17-1.92,28.71,25.79,55.22,46.14,69.15,23.77,16.26,66.94,28.66,97.15-7.74,26.43-31.84,38.36-67.95,10-90.26-17.27-13.59-19.23-2.39-42.02-17.2Z"/>
        <path class="cls-23" d="m371.64,411.82c-2.5,16.08-12.21,33.45-25.71,49.71-30.21,36.39-73.39,24-97.15,7.74-15.62-10.69-35.56-28.79-43.13-49.61-.23,1.48-.4,2.93-.49,4.33-1.92,28.71,25.79,55.22,46.14,69.15,23.77,16.26,66.94,28.66,97.15-7.74,20.57-24.78,32.36-52.15,23.19-73.59Z"/>
        <path class="cls-19" d="m266.88,361.96c-7.38,1.93-13.91,6.54-18.79,12.41-2.84,3.42-5.22,7.44-5.63,11.87-.41,4.43,1.55,9.28,5.53,11.27,1.02.51,2.16.83,3.3.71,1.6-.17,2.97-1.16,4.26-2.12,6.06-4.49,12.46-9.11,19.92-10.19,3.56-.52,7.22-.2,10.76-.84,3.54-.64,7.19-2.56,8.43-5.94,1.91-5.22-2.7-12.08-6.91-14.84-5.8-3.81-14.39-4.02-20.87-2.32Z"/>
        <path class="cls-19" d="m240.79,402.24c-2.66-1.91-6.75-.88-8.66,1.78s-1.8,6.43-.24,9.31c.82,1.52,2.17,2.94,3.89,3.12,1.25.13,2.47-.41,3.52-1.1,1.94-1.28,3.53-3.17,4.15-5.4.62-2.24.17-4.81-1.41-6.51l-1.25-1.19Z"/>
        <path class="cls-11" d="m312.92,375s13.96-15.42,22.84-21.48c8.88-6.07,27.24-12.14,27.24-12.14l3.68,7.66s-14.18,1.35-25.84,8.75c-8.15,5.18-24.42,20.15-24.42,20.15l-3.5-2.94Z"/>
        <path class="cls-28" d="m340.84,357.79s25.28-3.44,39.9,7.07c19.57,14.07,30.61,30.98,30.61,30.98,0,0-26.22,9.07-43.57-.12-17.35-9.2-32.56-33.88-32.56-33.88l5.62-4.05Z"/>
        <path class="cls-19" d="m369.01,368.79c-.37.08-.74.2-.98.48-.32.38-.32.97-.22,1.51.34,1.81,1.64,3.43,3.13,4.59,1.49,1.16,3.18,1.94,4.82,2.81,3.82,2.03,7.43,4.62,10.67,7.66,1.14,1.07,2.28,2.23,3.66,2.87,4.3,2,5.03-2.83,4.21-6.12-.77-3.06-2.82-4.5-5.32-6.2-5.88-3.99-13.21-9.16-19.97-7.6Z"/>
      </g>
      <g>
        <path class="cls-10" d="m624.46,383.58c-4.83-9.02-10.1-16.33-9.9-24.28.41-16.35,15.95-57.31,15.95-57.31l-44.94-17.4s-16.1,40.74-26.81,53.11c-5.2,6.01-14.03,7.87-23.67,11.28-18.33,5.97-180.32,346.05-180.32,346.05l-14.73,38.02s-10.18,26.28,13.68,34.7c20.95,7.39,24.06-13.15,34.91-8.38,10.85,4.77,4.54,10.54,9.37,19.53,5.65,10.52,26.98,18.78,38.23,14.81,9.62-3.39,8.84-11.91,20.08-8.13,11.23,3.78-.3,21.06,20.16,29.71,23.31,9.84,33.48-16.44,33.48-16.44l14.73-38.02s109.32-360.48,99.79-377.24Z"/>
        <path class="cls-5" d="m481.18,803.1c-20.46-8.64-8.93-25.92-20.16-29.71-11.23-3.78-10.45,4.73-20.08,8.13-11.26,3.97-32.59-4.29-38.23-14.81-4.83-8.99,1.48-14.76-9.37-19.53-10.85-4.77-13.96,15.77-34.91,8.38-23.86-8.42-13.68-34.7-13.68-34.7l-4.72,12.18s-10.18,26.28,13.68,34.7c20.95,7.39,24.06-13.15,34.91-8.38,10.85,4.77,4.54,10.54,9.37,19.53,5.65,10.52,26.98,18.78,38.23,14.81,9.62-3.39,8.84-11.91,20.08-8.12,11.23,3.78-.3,21.06,20.16,29.7,23.31,9.84,33.48-16.44,33.48-16.44l4.72-12.18s-10.18,26.28-33.48,16.44Z"/>
        <path class="cls-5" d="m624.46,383.58c-4.83-9.02-10.1-16.33-9.9-24.28.41-16.35,15.95-57.31,15.95-57.31l-19.75-7.65s-15.54,40.96-15.95,57.31c-.2,7.95,5.07,15.26,9.9,24.28,9.53,16.76-99.79,377.24-99.79,377.24l-14.73,38.02s-6.83,17.62-22.09,18.6c1.94,2.03,4.61,3.91,8.36,5.49,23.31,9.84,33.48-16.44,33.48-16.44l14.73-38.02s109.32-360.48,99.79-377.24Z"/>
        <g>
          <path class="cls-13" d="m625.92,316.69l-46.86-18.15c-3.7-1.43-5.53-5.59-4.1-9.29l9.22-23.81c1.43-3.7,5.59-5.53,9.29-4.1l46.86,18.15c3.7,1.43,5.53,5.59,4.1,9.29l-9.22,23.81c-1.43,3.7-5.59,5.53-9.29,4.1Z"/>
          <path class="cls-13" d="m625.37,326.3l-51.83-20.07c-1.3-.5-1.95-1.97-1.44-3.27l.31-.8c.5-1.3,1.97-1.95,3.27-1.45l51.83,20.07c1.3.5,1.95,1.97,1.44,3.27l-.31.8c-.5,1.3-1.97,1.95-3.27,1.45Z"/>
          <g>
            <rect class="cls-6" x="583.65" y="265.79" width="4.41" height="34.14" transform="translate(141.6 -192.4) rotate(21.16)"/>
            <rect class="cls-6" x="592.54" y="269.24" width="4.41" height="34.14" transform="translate(143.56 -195.49) rotate(21.17)"/>
            <rect class="cls-6" x="602.74" y="273.19" width="4.41" height="34.14" transform="translate(145.66 -198.89) rotate(21.17)"/>
            <rect class="cls-6" x="612.62" y="277.01" width="4.41" height="34.14" transform="translate(147.7 -202.19) rotate(21.17)"/>
            <rect class="cls-6" x="621.67" y="280.52" width="4.41" height="34.14" transform="translate(149.58 -205.23) rotate(21.17)"/>
            <rect class="cls-6" x="628.92" y="283.33" width="4.41" height="34.14" transform="translate(151.08 -207.65) rotate(21.17)"/>
          </g>
          <path class="cls-9" d="m640.08,283.46l-49.46-19.15c-.66-.26-.99-1.01-.74-1.67h0c.26-.66,1.01-.99,1.67-.74l49.46,19.15c.66.26.99,1.01.74,1.67h0c-.26.66-1.01.99-1.67.74Z"/>
        </g>
        <path class="cls-18" d="m570.87,334.4c-2.64,5.37-6.09,10.56-11.09,13.84-2.26,1.48-4.78,2.54-6.93,4.18-2.14,1.64-3.94,4.08-3.84,6.77.16,4.41,5.49,7.15,9.79,6.2,4.31-.95,7.59-4.37,10.32-7.83,6.13-7.76,10.91-16.52,14.75-25.63,1.3-3.08,5.2-16.41-2.21-16.6-4.92-.12-8.97,15.36-10.8,19.07Z"/>
        <path class="cls-18" d="m409.62,760.24c-.44,3.81-.46,8.41,2.01,9.13,1.48.43,3.36-.86,4.75-2.67,1.38-1.8,2.38-4.06,3.34-6.25,3.53-8.07,12.43-24.5,2.37-24.96-9.07-.41-11.43,15.87-12.46,24.75Z"/>
        <polygon class="cls-13" points="468.49 462.87 409.17 582.64 560.14 641.11 596.81 510.75 468.49 462.87"/>
        <polygon class="cls-2" points="461.29 477.39 592.22 528.1 589.01 539.7 455.96 488.17 461.29 477.39"/>
        <polygon class="cls-2" points="420.97 558.8 567.54 615.56 562.93 631.21 413.89 573.49 420.97 558.8"/>
        <path class="cls-18" d="m538.75,379.92c-5.09-.9-8.61.06-17.5,19.95-8.89,19.89-131.84,269-134.65,274.74-4.03,8.2-5.39,21.71,2.64,26.09,7.5,4.09,15.24,5.85,24.68-13.21,9.45-19.06,120.29-272.85,124.03-281.26,3.74-8.41,9.63-24.74.8-26.3Z"/>
        <path class="cls-18" d="m351.88,737.88c-.26,3.88.05,8.61,3.02,9.52,1.78.55,3.91-.65,5.42-2.4,1.51-1.76,2.52-4,3.51-6.19,3.61-8.04,12.96-24.29,1.04-25.47-10.75-1.06-12.39,15.5-12.99,24.55Z"/>
      </g>
      <path class="cls-8" d="m2.89,737.48c-8.4,81.07,3.09,162.74,14.56,243.43,2.65,18.66,5.93,38.65,19.03,52.19,17.17,17.75,44.93,18.43,69.62,17.91,178.28-3.71,356.56-7.41,534.85-11.12,16.54-.34,36.85-3.21,42.63-18.71,4.43-11.88-2.5-24.61-8.06-36-9.46-19.41-15.45-40.51-17.58-61.99-4.19-42.13,6.31-84.12,11.86-126.1,7.38-55.83,5.99-112.81-4.11-168.21-13.73-75.34-43.54-149.23-38.31-225.63-28.07,14.93-59.59,22.01-90.91,27.45-93.76,16.29-189.84,19.25-284.43,8.77-32.18-3.57-64.55-8.78-94.43-21.26-16-6.68-31.34-15.54-44.53-26.86-11.34-9.72-20.4-30.15-32.99-13.76-7.73,10.06-5.21,46.76-7.52,60.13-3.39,19.68-7.77,39.18-12.58,58.55-19.89,80.14-48.56,158.6-57.12,241.18Z"/>
      <path class="cls-20" d="m675.52,985.19c-9.46-19.41-15.45-40.51-17.58-61.99-4.19-42.13,6.31-84.12,11.86-126.1,7.38-55.83,5.99-112.81-4.11-168.21-13.73-75.34-43.54-149.23-38.31-225.63-23.63,12.56-49.7,19.57-76.04,24.72,6.86,56.42,26.14,111.99,36.41,168.37,10.1,55.4,11.49,112.38,4.11,168.21-5.55,41.97-16.04,83.97-11.86,126.1,2.14,21.49,8.12,42.58,17.58,61.99,5.56,11.39,12.48,24.12,8.06,36-5.78,15.5-26.09,18.36-42.63,18.71-178.28,3.71-356.56,7.41-534.85,11.12-.49,0-.99.02-1.49.03,2.47,5.35,5.64,10.29,9.8,14.59,17.17,17.75,44.93,18.43,69.62,17.91,178.28-3.71,356.56-7.41,534.85-11.12,16.54-.34,36.85-3.21,42.63-18.71,4.43-11.88-2.5-24.61-8.06-36Z"/>
      <path class="cls-26" d="m657.87,922.76c-1.05-10.38-1.2-20.76-.75-31.13-1,.04-1.99.1-2.99.19-10.71.99-20.89,5.01-31.45,6.99-16.31,3.06-33.08,1.21-49.63.03-130.01-9.21-258.89,24.21-388.77,35.17-36.27,3.06-73.23,4-109.26-2-20.75-3.45-44.23-14.9-66.21-13.5,2.66,21,5.66,41.97,8.66,62.87,2.68,18.65,5.98,38.64,19.11,52.16,17.2,17.73,44.96,18.36,69.65,17.82,178.28-3.96,356.55-7.92,534.83-11.88,16.54-.37,36.85-3.26,42.6-18.77,4.41-11.88-2.54-24.6-8.11-35.99-9.49-19.39-15.51-40.48-17.67-61.97Z"/>
      <path class="cls-16" d="m675.52,985.37c-8.49-17.41-14.17-36.19-16.79-55.38-.33-2.34-.62-4.69-.86-7.05-1.05-10.38-1.2-20.76-.75-31.13-1,.04-1.99.09-2.99.19-10.71.99-20.89,5.01-31.45,6.99-13.67,2.56-27.65,1.68-41.57.63,2.74,18.44,8.31,36.46,16.49,53.22,5.56,11.39,12.48,24.12,8.06,36-5.78,15.5-26.09,18.36-42.63,18.71-178.28,3.71-356.56,7.41-534.85,11.12-.49,0-.99.02-1.49.03,2.47,5.35,5.64,10.29,9.8,14.59,17.17,17.75,44.93,18.43,69.62,17.91,80.82-1.68,161.63-3.36,242.45-5.04,97.5-2.17,195-4.33,292.49-6.5,16.54-.37,36.85-3.26,42.6-18.77.54-1.45.91-2.92,1.13-4.4,1.37-10.43-4.45-21.28-9.26-31.12Z"/>
      <path class="cls-20" d="m201.4,662.13c13.2,26.86,18.06,56.54,23.17,85.73,5.11,29.18,10.81,58.85,25.43,85.04,14.62,26.2,39.77,48.84,70.76,54.13,17.98,3.07,36.42.18,54.57-1.87,23.04-2.6,46.24-3.85,69.45-3.72,22.64.12,49.04,0,62.86-16.85,7.77-9.48,9.38-22.09,10.08-34.04,1.25-21.15.57-42.41-2.04-63.45-8.83,6.6-17.65,13.2-26.48,19.8-1.77,1.32-3.57,2.68-4.79,4.46-1.74,2.53-2.13,5.64-2.45,8.64-1.6,15.02-2.8,31.22-13.07,42.83-9.18,10.38-23.79,14.86-37.82,17.8-32.27,6.77-65.85,7.94-98.56,3.45-12.82-1.76-25.76-4.47-36.91-10.66-20.13-11.16-31.9-32.32-37.15-53.71-5.26-21.39-5.01-43.57-6.93-65.45-.94-10.69-2.59-21.82-9.11-30.63-6.52-8.81-19.34-14.4-29.74-9.96l-11.26-31.55Z"/>
      <path class="cls-20" d="m233.03,601.49c2.63-18.49,6.22-36.93,6.53-55.6.62-37.52-12.01-73.85-24.47-109.25,8.21.22,17.08.68,23.45,5.86,7.17,5.82,9.04,15.81,10.45,24.93,9.58,62.31,19.08,126.73,2.99,187.68-6.14,23.26-15.99,47.43-9.32,70.55-2.58-8.94-13.02-17.92-16.42-27.65-3.23-9.24-4.49-17.76-2.44-27.28,4.91-22.89,5.93-45.95,9.24-69.24Z"/>
      <path class="cls-20" d="m491.91,625.82c26.97,63.48,33.22,135.56,17.59,202.74-.41,1.76-.9,3.63-2.22,4.87-3.02,2.82-7.98.59-10.95-2.28-12.19-11.79-13.16-30.74-12.67-47.69.55-18.82,1.92-37.62,4.11-56.32,1.9-16.21,4.4-32.68,1.46-48.72-2.25-12.28-7.6-23.74-11.75-35.51-10.86-30.83-13.5-63.86-16.04-96.45-.39-5.03-.27-10.02,4.01-12.73,6.85,9.62,3.18,28.96,6.11,40.61,4.51,17.94,13.17,34.56,20.36,51.5Z"/>
      <path class="cls-26" d="m248.78,764.12c12.27,16.68,26.94,31.84,44.53,42.77,15.55,9.66,33.05,15.81,50.77,20.42,26.7,6.94,54.76,10.51,81.9,5.59,27.14-4.93,53.35-19.14,68.68-42.07,19.35-28.95,18.86-66.99,11.08-100.93-7.79-33.93-22.06-66.23-28.28-100.48-9.09-50.01-.59-101.13,9.69-151.14-11.48,1.41-22.99,2.63-34.51,3.65-14.78,63.83-13.52,131.31,3.69,194.53,8.03,29.52,19.49,58.22,24.09,88.47,1.86,12.26,2.5,25.23-2.38,36.63-7.64,17.85-26.83,27.73-45.36,33.55-27.6,8.67-57.43,11.51-85.61,4.98-28.18-6.52-54.53-22.94-70.27-47.21-7.83-12.08-12.9-25.7-19.23-38.63-5.65-11.54-12.33-22.56-17.69-34.24-8.91-19.4-14.07-40.34-17.28-61.45-9.75-64.17,2.28-120.32,20.53-179.86-9.67-1.18-19.33-2.55-28.92-4.27-5.58,14.85-7.29,34.9-9.15,45.38-6.77,38.07-10.93,76.75-9.62,115.46,2.01,59.89,17.82,120.59,53.34,168.85Z"/>
      <path class="cls-17" d="m90.88,524.51c.29,23.41-6.06,46.6-16.2,67.7-10.84,22.55-26.15,43.45-31.24,67.94-5.09,24.49,4.64,54.93,28.68,61.86,16.84,4.85,35.54-3.88,46.12-17.85,10.58-13.97,14.21-32.11,14.42-49.63.17-14-1.6-28.24,1.74-41.84,3.71-15.12,13.37-27.96,20.64-41.73,19.05-36.1,22.71-92.7-14.67-119.41-13.96-9.98-29.72-10.31-41.21,3.44-16.1,19.27-8.56,46.86-8.28,69.53Z"/>
      <path class="cls-17" d="m35.43,756.56c-5.88,7.59-5.82,18.06-5.26,27.64,2.69,45.89,10.88,91.48,24.66,135.34,4.06,12.93,8.74,25.96,17.11,36.62,8.37,10.66,21.08,18.72,34.63,18.33,1.9-.05,3.98-.36,5.23-1.79,1.22-1.39,1.29-3.42,1.25-5.28-.45-18.72-5.75-37.1-5.8-55.83-.06-20.8,6.34-40.99,11.36-61.18,5.02-20.19,8.67-41.56,3.17-61.62-8.03-29.3-60.8-65.21-86.34-32.25Z"/>
      <path class="cls-20" d="m544.18,830.94c-3.78,4.98-7.79,10.01-9.61,15.99-1.83,5.98-.95,13.27,3.85,17.27,2.7,2.25,6.22,3.18,9.63,4.06,12.71,3.26,25.43,6.52,38.14,9.78,4.35,1.11,9.05,2.21,13.23.57,2.4-.94,4.37-2.7,6.19-4.52,19.66-19.72,25.82-49.34,25.76-77.19-.03-13.94,7.6-97.53-21.68-76.03-10.2,7.49-29.9,51.67-35.78,63.02-8.55,16.49-18.5,32.26-29.73,47.06Z"/>
      <g>
        <path class="cls-12" d="m323.29,265.42c1.27,1.03,2.47,2.25,3.61,3.65,1.14,1.4,2.2,2.77,3.2,4.1.33-.38.72-.73,1.16-1.05.44-.32.88-.58,1.33-.76.45-.19.9-.28,1.33-.27.44,0,.83.15,1.18.43.14.11.29.28.45.51.16.23.3.49.41.77.11.28.16.57.16.87,0,.3-.1.56-.28.79l-2.47,3.04c-.23.29-.27.59-.1.89.16.31.34.59.54.85.72.91,1.33,1.71,1.83,2.41.5.7.93,1.29,1.28,1.77.35.48.63.87.86,1.17.22.29.42.51.59.64.2.16.39.31.59.44.19.13.45.33.77.59l.23.18c.12.1.27.24.45.42.18.18.4.48.66.9.21.32.35.71.41,1.16.06.45-.1.91-.48,1.38-.33.41-.7.69-1.1.84-.4.15-.81.21-1.23.17-.42-.04-.84-.15-1.26-.34-.42-.19-.81-.43-1.15-.71-.38-.31-.69-.62-.93-.94l-5.01-6.81c-.53.93-.99,1.76-1.38,2.49-.4.73-.79,1.47-1.18,2.2-.43.81-.79,1.51-1.08,2.12-.29.6-.54,1.12-.75,1.55-.21.43-.39.79-.54,1.08-.15.29-.29.52-.43.69-.2.24-.42.47-.65.69-.24.22-.48.39-.73.5-.24.12-.5.17-.76.15-.26-.01-.53-.13-.81-.35-.36-.29-.63-.63-.79-1-.16-.37-.25-.75-.27-1.15-.02-.39.02-.79.13-1.18.1-.39.24-.76.42-1.09.15-.28.34-.65.56-1.11.22-.46.47-.96.74-1.51.27-.55.55-1.12.83-1.72.29-.6.56-1.18.82-1.75.38-.84.71-1.56.99-2.15.28-.59.53-1.08.75-1.48.22-.4.41-.72.55-.96.15-.24.28-.43.39-.57-.63-.99-1.27-1.92-1.93-2.81-.66-.89-1.29-1.7-1.89-2.42-.6-.73-1.16-1.35-1.67-1.88-.51-.53-.93-.92-1.24-1.18-.41-.33-.83-.61-1.26-.83-.43-.23-.86-.36-1.28-.4-.42-.04-.83.03-1.25.21-.41.18-.81.51-1.19.98-.65.8-1.07,1.76-1.26,2.89-.19,1.13-.23,2.32-.13,3.57.1,1.25.3,2.51.59,3.79.29,1.28.59,2.48.88,3.59.12.4.07.75-.16,1.04-.07.09-.18.19-.31.29-.13.1-.29.19-.46.25-.17.06-.35.08-.54.07-.19-.02-.37-.09-.53-.23-.12-.1-.21-.18-.25-.25-.74-1-1.38-2.14-1.91-3.41-.53-1.27-1.06-2.56-1.59-3.87-.19-.45-.32-.95-.39-1.51-.08-.55-.12-1.12-.14-1.71-.01-.59,0-1.18.04-1.77.04-.59.09-1.14.15-1.65.1-.87.36-1.7.78-2.49.42-.79.88-1.51,1.4-2.14.8-.98,1.68-1.71,2.66-2.19.98-.48,1.98-.73,3.02-.75,1.04-.02,2.07.16,3.11.55s2.03.96,2.97,1.73Z"/>
        <path class="cls-12" d="m307.97,287.77c.65.53,1.06,1.15,1.23,1.87.17.72.1,1.42-.22,2.12.2.44.44,1.06.72,1.87.28.81.55,1.74.8,2.79.25,1.05.44,2.18.58,3.39.14,1.2.16,2.43.07,3.67-.09,1.24-.33,2.46-.73,3.66-.4,1.2-1.01,2.31-1.85,3.34-.71.88-1.44,1.56-2.18,2.04-.74.48-1.47.78-2.19.89-.72.12-1.43.07-2.12-.14-.69-.21-1.34-.56-1.95-1.05-.52-.42-.95-.88-1.31-1.4-.68-.9-1.1-1.89-1.27-2.99-.17-1.09-.18-2.22-.02-3.38.16-1.17.45-2.34.87-3.51.43-1.17.9-2.3,1.43-3.39.53-1.09,1.08-2.1,1.66-3.04.58-.94,1.08-1.74,1.53-2.41-.16-.36-.41-.75-.75-1.19-.34-.44-.7-.81-1.1-1.13-.88-.71-1.84-.92-2.89-.62-1.05.3-2.07,1.07-3.07,2.29-.58.71-1.05,1.46-1.42,2.24-.37.78-.66,1.56-.89,2.35-.22.78-.4,1.55-.52,2.31-.12.75-.21,1.46-.27,2.12-.08.84-.19,1.61-.34,2.3-.15.7-.38,1.23-.68,1.61-.31.38-.6.54-.87.5-.27-.05-.52-.16-.73-.33-.12-.1-.23-.2-.34-.3-.11-.1-.19-.19-.25-.27-.33-.39-.6-.86-.81-1.41-.21-.54-.32-1.11-.32-1.69.04-2.58.46-4.92,1.28-7,.81-2.09,1.98-4.07,3.51-5.94.29-.36.66-.77,1.11-1.23.44-.46.95-.89,1.52-1.31.57-.42,1.19-.78,1.86-1.09.67-.31,1.39-.49,2.14-.54.75-.06,1.53.04,2.36.29.82.25,1.67.74,2.55,1.45.71.58,1.43,1.32,2.14,2.23.19-.17.44-.28.76-.31.31-.03.64.09.97.36Zm-5.24,19.31c.05.09.11.16.17.21.06.05.13.1.2.17.41.33.84.43,1.29.29.45-.14.85-.42,1.19-.84.54-.67.9-1.46,1.07-2.39.17-.93.23-1.88.17-2.87-.06-.99-.21-1.95-.46-2.87-.24-.93-.51-1.71-.79-2.34-.79,1.16-1.46,2.28-1.99,3.35-.53,1.07-.92,2.07-1.15,3-.24.92-.33,1.75-.28,2.48.05.73.24,1.33.58,1.81Z"/>
        <path class="cls-12" d="m272.34,315.77c.44.36.92.84,1.45,1.44.53.6,1.24,1.27,2.15,2.01.04-.79.06-1.7.05-2.71,0-1.01.02-2.03.1-3.04.07-1.02.22-1.98.43-2.87.21-.9.54-1.62,1-2.18.37-.45.79-.83,1.25-1.13.47-.3.93-.5,1.39-.6,1.29-.29,2.39-.35,3.32-.19.92.16,1.81.58,2.66,1.27.38.31.74.66,1.1,1.06.35.4.74.88,1.16,1.45,1.92,2.51,3.34,5.3,4.23,8.35.9,3.05,1.23,6.19.98,9.43-.09,1.26-.38,2.35-.87,3.28-.49.93-1.06,1.79-1.7,2.58-.28.35-.62.72-1.02,1.11-.39.39-.76.75-1.08,1.06-.21.41-.38.74-.53.98-.15.24-.32.49-.52.73-.37.45-.74.78-1.1.99-.37.2-.73.31-1.08.33-.35.02-.69-.04-1.02-.17-.33-.13-.64-.31-.93-.55-.39-.32-.72-.68-.98-1.09-.26-.41-.52-.82-.78-1.24l-9.53-12.7c-.6-.59-1.16-1.13-1.66-1.62-.51-.49-.94-.99-1.3-1.51-.1-.16-.22-.35-.37-.58-.15-.23-.26-.5-.32-.81-.07-.31-.08-.62-.03-.96.05-.34.22-.69.51-1.05.38-.47.72-.82,1-1.05.29-.23.55-.38.79-.43.24-.06.45-.05.65.04.2.08.4.21.61.38Zm12.97-1.97c-.16-.23-.41-.54-.75-.93-.34-.39-.71-.74-1.1-1.06-.41-.33-.82-.57-1.25-.71-.42-.14-.8-.01-1.13.4-.52.64-.86,1.34-1.03,2.12-.17.78-.25,1.57-.25,2.37,0,1.08.06,2.22.17,3.43.11,1.21.29,2.4.53,3.59.24,1.19.56,2.32.95,3.4.39,1.08.88,2.03,1.46,2.86.34.48.77.99,1.27,1.54.51.55.99,1.01,1.44,1.38.2.16.43.27.69.33.26.06.5-.03.71-.29.6-.74,1.06-1.6,1.38-2.58.32-.98.52-2.02.6-3.11.08-1.09.05-2.21-.1-3.38-.15-1.16-.39-2.3-.72-3.43-.33-1.12-.74-2.19-1.24-3.21-.49-1.02-1.04-1.93-1.64-2.74Z"/>
      </g>
      <path class="cls-30" d="m244.34,319.47c6.69-7.89,12.04-17.41,12.7-27.74.32-5.01-5.42-29.77-14.04-23.33-3.77,2.81-5.11,11.3-5.81,15.61-.93,5.68-.91,11.51.07,17.18,1.12,6.48,3.49,12.76,7.09,18.28Z"/>
      <path class="cls-30" d="m255.77,276.44c5.79,5.59,13.03,9.5,20.59,12.24.78-8.55-2.22-17.38-8.04-23.69-2.79-3.03-6.22-5.45-9.97-7.14-2.44-1.1-9.54-4.18-12.13-2.52-5.42,3.48,6.72,18.36,9.55,21.1Z"/>
    </g>
  </g>
</svg>