<?xml version="1.0" encoding="UTF-8"?>
<svg id="Calque_2" data-name="Calque 2" xmlns="http://www.w3.org/2000/svg" viewBox="0 0 685.05 1051.49">
  <defs>
    <style>
      .cls-1 {
        fill: #c9c0b1;
      }

      .cls-1, .cls-2 {
        opacity: .37;
      }

      .cls-3 {
        fill: #568e4c;
      }

      .cls-4 {
        fill: #823e05;
      }

      .cls-5, .cls-6, .cls-7, .cls-8 {
        fill: #fff;
      }

      .cls-9 {
        fill: #5a75ab;
      }

      .cls-10 {
        fill: #d34f47;
      }

      .cls-11 {
        fill: #e1a42b;
      }

      .cls-12 {
        fill: #88b5d4;
      }

      .cls-13 {
        fill: #223465;
      }

      .cls-6 {
        opacity: .27;
      }

      .cls-6, .cls-7, .cls-8 {
        isolation: isolate;
      }

      .cls-14 {
        fill: #e5ca30;
      }

      .cls-15 {
        fill: #435ca7;
      }

      .cls-16 {
        fill: #9ed2f2;
      }

      .cls-17 {
        fill: #60453f;
      }

      .cls-18 {
        fill: #94756d;
      }

      .cls-19 {
        fill: #324496;
      }

      .cls-20 {
        opacity: .27;
      }

      .cls-20, .cls-21 {
        fill: #06593b;
      }

      .cls-22 {
        fill: #72ba65;
      }

      .cls-23 {
        fill: #735b53;
      }

      .cls-7 {
        opacity: .37;
      }

      .cls-24 {
        fill: #473834;
      }

      .cls-25 {
        fill: #faea3f;
      }

      .cls-26 {
        fill: #ae3f3c;
      }

      .cls-27 {
        fill: #ed9254;
      }

      .cls-28 {
        fill: #d8874e;
      }

      .cls-29 {
        fill: #f6a03a;
      }

      .cls-30 {
        fill: #b87446;
      }

      .cls-31 {
        fill: #456c4a;
      }

      .cls-32 {
        fill: #fccc86;
      }

      .cls-33 {
        fill: #856962;
      }

      .cls-8 {
        opacity: .58;
      }
    </style>
  </defs>
  <g id="panier_alimentaire" data-name="panier alimentaire">
    <g id="tea">
      <polygon class="cls-24" points="368.62 256.34 438.72 312.47 411.35 395.86 313.06 384.47 368.62 256.34"/>
      <path class="cls-23" d="m194.48,344.52c-2.72-7.06,57.5-142.3,57.5-142.3l116.64,54.12-52.25,140.85-121.89-52.67Z"/>
      <g>
        <path class="cls-18" d="m323.29,265.43c1.27,1.03,2.47,2.25,3.61,3.65s2.2,2.77,3.2,4.1c.33-.38.72-.73,1.16-1.05.44-.32.88-.58,1.33-.76.45-.19.9-.28,1.33-.27.44,0,.83.15,1.18.43.14.11.29.28.45.51.16.23.3.49.41.77s.16.57.16.87-.1.56-.28.79l-2.47,3.04c-.23.29-.27.59-.1.89.16.31.34.59.54.85.72.91,1.33,1.71,1.83,2.41s.93,1.29,1.28,1.77c.35.48.63.87.86,1.17.22.29.42.51.59.64.2.16.39.31.59.44.19.13.45.33.77.59l.23.18c.12.1.27.24.45.42.18.18.4.48.66.9.21.32.35.71.41,1.16s-.1.91-.48,1.38c-.33.41-.7.69-1.1.84s-.81.21-1.23.17c-.42-.04-.84-.15-1.26-.34s-.81-.43-1.15-.71c-.38-.31-.69-.62-.93-.94l-5.01-6.81c-.53.93-.99,1.76-1.38,2.49-.4.73-.79,1.47-1.18,2.2-.43.81-.79,1.51-1.08,2.12-.29.6-.54,1.12-.75,1.55s-.39.79-.54,1.08c-.15.29-.29.52-.43.69-.2.24-.42.47-.65.69-.24.22-.48.39-.73.5-.24.12-.5.17-.76.15-.26-.01-.53-.13-.81-.35-.36-.29-.63-.63-.79-1s-.25-.75-.27-1.15c-.02-.39.02-.79.13-1.18.1-.39.24-.76.42-1.09.15-.28.34-.65.56-1.11.22-.46.47-.96.74-1.51.27-.55.55-1.12.83-1.72.29-.6.56-1.18.82-1.75.38-.84.71-1.56.99-2.15s.53-1.08.75-1.48c.22-.4.41-.72.55-.96.15-.24.28-.43.39-.57-.63-.99-1.27-1.92-1.93-2.81-.66-.89-1.29-1.7-1.89-2.42-.6-.73-1.16-1.35-1.67-1.88s-.93-.92-1.24-1.18c-.41-.33-.83-.61-1.26-.83-.43-.23-.86-.36-1.28-.4s-.83.03-1.25.21c-.41.18-.81.51-1.19.98-.65.8-1.07,1.76-1.26,2.89-.19,1.13-.23,2.32-.13,3.57s.3,2.51.59,3.79c.29,1.28.59,2.48.88,3.59.12.4.07.75-.16,1.04-.07.09-.18.19-.31.29s-.29.19-.46.25c-.17.06-.35.08-.54.07-.19-.02-.37-.09-.53-.23-.12-.1-.21-.18-.25-.25-.74-1-1.38-2.14-1.91-3.41s-1.06-2.56-1.59-3.87c-.19-.45-.32-.95-.39-1.51-.08-.55-.12-1.12-.14-1.71-.01-.59,0-1.18.04-1.77s.09-1.14.15-1.65c.1-.87.36-1.7.78-2.49.42-.79.88-1.51,1.4-2.14.8-.98,1.68-1.71,2.66-2.19s1.98-.73,3.02-.75,2.07.16,3.11.55,2.03.96,2.97,1.73h-.06Z"/>
        <path class="cls-18" d="m307.97,287.78c.65.53,1.06,1.15,1.23,1.87.17.72.1,1.42-.22,2.12.2.44.44,1.06.72,1.87s.55,1.74.8,2.79c.25,1.05.44,2.18.58,3.39.14,1.2.16,2.43.07,3.67-.09,1.24-.33,2.46-.73,3.66s-1.01,2.31-1.85,3.34c-.71.88-1.44,1.56-2.18,2.04-.74.48-1.47.78-2.19.89-.72.12-1.43.07-2.12-.14-.69-.21-1.34-.56-1.95-1.05-.52-.42-.95-.88-1.31-1.4-.68-.9-1.1-1.89-1.27-2.99-.17-1.09-.18-2.22-.02-3.38.16-1.17.45-2.34.87-3.51.43-1.17.9-2.3,1.43-3.39.53-1.09,1.08-2.1,1.66-3.04.58-.94,1.08-1.74,1.53-2.41-.16-.36-.41-.75-.75-1.19s-.7-.81-1.1-1.13c-.88-.71-1.84-.92-2.89-.62-1.05.3-2.07,1.07-3.07,2.29-.58.71-1.05,1.46-1.42,2.24s-.66,1.56-.89,2.35c-.22.78-.4,1.55-.52,2.31-.12.75-.21,1.46-.27,2.12-.08.84-.19,1.61-.34,2.3-.15.7-.38,1.23-.68,1.61-.31.38-.6.54-.87.5-.27-.05-.52-.16-.73-.33-.12-.1-.23-.2-.34-.3-.11-.1-.19-.19-.25-.27-.33-.39-.6-.86-.81-1.41-.21-.54-.32-1.11-.32-1.69.04-2.58.46-4.92,1.28-7,.81-2.09,1.98-4.07,3.51-5.94.29-.36.66-.77,1.11-1.23.44-.46.95-.89,1.52-1.31.57-.42,1.19-.78,1.86-1.09s1.39-.49,2.14-.54c.75-.06,1.53.04,2.36.29.82.25,1.67.74,2.55,1.45.71.58,1.43,1.32,2.14,2.23.19-.17.44-.28.76-.31.31-.03.64.09.97.36v-.02Zm-5.24,19.31c.05.09.11.16.17.21s.13.1.2.17c.41.33.84.43,1.29.29.45-.14.85-.42,1.19-.84.54-.67.9-1.46,1.07-2.39.17-.93.23-1.88.17-2.87-.06-.99-.21-1.95-.46-2.87-.24-.93-.51-1.71-.79-2.34-.79,1.16-1.46,2.28-1.99,3.35s-.92,2.07-1.15,3c-.24.92-.33,1.75-.28,2.48.05.73.24,1.33.58,1.81h0Z"/>
        <path class="cls-18" d="m272.34,315.78c.44.36.92.84,1.45,1.44.53.6,1.24,1.27,2.15,2.01.04-.79.06-1.7.05-2.71,0-1.01.02-2.03.1-3.04.07-1.02.22-1.98.43-2.87.21-.9.54-1.62,1-2.18.37-.45.79-.83,1.25-1.13.47-.3.93-.5,1.39-.6,1.29-.29,2.39-.35,3.32-.19.92.16,1.81.58,2.66,1.27.38.31.74.66,1.1,1.06.35.4.74.88,1.16,1.45,1.92,2.51,3.34,5.3,4.23,8.35.9,3.05,1.23,6.19.98,9.43-.09,1.26-.38,2.35-.87,3.28s-1.06,1.79-1.7,2.58c-.28.35-.62.72-1.02,1.11-.39.39-.76.75-1.08,1.06-.21.41-.38.74-.53.98-.15.24-.32.49-.52.73-.37.45-.74.78-1.1.99-.37.2-.73.31-1.08.33s-.69-.04-1.02-.17c-.33-.13-.64-.31-.93-.55-.39-.32-.72-.68-.98-1.09s-.52-.82-.78-1.24l-9.53-12.7c-.6-.59-1.16-1.13-1.66-1.62-.51-.49-.94-.99-1.3-1.51-.1-.16-.22-.35-.37-.58-.15-.23-.26-.5-.32-.81-.07-.31-.08-.62-.03-.96.05-.34.22-.69.51-1.05.38-.47.72-.82,1-1.05.29-.23.55-.38.79-.43.24-.06.45-.05.65.04.2.08.4.21.61.38h-.01Zm12.97-1.97c-.16-.23-.41-.54-.75-.93-.34-.39-.71-.74-1.1-1.06-.41-.33-.82-.57-1.25-.71-.42-.14-.8-.01-1.13.4-.52.64-.86,1.34-1.03,2.12s-.25,1.57-.25,2.37c0,1.08.06,2.22.17,3.43s.29,2.4.53,3.59.56,2.32.95,3.4c.39,1.08.88,2.03,1.46,2.86.34.48.77.99,1.27,1.54.51.55.99,1.01,1.44,1.38.2.16.43.27.69.33.26.06.5-.03.71-.29.6-.74,1.06-1.6,1.38-2.58.32-.98.52-2.02.6-3.11s.05-2.21-.1-3.38c-.15-1.16-.39-2.3-.72-3.43-.33-1.12-.74-2.19-1.24-3.21-.49-1.02-1.04-1.93-1.64-2.74v.02Z"/>
      </g>
      <path class="cls-33" d="m244.34,319.48c6.69-7.89,12.04-17.41,12.7-27.74.32-5.01-5.42-29.77-14.04-23.33-3.77,2.81-5.11,11.3-5.81,15.61-.93,5.68-.91,11.51.07,17.18,1.12,6.48,3.49,12.76,7.09,18.28h0Z"/>
      <path class="cls-33" d="m255.77,276.45c5.79,5.59,13.03,9.5,20.59,12.24.78-8.55-2.22-17.38-8.04-23.69-2.79-3.03-6.22-5.45-9.97-7.14-2.44-1.1-9.54-4.18-12.13-2.52-5.42,3.48,6.72,18.36,9.55,21.1h0Z"/>
    </g>
    <g id="banane">
      <g>
        <path class="cls-14" d="m297.32,453.7c1.12-1.02,71.28-48.7,94.96-82.54,38.29-54.72,46.87-142.01,46.87-142.01l18-8s41.69,41.21,32.95,99.09c-8.74,57.88-26.12,86.05-74.65,122.8-52.98,40.12-113.04,28.58-113.04,28.58l-5.1-17.91h.01Z"/>
        <path class="cls-11" d="m456.37,221.87c11.65,16.75,27.42,47.42,21.72,85.19-8.74,57.88-26.12,86.04-74.65,122.8-40.78,30.88-85.75,31.15-104.3,29.64l3.52,12.38s60.06,11.54,113.04-28.58c48.53-36.75,65.92-64.91,74.65-122.8,8.74-57.88-32.95-99.09-32.95-99.09l-1.03.46Z"/>
        <polygon class="cls-14" points="439.16 229.15 425.72 196.43 436.55 186.56 457.16 221.15 439.16 229.15"/>
        <path class="cls-14" d="m415.9,186.97c-.52,6.74,3.48,15.25,3.48,15.25l27.68-13.88-7.91-13.17-23.24,11.8h-.01Z"/>
        <polygon class="cls-17" points="302.42 471.61 297.32 453.7 313.06 450.63 309.87 466.34 302.42 471.61"/>
        <path class="cls-25" d="m421.75,193.97c1.39-.03,2.71-.55,4-1.06,3.05-1.21,6.11-2.43,9.1-3.8,1.96-.9,4.23-2.48,3.83-4.61-.26-1.4-1.7-2.33-3.11-2.47s-2.81.34-4.14.84c-3.34,1.26-9.33,2.78-11.96,5.19-2.48,2.27-1.77,6,2.28,5.91Z"/>
        <path class="cls-25" d="m324.39,445.98c18.94-11.26,37.74-22.95,54.66-37.08,16.91-14.13,31.97-30.85,42.03-50.47.89-1.73,1.75-3.56,1.75-5.51s-1.13-4.03-3.02-4.49c-1.98-.49-3.9.88-5.39,2.26-5.43,5.05-9.42,11.42-13.69,17.49-17.62,25.01-40.71,45.54-64.89,64.03-3.17,2.43-6.76,4.6-9.78,7.18-1.02.87-1.89.99-2.44,2.39-.16.41-.26,4.81.78,4.19h-.01Z"/>
        <path class="cls-25" d="m425.03,336.75c1.81.24,3.6-.82,4.72-2.27,1.12-1.45,1.69-3.23,2.23-4.98,3.58-11.68,6.47-23.58,8.66-35.6.5-2.74.96-5.57.36-8.29-.16-.75-.42-1.5-.96-2.04-1.23-1.25-3.39-.84-4.82.17-2.89,2.04-3.97,5.75-4.86,9.17-3.17,12.19-6.34,24.38-9.52,36.57-.2.75-.39,1.55-.18,2.3.45,1.58,2.58,4.73,4.37,4.97Z"/>
        <path class="cls-11" d="m432.19,195.79s-1.26-3.96,6.78,7.43,13.6,18.62,13.6,18.62c0,0,.61-.81,5.04,3.1s5.8,3.94,5.8,3.94l-6.25-7.72-17.38-29.17-7.59,3.81h0Z"/>
        <polygon class="cls-11" points="447.05 188.34 442.15 187.75 434.85 177.35 439.15 175.17 447.05 188.34"/>
      </g>
      <g>
        <path class="cls-14" d="m156.06,413.82c1.49-.29,86.19-4.8,123.97-21.51,61.08-27.02,113.58-97.28,113.58-97.28l19.54,2.47s14.36,56.83-23.07,101.84c-37.42,45.01-66.87,60.12-127.42,66.46-66.09,6.92-111.52-34.02-111.52-34.02l4.91-17.97h.01Z"/>
        <path class="cls-11" d="m412.11,297.72c1.3,20.36-1.07,54.77-25.49,84.14-37.42,45.01-66.87,60.12-127.42,66.46-50.88,5.33-89.5-17.7-104.59-28.59l-3.39,12.41s45.43,40.95,111.52,34.02c60.54-6.34,89.99-21.45,127.42-66.46,37.42-45.01,23.07-101.84,23.07-101.84l-1.11-.14h-.01Z"/>
        <polygon class="cls-14" points="393.61 295.04 399.04 260.09 413.41 257.24 413.16 297.51 393.61 295.04"/>
        <path class="cls-14" d="m395.54,246.91c-3.94,5.5-4.91,14.85-4.91,14.85l30.87,2.44.04-15.36-26-1.92h0Z"/>
        <polygon class="cls-17" points="151.16 431.79 156.06 413.82 171.12 419.34 160.27 431.13 151.16 431.79"/>
        <path class="cls-25" d="m396.92,255.93c1.2.69,2.6.93,3.97,1.16,3.24.54,6.49,1.08,9.75,1.46,2.15.25,4.9.06,5.66-1.96.5-1.33-.25-2.87-1.39-3.72s-2.58-1.16-3.98-1.42c-3.51-.65-9.42-2.45-12.92-1.75-3.29.66-4.62,4.22-1.1,6.24h.01Z"/>
        <path class="cls-25" d="m183.22,421.22c22.04.16,44.17-.11,65.96-3.45,21.78-3.34,43.32-9.86,62.07-21.44,1.66-1.02,3.34-2.14,4.35-3.8,1.01-1.67,1.12-4.03-.26-5.41-1.44-1.44-3.79-1.27-5.78-.85-7.26,1.51-13.97,4.9-20.77,7.88-28.02,12.29-58.4,17.91-88.66,21.23-3.97.43-8.17.44-12.08,1.09-1.32.22-2.13-.13-3.33.78-.35.26-2.71,3.98-1.51,3.99v-.02Z"/>
        <path class="cls-25" d="m325.86,379.81c1.42,1.15,3.51,1.16,5.21.5,1.71-.66,3.12-1.89,4.48-3.11,9.11-8.15,17.74-16.83,25.83-25.99,1.84-2.09,3.7-4.27,4.6-6.91.25-.72.42-1.5.24-2.24-.41-1.7-2.47-2.48-4.22-2.35-3.53.25-6.37,2.87-8.91,5.34-9.02,8.79-18.04,17.58-27.06,26.37-.56.54-1.14,1.12-1.35,1.88-.43,1.59-.24,5.38,1.17,6.52h.01Z"/>
        <path class="cls-11" d="m404.91,262.89s.97-4.04,1.96,9.86c.98,13.9,2.01,22.97,2.01,22.97,0,0,.94-.38,2.71,5.26s2.93,6.37,2.93,6.37l-1.36-9.84.22-33.95-8.46-.67h-.01Z"/>
        <polygon class="cls-11" points="421.49 264.2 417.59 261.16 416.73 248.48 421.53 248.84 421.49 264.2"/>
      </g>
    </g>
    <g id="legume">
      <path class="cls-3" d="m534.92.01c9.2,1.39,18.54,1.9,27.84,1.52,6.64,63.61,13.27,127.23,19.91,190.84,1.29,12.37,2.44,25.54-3.23,36.6-5.67,11.06-20.99,18.06-30.99,10.67-8.55-6.32-8.79-18.79-8.21-29.41,1.8-33.16,8.1-64.74,6.53-97.83-.51-10.75-4.29-111.25-11.84-112.4h-.01Z"/>
      <path class="cls-22" d="m617.65,53.78c3.29-7.13,5.01-29.1,12.85-28.68,8.91.48,17.55,5.92,21.26,12.84-23.44,67.32-46.87,134.63-70.31,201.95-4.52,12.98-22.42,36.96-31.32,14.65-6.48-16.25,5.84-44.69,10.41-59.9,14.62-48.61,35.91-94.85,57.1-140.86h0Z"/>
      <path class="cls-3" d="m649.69,100.95c4.9,2.25,9.79,4.51,14.69,6.76-29.95,69.23-63.59,136.87-100.74,202.52-10.46,18.49-21.67,37.35-38.78,49.93-2.36,1.74-5.09,3.41-8,3.1-20.79-2.18,8.13-86.18,15.24-100.1,17.67-34.62,41.94-68.24,65.09-99.3,4.42-5.93,47.5-65.21,52.5-62.91h0Z"/>
      <path class="cls-22" d="m525.02,63.63c5.73-3.57,13.71-.42,17.71,5.02,4,5.44,5.03,12.44,5.93,19.13,2.87,21.16,5.75,42.35,6.98,63.67,2.75,47.73-2.8,95.5-8.33,142.99-2.57,22.09-5.04,56.3-24.3,71.32-21.03,16.4-20.21-9.13-18.07-23.25,8.86-58.4,15.91-116.64,18.68-175.71.83-17.7,1.36-35.41,1.58-53.13.07-5.84-3.7-47.83-.18-50.03h0Z"/>
      <path class="cls-3" d="m509.44,151.94c10.81,3.59,21.61,7.17,32.42,10.76,1.83,61.94-4.16,124.1-17.78,184.55,23.19-60.79,59.2-116.65,104.99-162.87,9.18,7.09,18.36,14.18,27.53,21.27-23.47,23.94-39.73,53.86-55.67,83.35-32.19,59.53-64.65,119.76-82.07,185.16-4.5,16.91-8.13,34.46-17.47,49.25-17.61,27.88-68.04,35.12-71.2-7.73-.96-13.08,8.73-25.91,13.26-37.6,7.71-19.92,12.87-41.18,18.46-61.78,23.49-86.51,39.43-175.08,47.53-264.36h0Z"/>
      <path class="cls-22" d="m554.91,261.99c21.32-26.37,45.76-50.2,72.66-70.84-35.73,36.86-72.43,75.22-90.08,123.42.26-9.56.78-20.24,3.06-29.56,2.12-8.66,8.87-16.23,14.36-23.02h0Z"/>
    </g>
    <g id="pomme2">
      <path class="cls-26" d="m399.18,388.86c9.81-6.31,16.65-3.47,29.74-10.3,1.55-.81,1.94,3.31,3.22,4.49,1.82,1.67-3.15,5.24-3.94,7.58-.79,2.34-2.46,4.26-4.13,6.08-9.17,9.92-23.29,24.33-37.31,26.38-3.5.51-25.55,5.43-24.09,1.11,4.14-12.31,19.61-15.75,22.51-18.7,6.3-6.44,3.92-10.15,14.01-16.64h-.01Z"/>
      <path class="cls-10" d="m400,411.53c-13.18,10.08-45.85,2.63-50.04,32.93-4.18,30.3,29.74,75.91,56.15,87.34,26.41,11.42,60.67-5.8,80.61-20.3,23.29-16.94,49.43-53.47,25.26-94.13-21.14-35.57-51.17-58.91-81.7-39.66-18.59,11.72-8.69,17.32-30.29,33.83h.01Z"/>
      <path class="cls-26" d="m450.42,370.84c14.31,7.74,27.43,22.71,38.23,40.88,24.17,40.66-1.97,77.19-25.26,94.13-15.3,11.13-39.04,23.86-61.19,24.02,1.32.71,2.63,1.36,3.92,1.92,26.41,11.42,60.67-5.8,80.61-20.3,23.29-16.94,49.43-53.47,25.26-94.13-16.46-27.69-38.3-47.96-61.57-46.51h0Z"/>
      <path class="cls-6" d="m368.34,452.84c-.65,7.6,1.5,15.3,5.39,21.86,2.27,3.82,5.26,7.41,9.3,9.28s9.26,1.64,12.47-1.43c.82-.79,1.5-1.76,1.77-2.87.37-1.56-.1-3.18-.57-4.72-2.2-7.21-4.41-14.79-2.93-22.19.7-3.53,2.23-6.87,2.81-10.42.58-3.55,0-7.63-2.78-9.93-4.28-3.55-12.28-1.5-16.3,1.53-5.54,4.19-8.61,12.21-9.18,18.89h.02Z"/>
      <path class="cls-6" d="m397.56,490.92c-2.69,1.87-3.09,6.07-1.23,8.76s5.46,3.85,8.7,3.35c1.71-.26,3.49-1.06,4.24-2.63.54-1.13.44-2.47.14-3.69-.55-2.25-1.8-4.38-3.7-5.72-1.9-1.33-4.48-1.77-6.61-.86l-1.54.78h0Z"/>
    </g>
    <g id="pain">
      <g>
        <path class="cls-27" d="m145.66,240.22l-.36-.73c-.25.26-1.51-.62-.56.32.3.14.61.28.91.41h.01Z"/>
        <path class="cls-27" d="m113.7,362.06c21.55,1.02,39.42-29.45,49.21-45.99,9.06-15.29,23.35-46.19,3.09-63.99-5.96-5.24-14.56-8.75-21.46-11.86l2.16,4.44c-5.51-9.14-18.92-23.7-27.52-21.98-9.04,1.81-21.24,3.47-29.46,7.48-30.59,14.91-39.5,31.81-38.21,62.83,1.72,41.23,35.07,67.8,62.18,69.08h0Z"/>
      </g>
      <path class="cls-28" d="m113.56,361.48c4.82.23,9.46-1.12,13.86-3.54-24.76-6.24-50.92-31.2-52.44-67.59-1.29-31.02,7.62-47.91,38.21-62.83,3.65-1.78,8.08-3.09,12.67-4.16-2.43-1.15-4.76-1.67-6.82-1.26-9.04,1.81-21.24,3.47-29.46,7.48-30.59,14.91-39.5,31.81-38.21,62.83,1.72,41.23,35.07,67.8,62.18,69.08h0Z"/>
      <path class="cls-30" d="m109.06,362.02c2.91.14,5.76-.31,8.53-1.21-26.21-3.71-56.21-29.6-57.84-68.66-1.29-31.02,7.62-47.91,38.21-62.83,6.09-2.97,14.36-4.64,21.92-6.05-1.89-.7-3.7-.96-5.33-.63-9.04,1.81-21.24,3.47-29.46,7.48-30.59,14.91-39.5,31.81-38.21,62.83,1.72,41.23,35.07,67.8,62.18,69.08h0Z"/>
      <g>
        <path class="cls-28" d="m208.37,355.8c-.05-.08-.11-.17-.16-.25.05.08.1.16.16.25Z"/>
        <path class="cls-28" d="m129.04,437.38c19.89.33,29.42-26.3,47.45-34.91,10.36-4.95,19.72-11.94,26.75-21.63,3.01-4.15,5.59-14.44,2.74-20.35l-7.23-3.77c-6.5-3.72-6.28,7.99-10.33.12,4.83-9.39,6.51-27.69,11.61-37.49,7.34-14.09,7.66-35.71,2.54-52.74-11.3-37.56-43.13-59.45-67.42-54.5-7.76,1.58-27.23,12.16-4.76,19.1,7.25,2.24,14.6,14.35,19.49,23.43,17.46,32.42-38.56,69.02-45.96,79.98-8.51,12.61-19.6,28.22-19.63,44.29-.05,19.55,17.25,57.98,44.76,58.44v.03Z"/>
        <path class="cls-28" d="m208.37,355.8c.22.34.42.69.6,1.06h.02c-.1-.33-.4-.72-.63-1.06h.01Z"/>
      </g>
      <path class="cls-30" d="m127.3,437.56c1.97.03,3.83-.2,5.62-.65-24.06-5.32-38.9-39.63-38.86-57.74.04-16.07,11.12-31.68,19.63-44.29,7.4-10.96,63.42-47.56,45.96-79.98-4.89-9.08-12.24-21.19-19.49-23.43-22.47-6.95-3-17.52,4.76-19.1.52-.11,1.04-.19,1.56-.28-4.49-.68-8.89-.62-13.07.23-7.76,1.58-27.23,12.16-4.76,19.1,7.25,2.24,14.6,14.35,19.49,23.44,17.46,32.42-38.56,69.02-45.96,79.98-8.51,12.61-19.6,28.22-19.63,44.29-.05,19.55,17.25,57.98,44.76,58.44h-.01Z"/>
      <path class="cls-30" d="m200.59,491.34c18.42,8.97,19.64,17.54,34.75,10.78l16.65-10.32c13.77-13.54,20.28-44.73,13.16-66.68-5.52-17.02-21.08-34.32-37.06-39.16-10.42-3.15-16.39,4.43-24.01,9.64-8.79,6.01-17.42,12.57-22.29,23.05-10.31,22.15-8.21,59.54,18.8,72.69Z"/>
      <path class="cls-27" d="m204.76,533.86c16.27-1.54,37.86-18.09,48.36-37.36,13.29-24.39-7.25,6.51-42.66-14.77-9.63-5.79-15.46-11.97-18.78-22.42-4.84-15.24,2.12-27.05,10.82-36.45,11.85-12.81,30.22-33.74,33.11-54.86,3.12-22.8-9.74-38.86-22.11-50.26-13.54-12.48-15.3,13.52-38.46,44.69-14.08,18.95-28.88,34.61-39.59,47.42-17.54,20.97-21.19,38.78-12.45,62.24,6.52,17.5,29.14,66.77,81.75,61.78h.01Z"/>
      <path class="cls-28" d="m191.24,534.7c-29.17-12.44-43.24-43.69-48.15-56.88-8.74-23.46-5.09-41.27,12.45-62.24,10.71-12.8,25.51-28.46,39.59-47.42,13.5-18.18,19.73-34.59,25.27-42.65-2.28-2.52-4.65-4.86-7-7.03-13.54-12.48-15.3,13.52-38.46,44.69-14.08,18.95-28.88,34.61-39.59,47.42-17.54,20.97-21.19,38.78-12.45,62.24,5.94,15.94,25.23,58.2,68.35,61.87h-.01Z"/>
      <path class="cls-30" d="m183.54,533.31c-34.29-9.86-50.33-45.26-55.64-59.54-8.74-23.46-5.09-41.27,12.45-62.24,10.71-12.8,25.51-28.46,39.59-47.42,18.18-24.47,23.18-45.75,31.03-47.73-11.58-7.69-14.41,17.09-36.23,46.47-14.08,18.95-28.88,34.61-39.59,47.42-17.54,20.96-21.19,38.78-12.45,62.24,5.58,14.98,22.96,53.23,60.84,60.81h0Z"/>
      <path class="cls-27" d="m122.72,400.37c1.94-.86,5.14-6.9,6.44-8.85,2.43-3.62,3.21-7.66,6.3-10.65,6.63-6.41,13.26-9.52,18.12-18.11,5.42-9.6,9.38-19.28,16.04-27.95,6.7-8.72,13.97-17.76,18.54-28.13,6.63-15.02,5.51-38.7-5.95-53.72l-4.68-7.87c-1.56-1.46-7.45-3.59-9.43-2.78-3.78,1.55-1.63,5.67-.74,9.06,2.07,7.91,4.38,16.15,3.87,24.01-.58,8.97-3.29,17.77-6.79,25.48-4.32,9.51-13.86,16.16-20.71,23.08-7.64,7.72-15.75,15.36-21.98,24.52-6.2,9.1-11.11,17.55-10.17,30.38.42,5.75,3.19,25.03,11.13,21.52h.01Z"/>
      <g>
        <path class="cls-28" d="m227.81,481.93c5.83,1.56,12.83,1.77,18.55,3.77,3.56,1.25,7.73-1.29,11.01-.36,3.83-4.51,5.57-11.16,8.14-16.78,4.89-10.68,8.56-22.73,5.92-35.53-1.91-9.25-4.44-19.66-11.16-26.87-4.81-5.15-11.16-8.76-17.12-11.39-8.16-3.6-14.2,1.54-18.84,8.99-4.97,7.99-7.63,13.73-12.64,21.74-5.74,9.17-12.63,14.24-9.18,28.02,3.58,14.31,13.67,25.28,25.32,28.4h0Z"/>
        <path class="cls-28" d="m258.14,485.58c-.26-.09-.51-.17-.77-.24-.17.2-.33.4-.51.58l1.28-.34Z"/>
      </g>
      <path class="cls-27" d="m248.48,478.14l2.83.97c5.51,2.92,14.41-7.92,16.66-13.54,2.86-7.14,5.07-17.23,4.81-25.88-.69-23-18.01-34.7-33.26-31.84-15.02,2.81-21.04,16.75-20.15,36.94,1.07,24.39,15.74,26.01,29.12,33.36h-.01Z"/>
      <path class="cls-32" d="m211.45,391.68c-2.12.98-3.03-.52-3.99-3.81-.97-3.29-1.63-6.47-.05-7.15,1.57-.68,3.6,3.15,4.28,5.13.68,1.97,1.7,4.93-.24,5.83Z"/>
      <path class="cls-32" d="m200.33,412.76c-2.44-.55-2.53-2.24-1.77-5.31s1.75-5.87,3.53-5.42c1.79.45,1.74,4.58,1.38,6.48-.36,1.9-.91,4.76-3.14,4.25Z"/>
      <path class="cls-32" d="m168.77,414.18c-.81-2.66.58-3.14,3.58-3.09,3,.05,5.89.4,6.44,2.36.55,1.95-2.98,2.89-4.78,2.97s-4.5.2-5.24-2.23h0Z"/>
      <path class="cls-32" d="m182.01,405.02c.72-2.43,2.22-1.87,4.89.15,2.66,2.01,5.06,4.17,4.5,5.94-.57,1.76-4.23.11-5.89-1.02-1.66-1.13-4.15-2.83-3.49-5.06h-.01Z"/>
      <path class="cls-32" d="m198.94,392.8c.73,2.67-.68,3.1-3.69,2.94-3.01-.16-5.9-.62-6.39-2.58s3.08-2.76,4.89-2.77c1.81-.01,4.53-.03,5.2,2.41h-.01Z"/>
      <path class="cls-32" d="m187.86,431.02c-1.5,1.86-2.81.77-4.79-2.05-1.98-2.83-3.66-5.68-2.53-7.01,1.13-1.33,4.22,1.57,5.5,3.23,1.27,1.65,3.19,4.13,1.82,5.83h0Z"/>
      <path class="cls-32" d="m186.32,267.68c-1.46,1.9-2.78.84-4.81-1.95s-3.75-5.61-2.65-6.97c1.1-1.36,4.24,1.48,5.54,3.11,1.3,1.63,3.25,4.07,1.92,5.81h0Z"/>
      <path class="cls-32" d="m184.49,293.24c-2.29.55-2.98-1.07-3.45-4.41s-.65-6.52,1.05-6.87c1.7-.35,3.16,3.7,3.54,5.73.38,2.02.96,5.05-1.14,5.55h0Z"/>
      <path class="cls-32" d="m157.97,308.67c-1.66-2.24-.65-3.33,1.94-4.62,2.59-1.28,5.19-2.22,6.37-.55s-1.49,4.15-3.01,5.02-3.79,2.19-5.3.15h0Z"/>
      <path class="cls-32" d="m165.97,293.82c-.28-2.7,1.22-2.82,4.24-2.03,3.01.79,5.86,1.83,6.02,3.81s-3.59,1.99-5.42,1.62c-1.83-.37-4.58-.93-4.84-3.39h0Z"/>
      <path class="cls-32" d="m168.64,323.14c2.44.59,2.5,2.27,1.7,5.33-.8,3.05-1.83,5.83-3.61,5.35-1.79-.48-1.68-4.6-1.29-6.49.39-1.89.97-4.73,3.2-4.19h0Z"/>
      <path class="cls-32" d="m147.51,327.78c-1.66-2.24-.65-3.33,1.93-4.62,2.58-1.29,5.18-2.24,6.37-.57,1.19,1.67-1.49,4.15-3,5.03s-3.78,2.2-5.3.16Z"/>
      <path class="cls-32" d="m161.25,344.67c2.44.25,2.7,1.94,2.28,5.14-.42,3.2-1.1,6.16-2.89,5.92-1.79-.23-2.17-4.41-2.01-6.38s.39-4.92,2.63-4.69h-.01Z"/>
      <path class="cls-32" d="m144.47,339.9c-.28-2.7,1.22-2.82,4.24-2.03,3.01.79,5.86,1.83,6.02,3.81s-3.59,1.99-5.42,1.62c-1.83-.37-4.58-.93-4.84-3.39h0Z"/>
      <path class="cls-32" d="m153.34,359.09c2.44.59,2.5,2.27,1.7,5.33-.8,3.05-1.83,5.83-3.61,5.35-1.79-.48-1.68-4.59-1.29-6.49.39-1.89.97-4.73,3.2-4.19h0Z"/>
      <path class="cls-32" d="m132.21,363.73c-1.66-2.24-.65-3.33,1.93-4.62,2.58-1.29,5.18-2.24,6.37-.57,1.19,1.67-1.49,4.15-3,5.03s-3.78,2.2-5.3.16Z"/>
      <path class="cls-32" d="m129.17,375.86c-.28-2.7,1.22-2.82,4.24-2.03,3.01.79,5.86,1.83,6.02,3.81s-3.59,1.99-5.42,1.62c-1.83-.37-4.58-.92-4.84-3.39h0Z"/>
      <path class="cls-32" d="m146,380.54c-2.4.15-2.87-1.53-2.89-4.83-.02-3.31.24-6.41,2-6.47s2.69,4.1,2.8,6.12c.11,2.02.28,5.04-1.91,5.18Z"/>
      <path class="cls-32" d="m123.41,380.13c2.39-.17,2.88,1.5,2.92,4.81.05,3.31-.19,6.42-1.95,6.49-1.76.08-2.72-4.08-2.85-6.1-.13-2.02-.32-5.05,1.87-5.2h0Z"/>
      <path class="cls-32" d="m144.41,392.96c1.13,2.56-.15,3.27-3.06,3.7-2.91.43-5.75.53-6.54-1.36-.79-1.89,2.5-3.4,4.23-3.76,1.73-.37,4.33-.92,5.36,1.42h.01Z"/>
      <path class="cls-32" d="m124.77,406.03c1.13,2.56-.15,3.27-3.06,3.7-2.91.43-5.75.53-6.54-1.36-.79-1.89,2.5-3.4,4.23-3.76,1.73-.37,4.33-.92,5.36,1.42h.01Z"/>
      <path class="cls-32" d="m148.48,350.14c2.4.91,2.27,2.56,1.12,5.42-1.15,2.86-2.5,5.43-4.25,4.72s-1.18-4.7-.58-6.49c.61-1.79,1.51-4.47,3.71-3.64h0Z"/>
      <path class="cls-32" d="m106.2,280.28c2.4.91,2.27,2.56,1.12,5.42-1.15,2.86-2.5,5.43-4.25,4.72s-1.18-4.7-.58-6.49c.61-1.79,1.51-4.47,3.71-3.64h0Z"/>
      <path class="cls-32" d="m110.59,311.73c.04,2.68-1.48,2.63-4.46,1.53s-5.76-2.43-5.74-4.38c.01-1.95,3.8-1.56,5.62-1s4.55,1.4,4.58,3.85Z"/>
      <path class="cls-32" d="m94.12,312.06c.04,2.68-1.48,2.63-4.46,1.53s-5.76-2.43-5.74-4.38,3.8-1.56,5.62-1,4.55,1.4,4.58,3.85Z"/>
      <path class="cls-32" d="m95.34,324.16c1.88,2.02,1.04,3.27-1.32,4.96-2.35,1.68-4.77,3.02-6.12,1.51-1.35-1.51.94-4.42,2.31-5.53,1.36-1.11,3.41-2.78,5.13-.94h0Z"/>
      <path class="cls-32" d="m140.85,274.97c2.44.67,2.45,2.35,1.56,5.36-.89,3.01-2,5.74-3.78,5.2-1.78-.54-1.56-4.63-1.12-6.5.44-1.87,1.11-4.67,3.33-4.06h.01Z"/>
      <path class="cls-32" d="m101.68,274.45c-2.37-1.08-2.13-2.7-.79-5.44s2.87-5.16,4.59-4.33c1.72.84.9,4.73.17,6.45-.72,1.72-1.81,4.3-3.97,3.31h0Z"/>
      <path class="cls-32" d="m169.46,345.95c-1.76-2.15-.81-3.32,1.69-4.77,2.5-1.45,5.03-2.56,6.28-.95s-1.27,4.27-2.73,5.24c-1.46.98-3.64,2.44-5.24.47h0Z"/>
      <path class="cls-32" d="m185.28,315.99c-2.36-1.09-2.12-2.71-.76-5.44s2.89-5.14,4.61-4.3c1.72.85.87,4.74.14,6.45-.73,1.71-1.83,4.28-3.99,3.28h0Z"/>
      <path class="cls-32" d="m176.02,274.34c1.6,2.29.55,3.34-2.09,4.52s-5.28,2.02-6.42.32c-1.14-1.7,1.63-4.07,3.17-4.89,1.55-.82,3.87-2.04,5.33.05h.01Z"/>
      <path class="cls-32" d="m180.46,316.65c-.6,2.49-2.12,2-4.85.12s-5.2-3.93-4.72-5.73c.48-1.8,4.19-.34,5.89.71,1.69,1.05,4.24,2.62,3.69,4.9h-.01Z"/>
      <path class="cls-32" d="m169.96,440.11c-2.33-1.21-2.02-2.8-.53-5.43,1.48-2.63,3.13-4.95,4.83-4.02,1.69.93.67,4.74-.14,6.4s-2.03,4.15-4.16,3.05h0Z"/>
      <path class="cls-32" d="m154.24,431.56c-.7-2.68.72-3.09,3.73-2.88s5.91.71,6.37,2.67c.47,1.97-3.12,2.71-4.93,2.69-1.82-.02-4.54-.04-5.18-2.49h.01Z"/>
      <path class="cls-32" d="m158.43,446.91c-.7-2.68.72-3.09,3.73-2.88s5.91.71,6.37,2.67c.47,1.97-3.12,2.71-4.93,2.69-1.82-.02-4.54-.04-5.18-2.48h.01Z"/>
      <path class="cls-32" d="m183.31,463.12c.07,2.68-1.45,2.65-4.43,1.6-2.98-1.06-5.77-2.36-5.78-4.31,0-1.96,3.77-1.61,5.6-1.08,1.82.54,4.55,1.34,4.62,3.79h0Z"/>
      <path class="cls-32" d="m165.08,454.64c2,1.87,1.25,3.21-.95,5.12-2.2,1.9-4.48,3.46-5.92,2.05-1.44-1.41.62-4.54,1.88-5.78s3.16-3.1,4.99-1.39h0Z"/>
      <path class="cls-32" d="m175.04,473.09c.45,2.7-1.02,2.94-4.05,2.39s-5.9-1.38-6.18-3.36c-.28-1.98,3.41-2.29,5.24-2.06s4.58.57,4.99,3.04h0Z"/>
      <path class="cls-32" d="m154.33,464.73c2.45.49,2.56,2.18,1.87,5.28-.69,3.1-1.62,5.93-3.41,5.53-1.79-.41-1.83-4.55-1.5-6.47.32-1.92.81-4.79,3.04-4.34Z"/>
      <path class="cls-32" d="m133.03,340.01c-2.33-1.21-2.02-2.8-.53-5.43,1.48-2.63,3.13-4.95,4.83-4.02,1.69.93.68,4.74-.14,6.4-.81,1.66-2.03,4.15-4.16,3.05h0Z"/>
      <path class="cls-32" d="m121.51,346.82c-.7-2.68.72-3.09,3.73-2.88s5.91.71,6.37,2.67c.47,1.97-3.12,2.71-4.93,2.69-1.82-.02-4.54-.04-5.18-2.49h.01Z"/>
      <path class="cls-32" d="m128.15,354.54c2,1.87,1.25,3.21-.95,5.12-2.2,1.9-4.48,3.46-5.92,2.05-1.44-1.41.62-4.54,1.88-5.78s3.16-3.1,4.99-1.39h0Z"/>
      <path class="cls-32" d="m117.4,364.63c2.45.49,2.56,2.18,1.87,5.28-.69,3.1-1.62,5.93-3.41,5.52s-1.83-4.55-1.5-6.46c.32-1.92.81-4.79,3.04-4.34Z"/>
      <path class="cls-32" d="m88.2,285.98c-1.66-2.24-.65-3.33,1.93-4.62,2.58-1.29,5.18-2.24,6.37-.57,1.19,1.67-1.49,4.15-3,5.03s-3.78,2.2-5.3.16Z"/>
      <path class="cls-32" d="m85.15,298.11c-.28-2.7,1.22-2.82,4.24-2.03,3.01.79,5.86,1.83,6.02,3.81s-3.59,1.99-5.42,1.62c-1.83-.37-4.58-.93-4.84-3.39h0Z"/>
      <path class="cls-32" d="m89.02,262.26c-2.33-1.21-2.02-2.8-.53-5.43,1.48-2.63,3.13-4.95,4.83-4.02,1.69.93.68,4.74-.14,6.4-.81,1.66-2.03,4.15-4.16,3.05h0Z"/>
      <path class="cls-32" d="m77.49,269.06c-.7-2.68.72-3.09,3.73-2.88s5.91.71,6.37,2.67c.47,1.97-3.12,2.71-4.93,2.69-1.82-.02-4.54-.04-5.18-2.48h.01Z"/>
      <path class="cls-32" d="m84.14,276.79c2,1.87,1.25,3.21-.95,5.12-2.2,1.9-4.48,3.46-5.92,2.05-1.44-1.41.62-4.54,1.88-5.78s3.16-3.1,4.99-1.39h0Z"/>
      <path class="cls-32" d="m73.39,286.88c2.45.49,2.56,2.18,1.87,5.28-.69,3.1-1.62,5.93-3.41,5.53-1.79-.41-1.83-4.55-1.5-6.47.32-1.92.81-4.79,3.04-4.34Z"/>
      <path class="cls-32" d="m117.6,266.69c1.8,2.11.89,3.3-1.55,4.84-2.45,1.54-4.94,2.73-6.23,1.16s1.15-4.32,2.57-5.35c1.42-1.03,3.56-2.57,5.2-.65h.01Z"/>
      <path class="cls-32" d="m119.69,254.17c.47,2.7-.99,2.95-4.02,2.44-3.03-.52-5.9-1.31-6.21-3.29-.3-1.98,3.38-2.33,5.21-2.12s4.58.52,5.01,2.98h.01Z"/>
      <path class="cls-32" d="m105.71,300.92c-1.6,1.75-2.87.58-4.71-2.34-1.85-2.92-3.39-5.85-2.18-7.1s4.17,1.83,5.37,3.55,2.99,4.29,1.52,5.89Z"/>
      <path class="cls-32" d="m118.57,290.7c2.38,1.01,2.19,2.64.93,5.43-1.26,2.79-2.71,5.28-4.45,4.5s-1.02-4.73-.34-6.47c.67-1.75,1.69-4.37,3.86-3.45h0Z"/>
      <path class="cls-32" d="m129.4,282.78c.89,2.64-.48,3.18-3.46,3.25s-5.87-.18-6.47-2.12c-.61-1.94,2.86-3.02,4.65-3.17,1.79-.15,4.47-.37,5.28,2.04h0Z"/>
      <path class="cls-32" d="m122.29,275.59c-2.11-1.71-1.47-3.13.55-5.25s4.15-3.9,5.68-2.61c1.52,1.29-.27,4.63-1.42,6s-2.88,3.42-4.8,1.85h-.01Z"/>
      <path class="cls-32" d="m132.11,264.43c-2.44-.27-2.69-1.97-2.24-5.16s1.15-6.14,2.94-5.89c1.79.25,2.14,4.42,1.96,6.39-.17,1.96-.44,4.91-2.67,4.66h.01Z"/>
      <path class="cls-32" d="m182.63,476.82c2.45.49,2.56,2.18,1.87,5.28-.69,3.1-1.62,5.93-3.41,5.53-1.79-.41-1.83-4.55-1.5-6.47.32-1.92.81-4.79,3.04-4.34Z"/>
      <path class="cls-32" d="m195.26,495.25c2.45.49,2.56,2.18,1.87,5.28-.69,3.1-1.62,5.93-3.41,5.53-1.79-.41-1.83-4.55-1.5-6.47.32-1.92.81-4.79,3.04-4.34Z"/>
      <path class="cls-32" d="m219.35,501.05c.37,2.7-1.12,2.88-4.14,2.22-3.02-.67-5.88-1.6-6.11-3.58-.22-1.98,3.5-2.14,5.33-1.85,1.83.3,4.59.74,4.92,3.21Z"/>
      <path class="cls-32" d="m162.23,484.68c.13-2.65,1.67-2.48,4.6-1.17,2.93,1.31,5.65,2.84,5.51,4.77s-3.93,1.24-5.73.55c-1.8-.7-4.5-1.74-4.38-4.16h0Z"/>
      <path class="cls-32" d="m179.2,496.43c2.3-.52,2.97,1.1,3.41,4.44.44,3.34.58,6.52-1.12,6.85-1.7.33-3.13-3.74-3.49-5.76-.36-2.02-.91-5.06,1.2-5.53Z"/>
      <path class="cls-32" d="m176.43,450.17c-2.33-1.21-2.02-2.8-.53-5.43,1.48-2.63,3.13-4.95,4.83-4.02,1.69.93.68,4.74-.14,6.4-.81,1.66-2.03,4.15-4.16,3.05h0Z"/>
      <path class="cls-32" d="m224.26,447.43c-.7-2.68.72-3.09,3.73-2.88,3.01.2,5.91.71,6.37,2.67.47,1.97-3.12,2.71-4.93,2.69-1.82-.02-4.54-.04-5.18-2.49h.01Z"/>
      <path class="cls-32" d="m258.06,456.74c-2.45-.46-2.58-2.15-1.93-5.27.65-3.11,1.55-5.97,3.34-5.58,1.79.38,1.87,4.53,1.57,6.46-.3,1.92-.75,4.81-2.99,4.39h.01Z"/>
      <path class="cls-32" d="m228.45,462.78c-.7-2.68.72-3.09,3.73-2.88s5.91.71,6.37,2.67c.47,1.97-3.12,2.71-4.93,2.69-1.82-.02-4.54-.04-5.18-2.48h.01Z"/>
      <path class="cls-32" d="m245.99,431.1c-2.44-.26-2.69-1.95-2.26-5.15.43-3.2,1.12-6.15,2.91-5.91s2.16,4.41,2,6.38-.41,4.92-2.64,4.68h-.01Z"/>
      <path class="cls-32" d="m246.44,466.03c-2.33-1.21-2.02-2.8-.53-5.43,1.48-2.63,3.13-4.95,4.83-4.02,1.69.93.67,4.74-.14,6.4s-2.03,4.15-4.16,3.05h0Z"/>
      <path class="cls-32" d="m254.43,440.22c-2.33-1.21-2.02-2.8-.53-5.43,1.48-2.63,3.13-4.95,4.83-4.02,1.69.93.67,4.74-.14,6.4s-2.03,4.15-4.16,3.05h0Z"/>
      <path class="cls-32" d="m238.88,461.74c-2.45-.32-2.66-2.01-2.16-5.19.5-3.17,1.25-6.1,3.04-5.82s2.07,4.45,1.87,6.41c-.21,1.95-.51,4.89-2.75,4.6Z"/>
      <path class="cls-32" d="m251.72,450.5c-1.61,1.75-2.87.58-4.71-2.35s-3.38-5.86-2.16-7.1c1.21-1.24,4.17,1.84,5.36,3.56s2.98,4.3,1.51,5.89Z"/>
      <path class="cls-32" d="m242.29,432.2c.61,2.69-.83,3.04-3.85,2.71-3.02-.33-5.91-.94-6.32-2.92-.4-1.97,3.22-2.56,5.05-2.47,1.82.09,4.56.23,5.12,2.68h0Z"/>
    </g>
    <g id="pomme1">
      <path class="cls-26" d="m337.49,369.59c9.23,7.13,8.85,14.53,19.67,24.57,1.28,1.19-2.47,2.93-3.15,4.54-.97,2.27-5.99-1.22-8.46-1.18s-4.84-.89-7.11-1.86c-12.42-5.31-30.72-13.79-37.36-26.31-1.66-3.13-13.68-22.25-9.12-22.33,12.98-.22,21.41,13.2,25.16,14.94,8.18,3.78,10.88.29,20.37,7.63h0Z"/>
      <path class="cls-10" d="m316.41,377.95c-13.92-9.04-17.84-42.32-47.79-36.11-29.95,6.21-61.56,53.46-63.48,82.17-1.92,28.71,25.79,55.22,46.14,69.15,23.77,16.26,66.94,28.66,97.15-7.74,26.43-31.84,38.36-67.95,10-90.26-17.27-13.59-19.23-2.39-42.02-17.2h0Z"/>
      <path class="cls-26" d="m371.64,411.83c-2.5,16.08-12.21,33.45-25.71,49.71-30.21,36.39-73.39,24-97.15,7.74-15.62-10.69-35.56-28.79-43.13-49.61-.23,1.48-.4,2.93-.49,4.33-1.92,28.71,25.79,55.22,46.14,69.15,23.77,16.26,66.94,28.66,97.15-7.74,20.57-24.78,32.36-52.15,23.19-73.59h0Z"/>
      <path class="cls-6" d="m266.88,361.97c-7.38,1.93-13.91,6.54-18.79,12.41-2.84,3.42-5.22,7.44-5.63,11.87s1.55,9.28,5.53,11.27c1.02.51,2.17.83,3.3.71,1.6-.17,2.97-1.16,4.26-2.12,6.06-4.49,12.46-9.11,19.92-10.19,3.56-.52,7.22-.2,10.76-.84,3.54-.64,7.19-2.56,8.43-5.94,1.91-5.22-2.7-12.08-6.91-14.84-5.8-3.81-14.39-4.02-20.87-2.32h0Z"/>
      <path class="cls-6" d="m240.79,402.25c-2.66-1.91-6.75-.88-8.66,1.78s-1.8,6.43-.24,9.31c.82,1.52,2.17,2.94,3.89,3.12,1.25.13,2.47-.41,3.52-1.1,1.94-1.28,3.53-3.17,4.15-5.4.62-2.24.17-4.81-1.41-6.51l-1.25-1.19h0Z"/>
      <path class="cls-17" d="m312.92,375.01s13.96-15.42,22.84-21.48c8.88-6.07,27.24-12.14,27.24-12.14l3.68,7.66s-14.18,1.35-25.84,8.75c-8.15,5.18-24.42,20.15-24.42,20.15l-3.5-2.94h0Z"/>
      <path class="cls-31" d="m340.83,357.8s25.28-3.44,39.9,7.07c19.57,14.07,30.61,30.98,30.61,30.98,0,0-26.22,9.07-43.57-.12-17.35-9.2-32.56-33.88-32.56-33.88l5.62-4.05h0Z"/>
      <path class="cls-6" d="m369.01,368.8c-.37.08-.74.2-.98.48-.32.38-.32.97-.22,1.51.34,1.81,1.64,3.43,3.13,4.59s3.18,1.94,4.82,2.81c3.82,2.03,7.43,4.62,10.67,7.66,1.14,1.07,2.28,2.23,3.66,2.87,4.3,2,5.03-2.83,4.21-6.12-.77-3.06-2.82-4.5-5.32-6.2-5.88-3.99-13.21-9.16-19.97-7.6h0Z"/>
    </g>
    <g id="bouteille">
      <path class="cls-16" d="m624.46,383.59c-4.83-9.02-10.1-16.33-9.9-24.28.41-16.35,15.95-57.31,15.95-57.31l-44.94-17.4s-16.1,40.74-26.81,53.11c-5.2,6.01-14.03,7.87-23.67,11.28-18.33,5.97-180.32,346.05-180.32,346.05l-14.73,38.02s-10.18,26.28,13.68,34.7c20.95,7.39,24.06-13.15,34.91-8.38s4.54,10.54,9.37,19.53c5.65,10.52,26.98,18.78,38.23,14.81,9.62-3.39,8.84-11.91,20.08-8.13,11.23,3.78-.3,21.06,20.16,29.71,23.31,9.84,33.48-16.44,33.48-16.44l14.73-38.02s109.32-360.48,99.79-377.24h0Z"/>
      <path class="cls-12" d="m481.18,803.11c-20.46-8.64-8.93-25.92-20.16-29.71-11.23-3.78-10.45,4.73-20.08,8.13-11.26,3.97-32.59-4.29-38.23-14.81-4.83-8.99,1.48-14.76-9.37-19.53s-13.96,15.77-34.91,8.38c-23.86-8.42-13.68-34.7-13.68-34.7l-4.72,12.18s-10.18,26.28,13.68,34.7c20.95,7.39,24.06-13.15,34.91-8.38s4.54,10.54,9.37,19.53c5.65,10.52,26.98,18.78,38.23,14.81,9.62-3.39,8.84-11.91,20.08-8.12,11.23,3.78-.3,21.06,20.16,29.7,23.31,9.84,33.48-16.44,33.48-16.44l4.72-12.18s-10.18,26.28-33.48,16.44Z"/>
      <path class="cls-12" d="m624.46,383.59c-4.83-9.02-10.1-16.33-9.9-24.28.41-16.35,15.95-57.31,15.95-57.31l-19.75-7.65s-15.54,40.96-15.95,57.31c-.2,7.95,5.07,15.26,9.9,24.28,9.53,16.76-99.79,377.24-99.79,377.24l-14.73,38.02s-6.83,17.62-22.09,18.6c1.94,2.03,4.61,3.91,8.36,5.49,23.31,9.84,33.48-16.44,33.48-16.44l14.73-38.02s109.32-360.48,99.79-377.24h0Z"/>
      <g>
        <path class="cls-19" d="m625.92,316.7l-46.86-18.15c-3.7-1.43-5.53-5.59-4.1-9.29l9.22-23.81c1.43-3.7,5.59-5.53,9.29-4.1l46.86,18.15c3.7,1.43,5.53,5.59,4.1,9.29l-9.22,23.81c-1.43,3.7-5.59,5.53-9.29,4.1Z"/>
        <path class="cls-19" d="m625.37,326.31l-51.83-20.07c-1.3-.5-1.95-1.97-1.44-3.27l.31-.8c.5-1.3,1.97-1.95,3.27-1.45l51.83,20.07c1.3.5,1.95,1.97,1.44,3.27l-.31.8c-.5,1.3-1.97,1.95-3.27,1.45Z"/>
        <g>
          <rect class="cls-13" x="568.77" y="280.69" width="34.14" height="4.41" transform="translate(110.54 727.12) rotate(-68.84)"/>
          <rect class="cls-13" x="577.73" y="284.02" width="34.14" height="4.41" transform="translate(113.08 737.52) rotate(-68.83)"/>
          <rect class="cls-13" x="587.9" y="288.02" width="34.14" height="4.41" transform="translate(115.86 749.56) rotate(-68.83)"/>
          <rect class="cls-13" x="597.75" y="291.89" width="34.14" height="4.41" transform="translate(118.54 761.21) rotate(-68.83)"/>
          <rect class="cls-13" x="606.81" y="295.37" width="34.14" height="4.41" transform="translate(121.08 771.89) rotate(-68.83)"/>
          <rect class="cls-13" x="614.04" y="298.21" width="34.14" height="4.41" transform="translate(123.05 780.44) rotate(-68.83)"/>
        </g>
        <path class="cls-15" d="m640.08,283.47l-49.46-19.15c-.66-.26-.99-1.01-.74-1.67h0c.26-.66,1.01-.99,1.67-.74l49.46,19.15c.66.26.99,1.01.74,1.67h0c-.26.66-1.01.99-1.67.74Z"/>
      </g>
      <path class="cls-8" d="m570.87,334.41c-2.64,5.37-6.09,10.56-11.09,13.84-2.26,1.48-4.78,2.54-6.93,4.18-2.14,1.64-3.94,4.08-3.84,6.77.16,4.41,5.49,7.15,9.79,6.2,4.31-.95,7.59-4.37,10.32-7.83,6.13-7.76,10.91-16.52,14.75-25.63,1.3-3.08,5.2-16.41-2.21-16.6-4.92-.12-8.97,15.36-10.8,19.07h.01Z"/>
      <path class="cls-8" d="m409.62,760.25c-.44,3.81-.46,8.41,2.01,9.13,1.48.43,3.36-.86,4.75-2.67,1.38-1.8,2.38-4.06,3.34-6.25,3.53-8.07,12.43-24.5,2.37-24.96-9.07-.41-11.43,15.87-12.46,24.75h-.01Z"/>
      <polygon class="cls-19" points="468.49 462.88 409.17 582.65 560.14 641.12 596.81 510.76 468.49 462.88"/>
      <polygon class="cls-9" points="461.29 477.4 592.22 528.11 589.01 539.71 455.96 488.18 461.29 477.4"/>
      <polygon class="cls-9" points="420.97 558.81 567.53 615.57 562.93 631.22 413.89 573.5 420.97 558.81"/>
      <path class="cls-8" d="m538.75,379.93c-5.09-.9-8.61.06-17.5,19.95-8.89,19.89-131.84,269-134.65,274.74-4.03,8.2-5.39,21.71,2.64,26.09,7.5,4.09,15.24,5.85,24.68-13.21,9.45-19.06,120.29-272.85,124.03-281.26s9.63-24.74.8-26.3h0Z"/>
      <path class="cls-8" d="m351.88,737.89c-.26,3.88.05,8.61,3.02,9.52,1.78.55,3.91-.65,5.42-2.4,1.51-1.76,2.52-4,3.51-6.19,3.61-8.04,12.96-24.29,1.04-25.47-10.75-1.06-12.39,15.5-12.99,24.55h0Z"/>
    </g>
    <g id="sac">
      <path class="cls-21" d="m2.89,737.49c-8.4,81.07,3.09,162.74,14.56,243.43,2.65,18.66,5.93,38.65,19.03,52.19,17.17,17.75,44.93,18.43,69.62,17.91,178.28-3.71,356.56-7.41,534.85-11.12,16.54-.34,36.85-3.21,42.63-18.71,4.43-11.88-2.5-24.61-8.06-36-9.46-19.41-15.45-40.51-17.58-61.99-4.19-42.13,6.31-84.12,11.86-126.1,7.38-55.83,5.99-112.81-4.11-168.21-13.73-75.34-43.54-149.23-38.31-225.63-28.07,14.93-59.59,22.01-90.91,27.45-93.76,16.29-189.84,19.25-284.43,8.77-32.18-3.57-64.55-8.78-94.43-21.26-16-6.68-31.34-15.54-44.53-26.86-11.34-9.72-20.4-30.15-32.99-13.76-7.73,10.06-5.21,46.76-7.52,60.13-3.39,19.68-7.77,39.18-12.58,58.55-19.89,80.14-48.56,158.6-57.12,241.18l.02.03Z"/>
      <path class="cls-20" d="m675.52,985.2c-9.46-19.41-15.45-40.51-17.58-61.99-4.19-42.13,6.31-84.12,11.86-126.1,7.38-55.83,5.99-112.81-4.11-168.21-13.73-75.34-43.54-149.23-38.31-225.63-23.63,12.56-49.7,19.57-76.04,24.72,6.86,56.42,26.14,111.99,36.41,168.37,10.1,55.4,11.49,112.38,4.11,168.21-5.55,41.97-16.04,83.97-11.86,126.1,2.14,21.49,8.12,42.58,17.58,61.99,5.56,11.39,12.48,24.12,8.06,36-5.78,15.5-26.09,18.36-42.63,18.71-178.28,3.71-356.56,7.41-534.85,11.12-.49,0-.99.02-1.49.03,2.47,5.35,5.64,10.29,9.8,14.59,17.17,17.75,44.93,18.43,69.62,17.91,178.28-3.71,356.56-7.41,534.85-11.12,16.54-.34,36.85-3.21,42.63-18.71,4.43-11.88-2.5-24.61-8.06-36h.01Z"/>
      <g>
        <path class="cls-4" d="m657.87,922.77c-1.05-10.38-1.2-20.76-.75-31.13-1,.04-1.99.1-2.99.19-10.71.99-20.89,5.01-31.45,6.99-16.31,3.06-33.08,1.21-49.63.03-130.01-9.21-258.89,24.21-388.77,35.17-36.27,3.06-73.23,4-109.26-2-20.75-3.45-44.23-14.9-66.21-13.5,2.66,21,5.66,41.97,8.66,62.87,2.68,18.65,5.98,38.64,19.11,52.16,17.2,17.73,44.96,18.36,69.65,17.82,178.28-3.96,356.55-7.92,534.83-11.88,16.54-.37,36.85-3.26,42.6-18.77,4.41-11.88-2.54-24.6-8.11-35.99-9.49-19.39-15.51-40.48-17.67-61.97h-.01Z"/>
        <path class="cls-4" d="m675.52,985.38c-8.49-17.41-14.17-36.19-16.79-55.38-.33-2.34-.62-4.69-.86-7.05-1.05-10.38-1.2-20.76-.75-31.13-1,.04-1.99.09-2.99.19-10.71.99-20.89,5.01-31.45,6.99-13.67,2.56-27.65,1.68-41.57.63,2.74,18.44,8.31,36.46,16.49,53.22,5.56,11.39,12.48,24.12,8.06,36-5.78,15.5-26.09,18.36-42.63,18.71-178.28,3.71-356.56,7.41-534.85,11.12-.49,0-.99.02-1.49.03,2.47,5.35,5.64,10.29,9.8,14.59,17.17,17.75,44.93,18.43,69.62,17.91,80.82-1.68,161.63-3.36,242.45-5.04,97.5-2.17,195-4.33,292.49-6.5,16.54-.37,36.85-3.26,42.6-18.77.54-1.45.91-2.92,1.13-4.4,1.37-10.43-4.45-21.28-9.26-31.12h0Z"/>
      </g>
      <g class="cls-2">
        <path class="cls-5" d="m201.4,662.14c13.2,26.86,18.06,56.54,23.17,85.73,5.11,29.18,10.81,58.85,25.43,85.04,14.62,26.2,39.77,48.84,70.76,54.13,17.98,3.07,36.42.18,54.57-1.87,23.04-2.6,46.24-3.85,69.45-3.72,22.64.12,49.04,0,62.86-16.85,7.77-9.48,9.38-22.09,10.08-34.04,1.25-21.15.57-42.41-2.04-63.45-8.83,6.6-17.65,13.2-26.48,19.8-1.77,1.32-3.57,2.68-4.79,4.46-1.74,2.53-2.13,5.64-2.45,8.64-1.6,15.02-2.8,31.22-13.07,42.83-9.18,10.38-23.79,14.86-37.82,17.8-32.27,6.77-65.85,7.94-98.56,3.45-12.82-1.76-25.76-4.47-36.91-10.66-20.13-11.16-31.9-32.32-37.15-53.71-5.26-21.39-5.01-43.57-6.93-65.45-.94-10.69-2.59-21.82-9.11-30.63s-19.34-14.4-29.74-9.96l-11.26-31.55h-.01Z"/>
        <path class="cls-5" d="m233.03,601.5c2.63-18.49,6.22-36.93,6.53-55.6.62-37.52-12.01-73.85-24.47-109.25,8.21.22,17.08.68,23.45,5.86,7.17,5.82,9.04,15.81,10.45,24.93,9.58,62.31,19.08,126.73,2.99,187.68-6.14,23.26-15.99,47.43-9.32,70.55-2.58-8.94-13.02-17.92-16.42-27.65-3.23-9.24-4.49-17.76-2.44-27.28,4.91-22.89,5.93-45.95,9.24-69.24h-.01Z"/>
        <path class="cls-5" d="m491.91,625.83c26.97,63.48,33.22,135.56,17.59,202.74-.41,1.76-.9,3.63-2.22,4.87-3.02,2.82-7.98.59-10.95-2.28-12.19-11.79-13.16-30.74-12.67-47.69.55-18.82,1.92-37.62,4.11-56.32,1.9-16.21,4.4-32.68,1.46-48.72-2.25-12.28-7.6-23.74-11.75-35.51-10.86-30.83-13.5-63.86-16.04-96.45-.39-5.03-.27-10.02,4.01-12.73,6.85,9.62,3.18,28.96,6.11,40.61,4.51,17.94,13.17,34.56,20.36,51.5v-.02Z"/>
      </g>
      <path class="cls-29" d="m248.77,764.13c12.27,16.68,26.94,31.84,44.53,42.77,15.55,9.66,33.05,15.81,50.77,20.42,26.7,6.94,54.76,10.51,81.9,5.59,27.14-4.93,53.35-19.14,68.68-42.07,19.35-28.95,18.86-66.99,11.08-100.93-7.79-33.93-22.06-66.23-28.28-100.48-9.09-50.01-.59-101.13,9.69-151.14-11.48,1.41-22.99,2.63-34.51,3.65-14.78,63.83-13.52,131.31,3.69,194.53,8.03,29.52,19.49,58.22,24.09,88.47,1.86,12.26,2.5,25.23-2.38,36.63-7.64,17.85-26.83,27.73-45.36,33.55-27.6,8.67-57.43,11.51-85.61,4.98-28.18-6.52-54.53-22.94-70.27-47.21-7.83-12.08-12.9-25.7-19.23-38.63-5.65-11.54-12.33-22.56-17.69-34.24-8.91-19.4-14.07-40.34-17.28-61.45-9.75-64.17,2.28-120.32,20.53-179.86-9.67-1.18-19.33-2.55-28.92-4.27-5.58,14.85-7.29,34.9-9.15,45.38-6.77,38.07-10.93,76.75-9.62,115.46,2.01,59.89,17.82,120.59,53.34,168.85h0Z"/>
      <path class="cls-7" d="m90.88,524.52c.29,23.41-6.06,46.6-16.2,67.7-10.84,22.55-26.15,43.45-31.24,67.94s4.64,54.93,28.68,61.86c16.84,4.85,35.54-3.88,46.12-17.85s14.21-32.11,14.42-49.63c.17-14-1.6-28.24,1.74-41.84,3.71-15.12,13.37-27.96,20.64-41.73,19.05-36.1,22.71-92.7-14.67-119.41-13.96-9.98-29.72-10.31-41.21,3.44-16.1,19.27-8.56,46.86-8.28,69.53h0Z"/>
      <path class="cls-7" d="m35.43,756.57c-5.88,7.59-5.82,18.06-5.26,27.64,2.69,45.89,10.88,91.48,24.66,135.34,4.06,12.93,8.74,25.96,17.11,36.62s21.08,18.72,34.63,18.33c1.9-.05,3.98-.36,5.23-1.79,1.22-1.39,1.29-3.42,1.25-5.28-.45-18.72-5.75-37.1-5.8-55.83-.06-20.8,6.34-40.99,11.36-61.18s8.67-41.56,3.17-61.62c-8.03-29.3-60.8-65.21-86.34-32.25v.02Z"/>
      <path class="cls-1" d="m544.18,830.95c-3.78,4.98-7.79,10.01-9.61,15.99-1.83,5.98-.95,13.27,3.85,17.27,2.7,2.25,6.22,3.18,9.63,4.06,12.71,3.26,25.43,6.52,38.14,9.78,4.35,1.11,9.05,2.21,13.23.57,2.4-.94,4.37-2.7,6.19-4.52,19.66-19.72,25.82-49.34,25.76-77.19-.03-13.94,7.6-97.53-21.68-76.03-10.2,7.49-29.9,51.67-35.78,63.02-8.55,16.49-18.5,32.26-29.73,47.06h0Z"/>
    </g>
  </g>
</svg>