<svg xmlns="http://www.w3.org/2000/svg" id="Calque_2" data-name="Calque 2" viewBox="0 0 685 1052"><defs><style>.cls-1{fill:#568e4c}.cls-2{fill:#5a75ab}.cls-3{fill:#d34f47}.cls-4{fill:#e1a42b}.cls-5{fill:#88b5d4}.cls-6{fill:#223465}.cls-7{fill:#e5ca30}.cls-11{fill:#60453f}.cls-12{fill:#94756d}.cls-13{fill:#324496}.cls-14{fill:#72ba65}.cls-17{opacity:.37}.cls-17,.cls-18,.cls-19{fill:#fff}.cls-20{fill:#c9c0b1}.cls-22{fill:#faea3f}.cls-23{fill:#ae3f3c}.cls-24{fill:#ed9254}.cls-18{opacity:.58}.cls-25{fill:#d8874e}.cls-26{fill:#f6a03a}.cls-27{fill:#b87446}.cls-19{opacity:.27}.cls-29{fill:#fccc86}.cls-30{fill:#856962}</style></defs><g id="Calque_1-2" data-name="Calque 1"><path fill="#473834" d="m369 256 70 56-28 84-98-12 56-128z"/><path fill="#735b53" d="M194 345c-2-8 58-143 58-143l117 54-53 141-122-52Z"/><path d="M297 454c1-1 72-49 95-83 39-55 47-142 47-142l18-8s42 41 33 99-26 86-75 123c-53 40-113 29-113 29l-5-18Z" class="cls-7"/><path d="M456 222c12 17 28 47 22 85-9 58-26 86-75 123-40 31-85 31-104 29l4 13s60 11 113-29c48-36 66-65 74-123 9-57-33-99-33-99l-1 1Z" class="cls-4"/><path d="m439 229-13-33 11-9 20 34-18 8z" class="cls-7"/><path d="M416 187c-1 7 3 15 3 15l28-14-8-13-23 12Z" class="cls-7"/><path d="m302 472-5-18 16-3-3 15-8 6z" class="cls-11"/><path d="m422 194 4-1 9-4c2-1 4-2 4-5l-3-2-5 1-12 5c-2 2-1 6 3 6ZM324 446c19-11 38-23 55-37s32-31 42-51l2-5c0-2-1-4-3-5l-6 3-13 17c-18 25-41 46-65 64l-10 7c-1 1-2 1-2 3v4ZM425 337c2 0 4-1 5-3l2-5a313 313 0 0 0 9-43l-1-2c-1-2-3-1-5 0-3 2-4 5-5 9l-9 36v3l4 5Z" class="cls-22"/><path d="M432 196s-1-4 7 7l14 19 5 3 5 4-6-8-17-29-8 4ZM447 188h-5l-7-11 4-2 8 13z" class="cls-4"/><path d="M156 414c2 0 86-5 124-22 61-27 114-97 114-97l19 2s15 57-23 102c-37 45-67 60-127 67-66 7-112-34-112-34l5-18Z" class="cls-7"/><path d="M412 298c1 20-1 54-25 84-38 45-67 60-128 66-51 6-89-17-104-28l-4 12s46 41 112 34c60-6 90-21 127-66 38-45 23-102 23-102h-1Z" class="cls-4"/><path d="m394 295 5-35 14-3v41l-19-3z" class="cls-7"/><path d="M396 247c-4 5-5 15-5 15l30 2 1-15-26-2Z" class="cls-7"/><path d="m151 432 5-18 15 5-11 12-9 1z" class="cls-11"/><path d="m397 256 4 1 10 2c2 0 5 0 5-2 1-2 0-3-1-4l-4-2c-4 0-9-2-13-1-3 0-5 4-1 6ZM183 421c22 0 44 0 66-3 22-4 44-10 62-22l5-3c1-2 1-5-1-6l-5-1-21 8c-28 12-59 18-89 21l-12 1-3 1-2 4ZM326 380h5c2 0 3-2 5-3a312 312 0 0 0 30-33v-2c0-2-2-2-4-2-4 0-6 3-9 5l-27 26-1 2c-1 2-1 6 1 7Z" class="cls-22"/><path d="M405 263s1-4 2 10l2 23s1-1 3 5c1 6 3 6 3 6l-2-9v-34l-8-1ZM421 264l-3-3-1-13 5 1-1 15z" class="cls-4"/><path d="m535 0 28 2 20 190c1 13 2 26-4 37-5 11-21 18-31 11-8-7-8-19-8-30 2-33 8-65 7-98-1-10-5-111-12-112Z" class="cls-1"/><path d="M618 54c3-7 5-29 12-29 9 1 18 6 22 13l-71 202c-4 13-22 37-31 15-6-17 6-45 11-60 14-49 35-95 57-141Z" class="cls-14"/><path d="m650 101 14 7c-30 69-63 137-100 202-11 19-22 38-39 50-2 2-5 4-8 3-21-2 8-86 15-100 18-34 42-68 65-99 5-6 48-65 53-63Z" class="cls-1"/><path d="M525 64c6-4 14-1 18 5 4 5 5 12 6 19l7 63c2 48-3 96-9 143-2 23-5 57-24 72-21 16-20-9-18-23a1700 1700 0 0 0 20-229c0-6-3-48 0-50Z" class="cls-14"/><path d="m509 152 33 11c2 62-4 124-18 184 23-61 59-116 105-163l28 22c-24 24-40 54-56 83-32 60-65 120-82 185-5 17-8 35-18 49-17 28-68 36-71-7-1-13 9-26 13-38 8-20 13-41 19-62 23-86 39-175 47-264Z" class="cls-1"/><path d="M555 262c21-26 46-50 73-71-36 37-73 75-91 124 1-10 1-21 4-30 2-9 8-16 14-23Z" class="cls-14"/><path d="M399 389c10-6 17-4 30-10 1-1 2 3 3 4 2 2-3 5-4 8l-4 6c-9 10-23 24-37 26-4 1-26 6-24 1 4-12 19-16 22-19 6-6 4-10 14-16Z" class="cls-23"/><path d="M400 412c-13 10-46 2-50 32-4 31 30 76 56 88 27 11 61-6 81-21 23-16 49-53 25-94-21-35-51-59-82-39-18 11-8 17-30 34Z" class="cls-3"/><path d="M450 371c15 8 28 23 39 41 24 40-2 77-26 94-15 11-39 24-61 24l4 2c27 11 61-6 81-21 23-16 49-53 25-94-16-27-38-48-62-46Z" class="cls-23"/><path d="M368 453c0 7 2 15 6 22 2 4 5 7 9 9s9 2 12-1l2-3v-5c-3-7-5-15-3-22 0-4 2-7 3-11 0-3 0-7-3-10-4-3-12-1-16 2-6 4-9 12-10 19ZM398 491c-3 2-4 6-2 9 2 2 6 4 9 3 2 0 4-1 4-3v-3c0-3-1-5-3-6s-5-2-7-1l-1 1Z" class="cls-19"/><path d="M151 247h-1s-1-1 0 0h1Z" class="cls-24"/><path d="M125 371c22 0 38-32 47-49 8-15 21-47-1-64-6-5-15-8-22-11l3 5c-6-9-20-23-29-21-9 3-21 5-29 9-30 17-38 34-35 65 4 41 39 66 66 66Z" class="cls-24"/><path d="M125 370c5 0 9-1 13-4-25-5-52-29-55-65-3-31 5-48 34-65l13-4c-3-1-5-2-7-1-9 2-21 4-29 9-30 16-38 34-35 64 4 42 39 66 66 66Z" class="cls-25"/><path d="m120 371 9-2c-27-2-58-26-62-65-2-31 6-48 35-65 6-3 14-5 22-7h-5c-9 2-21 4-29 9-30 16-38 33-35 64 3 41 38 66 65 66Z" class="cls-27"/><path d="M219 360v-1 1ZM144 445c20-1 28-28 46-37 10-6 19-13 25-23 3-4 5-15 2-21l-7-3c-7-3-6 8-11 1 5-10 5-28 10-38 7-15 6-36 0-53-13-37-46-57-70-51-8 2-27 13-4 19 7 2 15 14 20 23 20 31-34 71-41 82-8 13-18 29-18 45 1 20 21 57 48 56ZM219 360l1 1-1-1Z" class="cls-25"/><path d="M142 445h6c-24-5-41-38-42-56-1-16 10-32 18-45 6-12 60-51 41-83-5-8-13-20-20-22-23-6-4-17 3-19l2-1-13 1c-8 2-27 14-4 20 7 1 15 13 21 22 19 31-35 71-42 82-8 13-18 29-17 45 1 20 20 57 47 56ZM218 495c19 8 21 17 36 9l16-11c13-14 18-46 9-67-6-17-22-33-39-37-10-3-16 5-23 11-9 6-17 13-21 24-9 22-5 60 22 71Z" class="cls-27"/><path d="M225 538c16-3 37-20 46-40 12-25-7 7-43-13-10-5-16-11-20-21-6-15 1-27 9-37 11-14 28-35 30-57 2-23-12-38-25-49-14-11-14 15-36 47-13 20-27 36-37 49-16 22-19 40-9 63 7 17 32 65 85 58Z" class="cls-24"/><path d="M211 539c-29-11-45-41-51-54-10-23-7-41 9-63 11-13 25-30 38-49 12-19 17-36 23-44l-8-7c-14-12-14 14-36 47-13 19-27 36-37 49-16 22-19 40-9 63 7 16 28 57 71 58Z" class="cls-25"/><path d="M204 538c-35-8-53-42-59-56-10-23-7-41 9-63 10-14 24-30 37-50 17-25 21-46 29-49-12-7-14 18-34 48-13 20-27 36-37 50-17 22-19 40-9 63 6 14 25 52 64 57Z" class="cls-27"/><path d="M136 409c2-1 5-8 6-10l6-11c6-6 12-10 17-19s8-19 14-28c7-9 13-19 17-29 6-16 4-39-8-54l-5-7c-2-2-8-4-10-3-4 2-1 6 0 9 2 8 5 16 5 24 0 9-2 18-6 26-3 10-13 17-19 24-7 8-15 16-21 26-5 9-10 18-8 31 0 5 4 25 12 21Z" class="cls-24"/><path d="m245 485 19 2c3 1 7-1 11-1 3-4 5-11 7-17 4-11 7-23 4-36-2-9-5-19-12-26-5-5-12-8-18-10-8-3-14 2-18 10l-12 22c-5 10-12 15-8 29 5 14 15 24 27 27ZM276 487l-1-1-1 1h2Z" class="cls-25"/><path d="m266 480 2 1c6 2 14-9 16-15 3-7 5-17 4-26-2-23-20-34-35-30s-20 18-18 38c2 24 17 25 31 32Z" class="cls-24"/><path d="M224 395c-2 1-3 0-4-3l-1-7c2-1 4 3 5 4 1 2 2 5 0 6ZM214 417c-2 0-3-2-2-5s1-6 3-6 2 5 2 7c0 1-1 4-3 4ZM183 420c-1-3 0-3 3-3s6 0 7 2c0 2-3 3-5 3s-5 0-5-2ZM195 410c1-2 2-2 5 0s6 4 5 6c0 2-4 0-6-1s-4-3-4-5ZM212 397c1 3-1 3-4 3s-6 0-6-2c-1-2 3-3 4-3 2 0 5 0 6 2ZM203 436c-2 2-3 1-5-2s-4-5-3-7c1-1 4 1 5 3 2 2 4 4 3 6ZM193 273c-2 2-3 1-5-2-3-3-4-5-3-7 1-1 4 2 5 3 2 2 4 4 3 6ZM192 298c-2 1-3-1-4-4 0-3-1-6 1-7 2 0 3 4 4 6 0 2 1 5-1 5ZM166 315c-1-2 0-3 2-5 3-1 5-2 6 0 2 1-1 4-2 5s-4 2-6 0ZM174 300c-1-3 1-3 4-2 3 0 6 1 6 3s-4 2-5 2c-2 0-5-1-5-3ZM178 329c2 1 2 2 2 5-1 3-2 6-4 6l-1-7c0-2 1-4 3-4ZM157 335c-2-2-1-3 2-5 2-1 5-2 6-1 1 2-1 4-3 5-1 1-3 3-5 1ZM172 351c2 0 2 2 2 5s-1 6-3 6l-2-6c0-2 0-5 3-5ZM155 347c-1-3 1-3 4-2 3 0 6 1 6 3s-4 2-5 2c-2 0-5-1-5-3ZM164 366c3 0 3 2 2 5 0 3-1 6-3 6-2-1-2-5-2-7 1-2 1-5 3-4ZM144 371c-2-2-1-3 1-4 3-2 5-3 7-1 1 1-2 4-3 5-2 1-4 2-5 0ZM141 384c0-3 1-3 4-2 3 0 6 1 6 3 1 2-3 2-5 2s-5-1-5-3ZM158 388c-2 0-3-2-3-5s0-7 2-7 3 4 3 6 0 5-2 6ZM136 388c2 0 3 2 3 5s0 6-2 7c-2 0-3-4-3-6s-1-5 2-6ZM157 400c1 3 0 3-3 4-3 0-5 1-6-1s2-4 4-4c1-1 4-1 5 1ZM138 414c2 3 0 3-3 4-2 1-5 1-6-1s2-4 4-4 4-1 5 1ZM159 357c3 1 2 3 1 5-1 3-2 6-4 5v-6c0-2 1-5 3-4ZM113 290c3 0 3 2 2 5s-3 5-4 5c-2-1-2-5-1-7 0-1 1-4 3-4ZM119 321c0 2-1 2-4 1s-6-2-6-4 4-1 5-1c2 1 5 1 5 4ZM103 322c0 3-2 3-5 2l-6-4c0-2 4-2 6-2 2 1 5 1 5 4ZM105 334c2 2 1 3-1 5-3 2-5 3-6 2s0-5 2-6c1-1 3-3 5-1ZM148 282c2 1 2 3 1 6 0 3-1 5-3 5s-2-4-2-6c1-2 1-5 4-5ZM108 284c-2-1-2-3-1-5 2-3 3-6 5-5v6c0 2-1 5-4 4ZM180 352c-2-2-1-3 1-5 3-2 5-3 6-1 2 1-1 4-2 5s-4 3-5 1ZM194 321c-2-1-2-3-1-5 1-3 3-6 4-5 2 1 1 5 1 7-1 1-2 4-4 3ZM183 280c1 2 0 3-2 5-3 1-5 2-7 0-1-1 2-4 3-5 2-1 4-2 6 0ZM189 322c0 2-2 2-5 0-2-1-5-3-5-5 1-2 5-1 6 0 2 1 5 3 4 5ZM185 446c-2-1-2-3-1-6 2-2 3-5 5-4s1 5 0 7c-1 1-2 4-4 3ZM169 438c-1-3 1-3 4-3s6 0 6 2c1 2-3 3-5 3-1 0-4 0-5-2ZM174 453c-1-2 1-3 4-3l6 2c1 2-3 3-5 3s-4 1-5-2ZM200 468c0 3-2 3-5 2s-6-2-6-4 4-2 6-1c2 0 4 1 5 3ZM181 461c2 1 1 3-1 5s-4 3-5 2c-2-1 0-4 1-6 1-1 3-3 5-1ZM192 478c1 3-1 3-4 3s-6-1-6-3c-1-2 3-2 5-2s4 0 5 2ZM171 471c2 1 3 2 2 5-1 4-1 6-3 6s-2-4-2-6 1-5 3-5ZM143 348c-2-1-2-3-1-6 2-2 3-5 5-4s1 5 0 7c-1 1-2 4-4 3ZM132 355c-1-2 1-3 4-3s5 0 6 2-3 3-5 3-4 1-5-2ZM139 363c2 1 1 3-1 5s-4 3-6 2c-1-1 1-5 2-6s3-3 5-1ZM129 373c2 1 2 2 2 5-1 3-1 6-3 6s-2-4-2-6 1-5 3-5ZM96 296c-2-2-1-3 1-5 3-1 5-2 7-1 1 2-2 5-3 6-2 1-4 2-5 0ZM93 308c0-2 1-2 4-2 3 1 6 2 6 4 1 2-3 2-5 2-2-1-5-1-5-4ZM95 272c-2-1-2-2-1-5 2-3 3-5 5-4s1 4 0 6-2 4-4 3ZM84 280c-1-3 1-3 4-3s5 0 6 2-3 3-5 3-4 0-5-2ZM91 287c2 2 1 3-1 5s-4 4-6 3c-1-2 1-5 2-6s3-3 5-2ZM81 298c2 0 2 2 2 5-1 3-1 6-3 6-2-1-2-5-2-7s1-5 3-4ZM124 275c2 2 1 4-1 5-3 2-5 3-7 2-1-2 1-5 3-6 1-1 3-2 5-1ZM125 263c1 2-1 3-4 2-3 0-6-1-6-3s3-2 5-2 5 0 5 3ZM114 310c-2 2-3 1-5-2s-4-6-3-7c2-1 5 2 6 3 1 2 3 4 2 6ZM126 299c3 1 2 3 1 6-1 2-2 5-4 4-2 0-1-4-1-6 1-2 2-5 4-4ZM137 291c1 2-1 3-4 3s-6 0-6-2c-1-1 2-3 4-3s5-1 6 2ZM129 284c-2-2-2-3 0-5 2-3 4-4 6-3 1 1 0 4-1 6-1 1-3 3-5 2ZM138 272c-2 0-3-2-2-5l2-6c2 0 3 5 3 7s-1 4-3 4ZM200 482c2 0 2 2 2 5-1 3-1 6-3 6-2-1-2-5-2-7s0-5 3-4ZM213 500c3 0 3 2 2 5 0 3-1 6-3 5-2 0-2-4-2-6 1-2 1-5 3-4ZM238 504c0 3-1 3-4 3-3-1-6-2-7-4 0-2 4-2 6-2 1 0 4 1 5 3ZM180 491c0-3 1-3 4-2s6 3 6 5-4 1-6 1c-1-1-4-2-4-4ZM197 502c3-1 3 1 4 4s1 6-1 7l-4-6c0-2-1-5 1-5ZM192 456c-2-2-2-3-1-6 2-3 3-5 5-4s1 5 0 6c-1 2-2 5-4 4ZM240 450c-1-2 0-3 3-3s6 1 7 3c0 2-3 2-5 3-2 0-4 0-5-3ZM274 458c-2 0-3-2-2-5 0-3 1-6 3-6s2 4 2 6-1 5-3 5ZM245 465c-1-2 0-3 3-3s6 1 7 3c0 2-3 3-5 3s-4 0-5-3ZM261 433c-3 0-3-2-3-5s1-6 3-6l2 6c0 2 0 5-2 5ZM263 468c-3-1-2-3-1-6 1-2 3-5 5-4v6c-1 2-2 5-4 4ZM270 442c-3-2-3-3-1-6 1-3 3-5 4-4 2 1 1 5 1 6-1 2-2 5-4 4Z" class="cls-29"/><path d="M255 464c-2 0-3-2-2-5l2-6c2 0 3 4 3 6s-1 5-3 5ZM267 452c-1 2-2 1-4-2s-4-6-3-7 4 1 6 3c1 2 3 4 1 6ZM257 434c1 3-1 3-4 3s-6-1-6-3c-1-1 3-2 5-2s4 0 5 2Z" class="cls-29"/><path d="M338 370c9 7 8 14 19 24 1 1-2 3-3 5s-6-2-8-1l-8-2c-12-6-30-14-37-27-2-3-14-22-9-22 13 0 21 13 25 15 8 4 11 0 21 8Z" class="cls-23"/><path d="M316 378c-14-9-17-42-47-36s-62 53-64 82 26 55 46 69c24 16 67 29 97-8 27-31 39-68 10-90-17-13-19-2-42-17Z" class="cls-3"/><path d="M372 412c-3 16-13 33-26 50-30 36-73 24-97 7-16-10-36-29-43-49l-1 4c-2 29 26 55 46 69 24 16 67 29 97-8 21-24 33-52 24-73Z" class="cls-23"/><path d="M267 362c-8 2-14 6-19 12l-6 12c0 5 2 10 6 12h3l5-2c6-4 12-9 19-10l11-1c4-1 7-2 9-6 2-5-3-12-7-15-6-4-15-4-21-2ZM241 402c-3-2-7-1-9 2s-2 6 0 9c1 2 2 3 4 3 1 1 2 0 3-1 2-1 4-3 4-5 1-2 1-5-1-7l-1-1Z" class="cls-19"/><path d="M313 375s14-15 23-21c9-7 27-13 27-13l4 8s-14 1-26 9c-8 5-25 20-25 20l-3-3Z" class="cls-11"/><path fill="#456c4a" d="M341 358s25-4 40 7c19 14 30 31 30 31s-26 9-43 0c-18-9-33-34-33-34l6-4Z"/><path d="M369 369h-1v2c0 2 1 3 3 4 1 2 3 2 5 3l10 8 4 3c4 2 5-3 4-6 0-3-3-5-5-7-6-4-13-9-20-7Z" class="cls-19"/><path fill="#9ed2f2" d="M624 384c-4-9-10-17-9-25 0-16 16-57 16-57l-45-17s-17 40-27 53c-5 6-14 8-24 11-18 6-180 346-180 346l-15 38s-10 26 14 35c21 7 24-13 35-9 10 5 4 11 9 20 6 10 27 19 38 15 10-4 9-12 20-8 12 3 0 21 20 29 24 10 34-16 34-16l15-38s109-361 99-377Z"/><path d="M481 803c-20-9-9-26-20-30-11-3-10 5-20 9-11 3-33-5-38-15-5-9 1-15-10-20s-14 16-35 9c-23-9-13-35-13-35l-5 12s-10 26 14 35c21 7 24-13 35-9 10 5 4 11 9 20 6 10 27 19 38 15 10-4 9-12 20-8 12 3 0 21 20 29 24 10 34-16 34-16l5-12s-11 26-34 16Z" class="cls-5"/><path d="M624 384c-4-9-10-17-9-25 0-16 16-57 16-57l-20-8s-16 41-16 58c0 8 5 15 10 24 9 17-100 377-100 377l-15 38s-7 18-22 19l8 5c24 10 34-16 34-16l15-38s109-361 99-377Z" class="cls-5"/><path d="m626 317-47-18c-4-2-5-6-4-10l9-24c2-3 6-5 9-4l47 18c4 2 6 6 4 10l-9 24c-1 3-5 5-9 4ZM625 326l-51-20c-2 0-2-2-2-3v-1c1-1 2-2 4-1l52 20 1 3v1c-1 1-2 2-4 1Z" class="cls-13"/><path d="M584 266h4v34h-4z" class="cls-6" transform="rotate(21 586 283)"/><path d="M593 269h4v34h-4z" class="cls-6" transform="rotate(21 595 286)"/><path d="M603 273h4v34h-4z" class="cls-6" transform="rotate(21 605 290)"/><path d="M613 277h4v34h-4z" class="cls-6" transform="rotate(21 615 294)"/><path d="M622 281h4v34h-4z" class="cls-6" transform="rotate(21 624 298)"/><path d="M629 283h4v34h-4z" class="cls-6" transform="rotate(21 631 300)"/><path fill="#435ca7" d="m640 283-49-19-1-1 2-1 49 19 1 2h-2Z"/><path d="M571 334c-3 6-6 11-11 14l-7 4c-2 2-4 4-4 7 0 5 5 7 10 6 4-1 7-4 10-7 6-8 11-17 15-26 1-3 5-16-2-17-5 0-9 16-11 19ZM410 760c-1 4-1 9 2 9 1 1 3 0 4-2l4-7c3-8 12-24 2-25-9 0-11 16-12 25Z" class="cls-18"/><path d="m468 463-59 120 151 58 37-130-129-48z" class="cls-13"/><path d="m461 477 131 51-3 12-133-52 5-11zM421 559l147 57-5 15-149-58 7-14z" class="cls-2"/><path d="M539 380c-5-1-9 0-18 20L387 675c-4 8-6 21 2 26 8 4 15 6 25-14l124-281c4-8 10-25 1-26ZM352 738c0 4 0 8 3 9 2 1 4 0 5-2l4-6c3-8 13-24 1-26-11-1-13 16-13 25Z" class="cls-18"/><path fill="#e3d9c7" d="M3 737c-9 82 3 163 14 244 3 19 6 39 19 52 18 18 45 19 70 18l535-11c16 0 37-3 43-19 4-12-3-24-8-36-10-19-16-40-18-62-4-42 6-84 12-126 7-56 6-113-4-168-14-75-44-149-39-226-28 15-59 22-91 28-93 16-189 19-284 8-32-3-65-8-94-21-16-6-32-15-45-27-11-9-20-30-33-13-8 10-5 46-7 60l-13 58C40 576 11 655 3 737Z"/><path d="M676 985c-10-19-16-40-18-62-4-42 6-84 12-126 7-56 6-113-4-168-14-75-44-149-39-226-23 13-49 20-76 25 7 56 26 112 37 168 10 56 11 113 4 169-6 42-16 84-12 126 2 21 8 42 18 62 5 11 12 24 8 36-6 15-26 18-43 18l-535 11-1 1c2 5 5 10 9 14 18 18 45 19 70 18l535-11c16 0 37-3 43-19 4-12-3-24-8-36Z" class="cls-20"/><path d="m658 923-1-31h-3c-11 1-21 5-31 7-17 3-33 1-50 0-130-9-259 24-389 35-36 3-73 4-109-2-21-3-44-15-66-13l8 62c3 19 6 39 20 53 17 17 45 18 69 17l535-12c17 0 37-3 43-18 4-12-3-25-8-36-10-20-16-41-18-62Z" class="cls-26"/><path fill="#dd8c33" d="M676 985a183 183 0 0 1-19-93h-3c-11 1-21 5-31 7-14 3-28 2-42 1 3 18 8 36 17 53 5 11 12 24 8 36-6 15-26 18-43 19l-535 11h-1c2 5 5 10 9 14 18 18 45 19 70 18l243-5 292-6c17-1 37-4 43-19l1-5c1-10-5-21-9-31Z"/><path d="M201 662c14 27 18 57 24 86 5 29 10 59 25 85s40 49 71 54c18 3 36 0 54-2 23-2 47-4 70-4 22 1 49 0 63-16 7-10 9-23 10-34 1-22 0-43-2-64l-27 20-5 4-2 9c-2 15-3 31-13 43-9 10-24 15-38 18-32 6-66 8-98 3-13-2-26-4-37-11a82 82 0 0 1-38-53c-5-22-5-44-6-66-1-10-3-22-10-30-6-9-19-15-29-10l-12-32Z" class="cls-20"/><path d="M233 601c3-18 6-36 7-55 0-38-12-74-25-109 8 0 17 0 24 5 7 6 9 16 10 25 10 63 19 127 3 188-6 23-16 48-9 71-3-9-13-18-17-28-3-9-4-18-2-27 5-23 6-46 9-70ZM492 626a331 331 0 0 1 15 207c-3 3-8 1-11-2-12-12-13-31-12-48 0-18 2-37 4-56 2-16 4-33 1-49-2-12-7-23-12-35-10-31-13-64-16-97 0-5 0-10 4-12 7 9 4 29 7 40 4 18 13 35 20 52Z" class="cls-20"/><path d="M249 764c12 17 27 32 44 43 16 10 33 16 51 20 27 7 55 11 82 6s53-19 69-42c19-29 19-67 11-101s-22-66-29-101c-9-50 0-101 10-151l-34 4c-15 64-14 131 3 194 8 30 20 59 24 89 2 12 3 25-2 37-8 17-27 27-45 33-28 9-58 12-86 5-28-6-54-23-70-47-8-12-13-26-19-39-6-11-13-22-18-34-9-19-14-40-17-61-10-65 2-121 20-180l-29-5c-5 15-7 35-9 46-7 38-11 77-10 115 2 60 18 121 54 169Z" class="cls-26"/><path d="M91 525c0 23-6 46-16 67-11 23-26 44-32 68-5 25 5 55 29 62 17 5 36-4 46-18 11-14 14-32 15-49 0-14-2-29 1-42 4-15 14-28 21-42 19-36 23-93-15-119-14-10-29-11-41 3-16 19-8 47-8 70ZM35 757c-5 7-5 18-5 27 3 46 11 92 25 136 4 12 9 25 17 36s21 19 35 18l5-1 1-6c0-18-6-37-6-55 0-21 7-41 12-62 5-20 8-41 3-61-8-30-61-65-87-32Z" class="cls-17"/><path d="M544 831c-4 5-8 10-9 16-2 6-1 13 3 17l10 4 38 10c5 1 9 2 13 1l7-5c19-20 25-49 25-77 0-14 8-98-21-76-11 7-30 52-36 63-9 16-19 32-30 47Z" class="cls-20"/><path d="m323 265 4 4 3 4a7 7 0 0 1 3-2h1l1 1h1v2l-3 4 1 1a63 63 0 0 1 3 4l1 2 1 1h1v1l1 1v2a3 3 0 0 1-2 1h-2l-1-1-1-1-5-6-1 2-1 2-1 2-1 2a54 54 0 0 1-1 2h-1v1h-2l-1-1v-4l1-1 1-1 1-2a86 86 0 0 0 2-6h1v-1a48 48 0 0 0-7-8l-1-1-1-1-1 1-2 1-1 3v3l1 4a112 112 0 0 0 0 5h-2l-2-4a384 384 0 0 1-2-9v-1l1-3 2-2 2-2 3-1 3 1 3 1ZM308 288l1 2v2a23 23 0 0 1 2 4 29 29 0 0 1 0 7l-1 4a10 10 0 0 1-4 6h-4l-2-1-1-1-1-3v-7a37 37 0 0 1 5-9l-1-1-1-1-3-1-3 2-1 3a16 16 0 0 0-2 4v5l-1 1-1 1h-1v-1a5 5 0 0 1-1-3 20 20 0 0 1 7-16l2-1h5l2 2 2 2 1-1 1 1Zm-5 19 1 1 2-1 1-2v-3a14 14 0 0 0-1-6l-2 4-2 3v2l1 2ZM272 316l2 1 2 2v-2a39 39 0 0 1 1-6 5 5 0 0 1 2-4h1l3-1 3 2 1 1 1 1a25 25 0 0 1 6 18l-1 3a16 16 0 0 1-4 5 15 15 0 0 1-1 2l-1 1h-2l-1-1-1-1-1-1-10-13-1-1a10 10 0 0 1-2-2v-3l1-1 1-1h1v1Zm13-2a12 12 0 0 0-2-2l-1-1h-1l-1 3v2a38 38 0 0 0 1 10 12 12 0 0 0 3 5l2 1v1l1-1 1-2 1-3v-4a22 22 0 0 0-2-6l-2-3Z" class="cls-12"/><path d="M244 319c7-7 12-17 13-27 0-5-5-30-14-24-4 3-5 12-6 16a52 52 0 0 0 7 35Z" class="cls-30"/><path d="M256 276c6 6 13 10 20 13a31 31 0 0 0-18-31c-2-1-9-4-12-3-5 4 7 19 10 21Z" class="cls-30"/></g></svg>